<svg version="1.1" xmlns="http://www.w3.org/2000/svg" xmlns:xlink="http://www.w3.org/1999/xlink" width="435.73764" height="357.99909" viewBox="0,0,435.73764,357.99909"><defs><radialGradient cx="244.87817" cy="39.50357" r="80.01233" gradientUnits="userSpaceOnUse" id="color-1"><stop offset="0" stop-color="#ffffff"/><stop offset="1" stop-color="#ffffff" stop-opacity="0"/></radialGradient><linearGradient x1="270.57257" y1="47.44379" x2="305.67206" y2="66.61418" gradientUnits="userSpaceOnUse" id="color-2"><stop offset="0" stop-color="#151413"/><stop offset="1" stop-color="#090807"/></linearGradient><radialGradient cx="246.03536" cy="37.9065" r="5.65393" gradientUnits="userSpaceOnUse" id="color-3"><stop offset="0" stop-color="#000000" stop-opacity="0.25882"/><stop offset="1" stop-color="#000000" stop-opacity="0"/></radialGradient><linearGradient x1="262.21835" y1="43.82649" x2="250.6874" y2="33.40449" gradientUnits="userSpaceOnUse" id="color-4"><stop offset="0" stop-color="#000000" stop-opacity="0.25882"/><stop offset="1" stop-color="#000000" stop-opacity="0"/></linearGradient><radialGradient cx="266.04677" cy="100.93449" r="32.05835" gradientUnits="userSpaceOnUse" id="color-5"><stop offset="0" stop-color="#000000" stop-opacity="0.38824"/><stop offset="1" stop-color="#000000" stop-opacity="0"/></radialGradient><radialGradient cx="302.98388" cy="68.54396" r="23.76957" gradientUnits="userSpaceOnUse" id="color-6"><stop offset="0" stop-color="#000000" stop-opacity="0.07843"/><stop offset="1" stop-color="#000000" stop-opacity="0"/></radialGradient><radialGradient cx="310.26053" cy="76.25849" r="24.60254" gradientUnits="userSpaceOnUse" id="color-7"><stop offset="0" stop-color="#000000" stop-opacity="0.07843"/><stop offset="1" stop-color="#000000" stop-opacity="0"/></radialGradient><radialGradient cx="322.4854" cy="84.19286" r="28.61592" gradientUnits="userSpaceOnUse" id="color-8"><stop offset="0" stop-color="#000000" stop-opacity="0.07843"/><stop offset="1" stop-color="#000000" stop-opacity="0"/></radialGradient><radialGradient cx="334.4522" cy="92.92456" r="31.34199" gradientUnits="userSpaceOnUse" id="color-9"><stop offset="0" stop-color="#000000" stop-opacity="0.07843"/><stop offset="1" stop-color="#000000" stop-opacity="0"/></radialGradient><radialGradient cx="344.92637" cy="103.56738" r="31.34199" gradientUnits="userSpaceOnUse" id="color-10"><stop offset="0" stop-color="#000000" stop-opacity="0.07843"/><stop offset="1" stop-color="#000000" stop-opacity="0"/></radialGradient><linearGradient x1="254.81221" y1="100.08632" x2="265.63993" y2="74.59296" gradientUnits="userSpaceOnUse" id="color-11"><stop offset="0" stop-color="#000000" stop-opacity="0.37647"/><stop offset="1" stop-color="#000000" stop-opacity="0"/></linearGradient><radialGradient cx="242.72125" cy="71.25348" r="6.98603" gradientUnits="userSpaceOnUse" id="color-12"><stop offset="0" stop-color="#000000" stop-opacity="0.37255"/><stop offset="1" stop-color="#000000" stop-opacity="0"/></radialGradient><linearGradient x1="251.38919" y1="86.10045" x2="276.70284" y2="60.41906" gradientUnits="userSpaceOnUse" id="color-13"><stop offset="0" stop-color="#000000" stop-opacity="0.4"/><stop offset="1" stop-color="#000000" stop-opacity="0"/></linearGradient><radialGradient cx="248.00523" cy="104.42688" r="23.68114" gradientUnits="userSpaceOnUse" id="color-14"><stop offset="0" stop-color="#000000" stop-opacity="0.46667"/><stop offset="1" stop-color="#000000" stop-opacity="0"/></radialGradient><linearGradient x1="252.72253" y1="71.43379" x2="248.16028" y2="107.27865" gradientUnits="userSpaceOnUse" id="color-15"><stop offset="0" stop-color="#151413"/><stop offset="1" stop-color="#090807"/></linearGradient><linearGradient x1="328.99933" y1="67.65616" x2="341.01881" y2="238.50833" gradientUnits="userSpaceOnUse" id="color-16"><stop offset="0" stop-color="#000000" stop-opacity="0"/><stop offset="1" stop-color="#000000" stop-opacity="0.4902"/></linearGradient><linearGradient x1="423.31861" y1="183.20915" x2="273.97973" y2="24.49191" gradientUnits="userSpaceOnUse" id="color-17"><stop offset="0" stop-color="#000000" stop-opacity="0.37647"/><stop offset="1" stop-color="#000000" stop-opacity="0"/></linearGradient></defs><g transform="translate(-32.16402,40.51229)"><g data-paper-data="{&quot;isPaintingLayer&quot;:true}" fill-rule="nonzero" stroke-linejoin="miter" stroke-miterlimit="10" stroke-dasharray="" stroke-dashoffset="0" style="mix-blend-mode: normal"><path d="M165.07702,45.31371c-3.20885,-44.07292 29.91803,-82.40238 73.99097,-85.61123c44.07292,-3.20885 82.40238,29.91803 85.61123,73.99097c3.20885,44.07292 -29.91803,82.40238 -73.99097,85.61123c-44.07292,3.20885 -82.40238,-29.91803 -85.61123,-73.99097z" fill="url(#color-1)" stroke="none" stroke-width="NaN" stroke-linecap="butt"/><path d="M305.67206,66.61418c-2.42813,4.44571 -12.2538,3.75824 -21.94625,-1.53552c-9.69246,-5.29375 -15.58136,-13.18916 -13.15323,-17.63487c2.42813,-4.44571 12.2538,-3.75824 21.94625,1.53552c9.69246,5.29375 15.58136,13.18916 13.15323,17.63487z" fill="url(#color-2)" stroke="none" stroke-width="0" stroke-linecap="butt"/><path d="M376.69109,207.85514l-29.85444,-71.59982l80.63625,-8.30492c0,0 39.67815,24.1655 39.73896,25.0299c0.3941,5.60197 -10.15319,38.71542 -10.15319,38.71542z" fill="#616161" stroke="none" stroke-width="0" stroke-linecap="butt"/><path d="M241.94676,34.25613l3.17309,3.0325" fill="none" stroke="#656565" stroke-width="12" stroke-linecap="round"/><path d="M239.60249,37.9678c-0.22618,-3.215 2.19674,-6.00462 5.41175,-6.2308c3.215,-0.22618 6.00462,2.19674 6.2308,5.41175c0.22618,3.215 -2.19674,6.00462 -5.41175,6.2308c-3.215,0.22618 -6.00462,-2.19674 -6.2308,-5.41175z" fill="#5d5d5d" stroke="none" stroke-width="0" stroke-linecap="butt"/><path d="M240.79738,44.01784l-0.80404,-11.42913l11.28,-0.79355l0.80404,11.42914z" fill="url(#color-3)" stroke="none" stroke-width="0" stroke-linecap="butt"/><path d="M246.68432,39.26962l13.17446,13.72395" fill="none" stroke="#6d6d6d" stroke-width="7.5" stroke-linecap="round"/><path d="M243.37588,41.11204c0,0 -1.23713,-3.04224 0.73824,-4.63235c2.7885,-2.24465 5.17839,0.11323 5.17839,0.11323l3.52297,3.61764l-5.63219,5.02293z" fill="url(#color-4)" stroke="none" stroke-width="0" stroke-linecap="butt"/><g fill="#727272" stroke="none" stroke-width="0" stroke-linecap="butt"><path d="M285.41315,57.61618c0.86759,12.33251 -8.03905,23.00604 -19.89356,23.84001c-11.8545,0.83396 -22.16779,-8.48744 -23.03538,-20.81995c-0.86759,-12.33251 8.03905,-23.00604 19.89356,-23.84001c11.8545,-0.83396 22.16779,8.48744 23.03538,20.81995z"/><path d="M268.70675,106.97765l-23.10495,-36.64517l31.35995,-28.9956l35.43775,19.07766z"/></g><path d="M326.36753,85.87339c1.2913,18.35536 -11.99935,34.24396 -29.6855,35.48818c-17.68615,1.24422 -33.07042,-12.62709 -34.36172,-30.98245c-1.2913,-18.35536 11.99935,-34.24396 29.6855,-35.48818c17.68615,-1.24422 33.07042,12.62709 34.36172,30.98245z" fill="#5b5b5b" stroke="none" stroke-width="0" stroke-linecap="butt"/><path d="M254.51873,39.03035l-1.09859,1.36155l-0.35865,-11.55776l7.24299,-1.32349l2.45698,9.68191z" fill="#5d5d5d" stroke="none" stroke-width="0" stroke-linecap="butt"/><path d="M253.2462,29.62943l-0.52227,-4.26847l2.21953,-0.15614l0.34393,3.83706z" fill="#5d5d5d" stroke="none" stroke-width="0" stroke-linecap="butt"/><path d="M262.39876,90.46482c-1.29574,-18.41832 11.9715,-34.3566 29.63318,-35.5991c17.66168,-1.2425 33.0297,12.68127 34.32543,31.09961c1.29574,18.41832 -11.9715,34.3566 -29.63317,35.5991c-17.66168,1.2425 -33.02971,-12.68127 -34.32544,-31.0996z" fill="url(#color-5)" stroke="none" stroke-width="0" stroke-linecap="butt"/><path d="M258.32799,28.51276l-0.77535,-3.65872l1.91984,-0.20905l0.85415,3.72716z" fill="#5d5d5d" stroke="none" stroke-width="0" stroke-linecap="butt"/><path d="M282.31073,107.80196l-12.07178,-18.28606l3.73956,-17.89666l124.20544,124.45397l1.10617,32.82414z" fill="#666666" stroke="none" stroke-width="0" stroke-linecap="butt"/><path d="M331.05283,231.3224l-37.47842,-44.48048c0,0 -1.51063,-26.7561 -1.63325,-27.55442c-0.98216,-6.39458 -21.63193,-69.77922 -21.63193,-69.77922l96.65302,103.63363l37.84451,41.59112z" fill="#616161" stroke="none" stroke-width="0" stroke-linecap="butt"/><path d="M280.06596,73.43901c1.18374,-1.38355 12.01037,-4.61299 24.98529,-6.34214c12.97491,-1.72915 22.60948,-3.06735 21.42575,-1.6838c-1.15644,1.35164 -24.99589,6.17368 -25.29511,6.21356c-12.97491,1.72914 -22.29967,3.19593 -21.11593,1.81238z" fill="url(#color-6)" stroke="none" stroke-width="0" stroke-linecap="butt"/><path d="M286.61536,82.40309c1.19518,-1.85904 12.34421,-6.01205 25.75495,-8.06987c13.41073,-2.05783 23.36769,-3.65979 22.17251,-1.80075c-1.16763,1.81617 -25.76984,7.83996 -26.0791,7.8874c-13.41073,2.05783 -23.04354,3.84227 -21.84836,1.98323z" fill="url(#color-7)" stroke="none" stroke-width="0" stroke-linecap="butt"/><path d="M294.96544,91.08944c1.39712,-2.06312 14.37812,-6.70537 29.98092,-9.03662c15.6028,-2.33124 27.18756,-4.14416 25.79043,-2.08105c-1.36492,2.01555 -29.99735,8.78208 -30.35715,8.83584c-15.60281,2.33124 -26.81134,4.34494 -25.41422,2.28182z" fill="url(#color-8)" stroke="none" stroke-width="0" stroke-linecap="butt"/><path d="M337.16067,90.76711c17.09742,-2.4364 29.79244,-4.32743 28.24913,-2.25402c-1.50774,2.02558 -32.89951,8.98626 -33.29378,9.04244c-17.09742,2.4364 -29.3819,4.52578 -27.83857,2.45237c1.54332,-2.07339 15.78581,-6.80439 32.88324,-9.24079z" fill="url(#color-9)" stroke="none" stroke-width="0" stroke-linecap="butt"/><path d="M347.63486,101.40994c17.09742,-2.4364 29.79244,-4.32743 28.24913,-2.25402c-1.50774,2.02558 -32.89951,8.98626 -33.29378,9.04244c-17.09742,2.4364 -29.3819,4.52578 -27.83857,2.45237c1.54332,-2.07339 15.78581,-6.80439 32.88324,-9.24079z" fill="url(#color-10)" stroke="none" stroke-width="0" stroke-linecap="butt"/><g fill="none" stroke="#5f5f5f" stroke-width="3" stroke-linecap="round"><path d="M256.96814,85.09128c0,0 -3.69419,-11.69008 9.81583,-24.82151c13.17765,-12.80837 24.93339,-9.37938 24.93339,-9.37938"/><path d="M249.23138,72.55636c0,0 -3.09965,-9.93812 8.18131,-21.08429c11.00344,-10.87194 19.66838,-8.50848 19.66838,-8.50848"/><path d="M244.39873,63.99212c0,0 -2.73209,-8.45189 7.34136,-17.97178c9.82563,-9.28569 17.533,-7.2975 17.533,-7.2975"/></g><path d="M263.04769,110.9651c-2.34764,-1.61416 -9.47359,-16.4132 -11.97526,-19.53804c-8.22003,-10.26764 -4.50969,-17.89691 -2.41221,-25.21445c0.91903,-3.20622 4.40584,-3.04153 7.19173,-2.67403c2.71933,0.35872 9.21609,10.82417 9.21609,10.82417c0,0 -0.70441,1.33241 -1.18805,2.83101c-0.72333,2.24125 -1.26124,5.24525 -1.35602,6.37046c-0.12487,1.48259 -0.35763,3.29693 -0.11923,7.10651c0.32201,5.14587 2.84884,13.46578 3.55065,12.82526c0.71729,-0.65465 0.21833,6.95943 0.21833,6.95943c0,0 2.24024,4.19937 -3.12603,0.50969z" fill="url(#color-11)" stroke="none" stroke-width="NaN" stroke-linecap="butt"/><path d="M236.77354,68.48043c-0.37577,-1.94821 -0.13069,-4.84911 2.14202,-6.01283c0.99428,-0.5091 5.62659,0.59644 6.91519,0.4301c4.23406,-0.54657 4.32285,2.98413 4.86301,5.78464c0.23668,1.22706 -0.87594,2.58107 -1.80337,3.59974c-1.18924,1.30622 -4.1278,0.53541 -6.50667,0.84249c-4.23406,0.54657 -5.07001,-1.84363 -5.61018,-4.64414z" fill="url(#color-12)" stroke="none" stroke-width="NaN" stroke-linecap="butt"/><path d="M363.21026,124.51421l-1.36067,-9.28144l32.32269,-5.81246l1.48717,8.56483z" fill="#838383" stroke="none" stroke-width="0" stroke-linecap="butt"/><path d="M129.21638,198.16761c17.28871,1.36412 73.7918,49.36046 75.3853,51.83176c-9.65838,18.05086 -22.38778,28.62818 -27.19379,37.43671c-4.43957,0.4993 -21.1042,26.80729 -50.96467,29.11689c-29.86047,2.30959 -52.82826,1.02521 -79.22646,-11.82258c-26.3982,-12.84779 -10.04545,-33.14009 -10.04545,-33.14009c0,0 35.87945,-23.03879 63.24227,-46.00134c26.55432,-22.28405 28.80281,-27.42135 28.80281,-27.42135z" fill="#383735" stroke="none" stroke-width="0" stroke-linecap="butt"/><path d="M263.92684,98.80197l-23.16331,-34.51666c0,0 0.72741,-7.42884 1.90188,-10.87367c1.0657,-3.1258 4.85041,-8.93136 4.85041,-8.93136c0,0 1.76143,-2.75193 5.77553,-4.65483c4.62209,-2.19113 11.71885,-3.46908 14.09928,-1.63219c1.97242,1.52204 17.60963,6.58271 20.39677,9.33719c2.40867,2.38046 -15.4547,16.10003 -15.4547,16.10003c0,0 -6.62356,6.45453 -8.9083,15.585c-0.01574,0.06292 -0.0278,0.12678 -0.04136,0.19038c-1.02365,4.8019 -1.24789,5.9996 -1.09686,9.54824c0.21532,5.4687 1.64065,9.84788 1.64065,9.84788z" fill="url(#color-13)" stroke="none" stroke-width="0" stroke-linecap="butt"/><path d="M185.65853,264.0501c-13.89508,2.45362 -65.04553,-29.9992 -66.79839,-32.05975c-14.28952,-16.79776 62.86684,-110.6079 102.83124,-127.76409c3.3971,-1.45833 8.91981,4.95352 15.21597,10.52634c4.52181,4.0023 9.12729,5.62929 15.10016,12.65058c7.92018,9.31041 -10.02171,34.99248 -10.02171,34.99248c0,0 -15.15821,47.178 -30.74328,76.72162c-9.55309,18.10919 -19.44043,23.84796 -25.58401,24.93281z" fill="#383735" stroke="none" stroke-width="0" stroke-linecap="butt"/><path d="M267.21133,120.21081c0.67642,9.61509 -4.18599,4.80483 -12.19838,9.5803c-3.50527,2.08917 -8.23054,-1.78656 -12.62396,-1.47749c-14.43595,1.01557 -21.06067,-0.65808 -22.03301,-14.47958c-0.42604,-6.05597 3.73404,-12.20605 7.16839,-16.79788c4.40385,-5.88805 14.07442,-1.00252 22.18517,-1.57311c14.43595,-1.01557 16.52944,10.92625 17.50178,24.74774z" fill="url(#color-14)" stroke="none" stroke-width="NaN" stroke-linecap="butt"/><path d="M266.89781,117.50179c-1.34512,2.55409 -11.71685,12.10147 -12.31167,11.55025c-0.12184,-0.11291 -5.72142,-2.40881 -10.37253,-5.80114c-4.42706,-3.22893 -8.58751,-6.64752 -11.28323,-9.12332c-7.11825,-6.53751 -8.20822,-12.984 -8.17617,-13.22543c0.70975,-5.34554 4.16722,-10.74389 6.77724,-14.44931c2.10605,-2.98996 4.2784,-19.05468 5.56001,-20.8342c0.83784,-3.00456 3.57088,-12.90932 7.95852,-16.60378c0.89698,-0.75527 4.47846,-3.24624 5.71407,-2.63142c1.00369,0.49941 3.97631,1.93462 4.46505,3.19435c0.77626,2.00084 0.95384,3.25985 -0.05701,4.59276c-1.25432,3.11155 -3.67329,9.08104 -4.86992,12.19668c-0.02395,0.06236 -0.244,0.73689 -0.26674,0.79656c-0.16401,1.15653 -0.11301,3.29183 -0.16578,4.30678c-0.22161,4.26217 0.14812,5.89156 0.14812,5.89156c0,0 12.42979,18.75723 13.87054,20.983c0.10069,0.15556 1.4952,3.71639 3.41328,7.10132c1.32934,2.34598 3.41368,4.92215 3.41368,4.92215c0,0 -1.31679,2.385 -3.81744,7.1332z" fill="url(#color-15)" stroke="none" stroke-width="0" stroke-linecap="butt"/><path d="M221.29519,100.26942c1.97768,-1.52931 3.50699,0.44837 3.50699,0.44837l0.42758,0.56384c5.51216,6.14831 12.68294,12.38317 19.55521,16.98618c3.86596,2.5894 7.65278,4.69385 11.03647,7.94477c0,0 1.79869,1.73629 0.06241,3.53499c-1.73629,1.79869 -3.53499,0.06241 -3.53499,0.06241c-3.14084,-3.04811 -6.73018,-4.95939 -10.33359,-7.37936c-7.21166,-4.84319 -14.7132,-11.35691 -20.50714,-17.80986l-0.66134,-0.84434c0,0 -1.52931,-1.97768 0.44837,-3.50699z" fill="#2e2d2b" stroke="none" stroke-width="0.5" stroke-linecap="butt"/><path d="M292.78109,186.5348l-0.85598,-27.57368c0,0 -4.43773,-15.1973 -7.36387,-24.63721c-3.9617,-12.78072 -14.25539,-45.10806 -14.25539,-45.10806l3.7571,-17.69491l124.24758,125.50219l0.85629,37.39447l-69.11099,-2.75043z" fill="url(#color-16)" stroke="none" stroke-width="0" stroke-linecap="butt"/><path d="M271.973,64.98277l37.91499,-5.59988l118.24411,68.57064l-72.68407,18.40243z" fill="#727272" stroke="none" stroke-width="0" stroke-linecap="butt"/><path d="M272.62382,70.11257l-0.67908,-5.12483l85.0866,80.50643l0.63048,10.53604z" fill="#696969" stroke="none" stroke-width="0" stroke-linecap="butt"/><path d="M456.84559,192.21989c0,0 -15.50691,1.44507 -22.97318,2.87838c-9.8926,1.89909 -29.94986,7.61875 -29.94986,7.61875l-131.30405,-132.54618l-0.65634,-5.14774l38.90099,-5.77521l117.12868,68.65506l-0.25699,0.22438l28.66588,17.5567l11.50094,7.52764z" fill="url(#color-17)" stroke="none" stroke-width="0" stroke-linecap="butt"/><path d="M275.47454,70.89907l-0.02373,-4.96567l3.87796,3.65485l44.36548,-8.10671l0.82764,4.99611l-44.92661,8.96238z" fill="#4d4d4d" stroke="none" stroke-width="NaN" stroke-linecap="butt"/><path d="M279.3476,70.00543l-4.047,-4.06525l42.83914,-7.67508l5.53545,3.21989z" fill="#5f5f5f" stroke="none" stroke-width="0" stroke-linecap="butt"/><path d="M281.53192,78.20921l-0.02598,-5.43931l4.24786,4.00346l48.5972,-8.87995l0.90659,5.47266l-49.21188,9.81724z" fill="#4d4d4d" stroke="none" stroke-width="NaN" stroke-linecap="butt"/><path d="M285.77446,77.23031l-4.43303,-4.453l47.12892,-8.70797l5.84916,3.84451z" fill="#5f5f5f" stroke="none" stroke-width="0" stroke-linecap="butt"/><path d="M289.07242,86.48069l-0.02909,-6.09058l4.75647,4.4828l54.41584,-9.94317l1.01514,6.1279l-55.10411,10.99268z" fill="#4d4d4d" stroke="none" stroke-width="NaN" stroke-linecap="butt"/><path d="M293.82287,85.38462l-4.9638,-4.98618l52.28156,-9.52227l7.09905,4.09231z" fill="#5f5f5f" stroke="none" stroke-width="0" stroke-linecap="butt"/><path d="M298.75069,94.96117l-0.03096,-6.48122l5.06153,4.77033l57.90606,-10.58092l1.08024,6.52094l-58.63846,11.69774z" fill="#4d4d4d" stroke="none" stroke-width="NaN" stroke-linecap="butt"/><path d="M303.80585,93.79478l-5.28218,-5.30599l55.77863,-10.28986l7.4258,4.5213z" fill="#5f5f5f" stroke="none" stroke-width="0" stroke-linecap="butt"/><path d="M307.42182,104.37204l-0.03243,-6.78888l5.3018,4.99678l60.65477,-11.08318l1.13152,6.83049l-61.42193,12.25302z" fill="#4d4d4d" stroke="none" stroke-width="NaN" stroke-linecap="butt"/><path d="M312.90402,103.13712l-5.53291,-5.55785l58.75933,-11.02051l7.23695,4.95893z" fill="#5f5f5f" stroke="none" stroke-width="0" stroke-linecap="butt"/><path d="M319.65955,116.38242l-0.03553,-7.44014l5.8104,5.47611l66.4734,-12.1464l1.24007,7.48573l-67.31417,13.42845z" fill="#4d4d4d" stroke="none" stroke-width="NaN" stroke-linecap="butt"/><path d="M325.46261,115.04345l-6.06369,-6.09101l64.39614,-12.07771l8.08834,5.41149z" fill="#5f5f5f" stroke="none" stroke-width="0" stroke-linecap="butt"/><path d="M342.76666,127.7588l-0.44638,-7.59984l11.98843,10.06122l57.44343,-11.93759l2.04946,7.75225l-58.94689,11.90318z" fill="#545454" stroke="none" stroke-width="NaN" stroke-linecap="butt"/><path d="M354.33503,130.59436l-12.38892,-10.40906l51.13597,-10.10061l17.19971,8.67736z" fill="#5f5f5f" stroke="none" stroke-width="0" stroke-linecap="butt"/><path d="M365.45743,116.21744l-4.14306,-6.07792l18.48856,-3.77766l7.97915,5.27728z" fill="#5a5a5a" stroke="none" stroke-width="0" stroke-linecap="butt"/><path d="M360.98473,115.51372c0,0 -0.83702,-2.60072 -0.53551,-4.86662c0.45748,-3.43805 1.53789,-7.31473 1.14915,-8.69609c-0.54315,-1.93006 -0.39657,-5.17414 -2.04014,-7.44129c-2.28384,-3.15034 -4.55747,-3.69678 -4.55747,-3.69678l6.64724,-1.08036c0,0 3.83922,1.78945 4.42515,3.54885c0.4225,1.26861 1.55774,5.06906 2.06141,7.86951c0.57056,3.17242 -1.56859,5.53672 -1.31234,7.97559c0.24848,2.36493 3.58375,4.49894 3.58375,4.49894z" fill="#5f5f5f" stroke="none" stroke-width="0" stroke-linecap="butt"/><path d="M362.97975,124.38291l-7.76573,-5.05108c0,0 -5.7529,-29.11338 -1.12593,-28.69971c5.53962,0.49527 6.36535,3.4465 7.94846,12.8167c0.7888,4.66877 -1.17605,3.17495 -1.30718,10.76464c-0.02704,1.56488 1.7719,0.69407 1.7719,0.69407l31.77914,-5.90588l1.35545,9.48549z" fill="#515151" stroke="none" stroke-width="0" stroke-linecap="butt"/><path d="M385.90028,99.98001c0.49158,6.9877 0.28982,11.17184 -3.79396,11.45913c-1.93832,0.13636 -4.79481,-3.01945 -4.79481,-3.01945c0,0 -1.37489,-4.20174 -1.63316,-7.87283c-0.49158,-6.9877 -2.14633,-12.4117 1.93746,-12.69899c4.0838,-0.2873 7.79287,5.14446 8.28446,12.13216z" fill="#545454" stroke="none" stroke-width="0" stroke-linecap="butt"/><path d="M384.29951,111.02491c0,0 -0.85934,-2.44119 -0.52497,-4.57609c0.50734,-3.23928 1.67258,-6.8962 1.27483,-8.19326c-0.55576,-1.81228 -0.3766,-4.8666 -2.08599,-6.9876c-2.37531,-2.94728 -4.76007,-3.44393 -4.76007,-3.44393l6.99288,-1.06829c0,0 4.02013,1.65441 4.62217,3.30575c0.4341,1.19068 1.5975,4.7587 2.10503,7.39044c0.57494,2.98131 -1.69107,5.22306 -1.44073,7.51642c0.24276,2.22384 3.73072,4.20643 3.73072,4.20643z" fill="#5f5f5f" stroke="none" stroke-width="0" stroke-linecap="butt"/><path d="M375.40744,164.6755c0,0 -4.14509,-3.64762 -6.18775,-5.13176c-2.8583,-2.07675 -5.63246,-8.98451 -5.63246,-8.98451c0,0 12.84741,-2.0403 23.64644,-4.18812c2.87781,-0.57236 -6.15233,-6.40875 -6.15233,-6.40875l31.93652,-8.1223c0,0 7.75518,7.73054 10.0703,7.2829c11.59567,-2.24213 20.87795,-3.76598 20.87795,-3.76598c0,0 6.85855,3.96236 6.91935,4.82676c0.3941,5.60197 -3.36349,8.91292 -3.36349,8.91292z" fill="#535353" stroke="none" stroke-width="0" stroke-linecap="butt"/><path d="M375.467,167.28416l-11.52517,-9.5791l-0.35318,-7.17057l11.71317,7.61261z" fill="#444444" stroke="none" stroke-width="0" stroke-linecap="butt"/><path d="M451.14889,148.48554l-75.67022,18.80196l-0.21847,-9.16285l75.61606,-17.79997z" fill="#4c4c4c" stroke="none" stroke-width="0" stroke-linecap="butt"/></g></g></svg>