<svg version="1.1" xmlns="http://www.w3.org/2000/svg" xmlns:xlink="http://www.w3.org/1999/xlink" width="30.27465" height="27.10302" viewBox="0,0,30.27465,27.10302"><defs><linearGradient x1="240" y1="166.87706" x2="240" y2="193.12294" gradientUnits="userSpaceOnUse" id="color-1"><stop offset="0" stop-color="#ecf6ff"/><stop offset="1" stop-color="#85a0a2"/></linearGradient></defs><g transform="translate(-225.29124,-166.87706)"><g data-paper-data="{&quot;isPaintingLayer&quot;:true}" fill-rule="nonzero" stroke="none" stroke-width="1" stroke-linecap="butt" stroke-linejoin="miter" stroke-miterlimit="10" stroke-dasharray="" stroke-dashoffset="0" style="mix-blend-mode: normal"><path d="M226.56717,189.3505l11.62025,-20.07695c1.18826,-2.05245 4.15119,-2.05245 5.33945,0l11.62025,20.07695c1.18826,2.05245 -0.29321,4.62958 -2.66972,4.62958h-23.2405c-2.37652,0 -3.85799,-2.57713 -2.66972,-4.62958zM242.40034,181.63453v-3.08639c0,-0.84876 -0.69444,-1.54319 -1.54319,-1.54319c-0.84876,0 -1.54319,0.69444 -1.54319,1.54319v3.08639c0,0.84876 0.69444,1.54319 1.54319,1.54319c0.84876,0 1.54319,-0.69444 1.54319,-1.54319zM242.40034,186.26411h-3.08639v3.08639h3.08639z" fill="#283b54"/><path d="M225.71002,188.49335l11.62025,-20.07695c1.18826,-2.05245 4.15119,-2.05245 5.33945,0l11.62025,20.07695c1.18826,2.05245 -0.29321,4.62958 -2.66973,4.62958h-23.2405c-2.37652,0 -3.85799,-2.57713 -2.66973,-4.62958zM241.54319,180.77738v-3.08639c0,-0.84876 -0.69444,-1.54319 -1.54319,-1.54319c-0.84876,0 -1.54319,0.69444 -1.54319,1.54319v3.08639c0,0.84876 0.69444,1.54319 1.54319,1.54319c0.84876,0 1.54319,-0.69444 1.54319,-1.54319zM241.54319,185.40697h-3.08639v3.08639h3.08639z" fill="url(#color-1)"/></g></g></svg>