<svg version="1.1" xmlns="http://www.w3.org/2000/svg" xmlns:xlink="http://www.w3.org/1999/xlink" width="444.2423" height="347.73447" viewBox="0,0,444.2423,347.73447"><defs><radialGradient cx="249.42898" cy="38.30116" r="80.01233" gradientUnits="userSpaceOnUse" id="color-1"><stop offset="0" stop-color="#ffffff"/><stop offset="1" stop-color="#ffffff" stop-opacity="0"/></radialGradient><linearGradient x1="274.47896" y1="48.08622" x2="308.09372" y2="69.75477" gradientUnits="userSpaceOnUse" id="color-2"><stop offset="0" stop-color="#151413"/><stop offset="1" stop-color="#090807"/></linearGradient><radialGradient cx="250.69909" cy="36.79233" r="5.65393" gradientUnits="userSpaceOnUse" id="color-3"><stop offset="0" stop-color="#000000" stop-opacity="0.25882"/><stop offset="1" stop-color="#000000" stop-opacity="0"/></radialGradient><linearGradient x1="266.40947" y1="43.87183" x2="255.66576" y2="32.64002" gradientUnits="userSpaceOnUse" id="color-4"><stop offset="0" stop-color="#000000" stop-opacity="0.25882"/><stop offset="1" stop-color="#000000" stop-opacity="0"/></linearGradient><radialGradient cx="266.08086" cy="101.10707" r="32.05835" gradientUnits="userSpaceOnUse" id="color-5"><stop offset="0" stop-color="#000000" stop-opacity="0.38824"/><stop offset="1" stop-color="#000000" stop-opacity="0"/></radialGradient><radialGradient cx="305.27251" cy="71.48425" r="23.76957" gradientUnits="userSpaceOnUse" id="color-6"><stop offset="0" stop-color="#000000" stop-opacity="0.07843"/><stop offset="1" stop-color="#000000" stop-opacity="0"/></radialGradient><radialGradient cx="311.96976" cy="79.70681" r="24.60254" gradientUnits="userSpaceOnUse" id="color-7"><stop offset="0" stop-color="#000000" stop-opacity="0.07843"/><stop offset="1" stop-color="#000000" stop-opacity="0"/></radialGradient><radialGradient cx="323.58619" cy="88.50795" r="28.61592" gradientUnits="userSpaceOnUse" id="color-8"><stop offset="0" stop-color="#000000" stop-opacity="0.07843"/><stop offset="1" stop-color="#000000" stop-opacity="0"/></radialGradient><radialGradient cx="334.88735" cy="98.08557" r="31.34199" gradientUnits="userSpaceOnUse" id="color-9"><stop offset="0" stop-color="#000000" stop-opacity="0.07843"/><stop offset="1" stop-color="#000000" stop-opacity="0"/></radialGradient><radialGradient cx="344.56103" cy="109.46088" r="31.34199" gradientUnits="userSpaceOnUse" id="color-10"><stop offset="0" stop-color="#000000" stop-opacity="0.07843"/><stop offset="1" stop-color="#000000" stop-opacity="0"/></radialGradient><linearGradient x1="254.93755" y1="99.44533" x2="267.5879" y2="74.80553" gradientUnits="userSpaceOnUse" id="color-11"><stop offset="0" stop-color="#000000" stop-opacity="0.37647"/><stop offset="1" stop-color="#000000" stop-opacity="0"/></linearGradient><radialGradient cx="244.97222" cy="69.81062" r="6.98603" gradientUnits="userSpaceOnUse" id="color-12"><stop offset="0" stop-color="#000000" stop-opacity="0.37255"/><stop offset="1" stop-color="#000000" stop-opacity="0"/></radialGradient><linearGradient x1="252.53916" y1="85.24782" x2="279.65084" y2="61.47239" gradientUnits="userSpaceOnUse" id="color-13"><stop offset="0" stop-color="#000000" stop-opacity="0.4"/><stop offset="1" stop-color="#000000" stop-opacity="0"/></linearGradient><radialGradient cx="247.83335" cy="103.28014" r="23.68114" gradientUnits="userSpaceOnUse" id="color-14"><stop offset="0" stop-color="#000000" stop-opacity="0.46667"/><stop offset="1" stop-color="#000000" stop-opacity="0"/></radialGradient><linearGradient x1="254.934" y1="70.7167" x2="247.78091" y2="106.13564" gradientUnits="userSpaceOnUse" id="color-15"><stop offset="0" stop-color="#151413"/><stop offset="1" stop-color="#090807"/></linearGradient><linearGradient x1="331.28375" y1="72.48792" x2="330.86499" y2="243.76184" gradientUnits="userSpaceOnUse" id="color-16"><stop offset="0" stop-color="#000000" stop-opacity="0"/><stop offset="1" stop-color="#000000" stop-opacity="0.4902"/></linearGradient><linearGradient x1="416.9631" y1="194.58488" x2="279.54379" y2="25.44235" gradientUnits="userSpaceOnUse" id="color-17"><stop offset="0" stop-color="#000000" stop-opacity="0.37647"/><stop offset="1" stop-color="#000000" stop-opacity="0"/></linearGradient></defs><g transform="translate(-19.36443,41.71117)"><g data-paper-data="{&quot;isPaintingLayer&quot;:true}" fill-rule="nonzero" stroke-linejoin="miter" stroke-miterlimit="10" stroke-dasharray="" stroke-dashoffset="0" style="mix-blend-mode: normal"><path d="M169.4166,38.30116c0,-44.18958 35.82273,-80.01233 80.01233,-80.01233c44.18958,0 80.01233,35.82273 80.01233,80.01233c0,44.18958 -35.82273,80.01233 -80.01233,80.01233c-44.18958,0 -80.01233,-35.82273 -80.01233,-80.01233z" fill="url(#color-1)" stroke="none" stroke-width="NaN" stroke-linecap="butt"/><path d="M308.09372,69.75477c-2.74455,4.25765 -12.49436,2.8585 -21.77681,-3.1251c-9.28246,-5.9836 -14.58249,-14.28579 -11.83794,-18.54344c2.74455,-4.25765 12.49436,-2.8585 21.77681,3.1251c9.28246,5.9836 14.58249,14.28579 11.83794,18.54344z" fill="url(#color-2)" stroke="none" stroke-width="0" stroke-linecap="butt"/><path d="M368.66899,215.77993l-24.57637,-73.57869l81.02644,-2.42756c0,0 37.81861,26.98295 37.81649,27.84948c-0.01373,5.6158 -12.93772,37.87593 -12.93772,37.87593z" fill="#616161" stroke="none" stroke-width="0" stroke-linecap="butt"/><path d="M246.88635,32.8547l2.94451,3.25491" fill="none" stroke="#656565" stroke-width="12" stroke-linecap="round"/><path d="M244.27875,36.38634c0.00788,-3.22294 2.62697,-5.82925 5.84991,-5.82137c3.22294,0.00788 5.82925,2.62697 5.82137,5.84991c-0.00788,3.22294 -2.62697,5.82925 -5.84991,5.82137c-3.22294,-0.00788 -5.82925,-2.62697 -5.82137,-5.84991z" fill="#5d5d5d" stroke="none" stroke-width="0" stroke-linecap="butt"/><path d="M245.03116,42.50718l0.02801,-11.45734l11.30784,0.02765l-0.02801,11.45735z" fill="url(#color-3)" stroke="none" stroke-width="0" stroke-linecap="butt"/><path d="M251.24735,38.19898l12.14311,14.64439" fill="none" stroke="#6d6d6d" stroke-width="7.5" stroke-linecap="round"/><path d="M247.81385,39.79629c0,0 -1.01295,-3.12404 1.07267,-4.56651c2.94413,-2.03624 5.1565,0.48896 5.1565,0.48896l3.25097,3.86391l-5.98206,4.60069z" fill="url(#color-4)" stroke="none" stroke-width="0" stroke-linecap="butt"/><g fill="#727272" stroke="none" stroke-width="0" stroke-linecap="butt"><path d="M288.54169,59.30941c-0.03023,12.36295 -9.68842,22.36155 -21.57219,22.33249c-11.88376,-0.02906 -21.49295,-10.07476 -21.46272,-22.43771c0.03023,-12.36295 9.68842,-22.36155 21.57219,-22.33249c11.88376,0.02906 21.49295,10.07476 21.46272,22.43771z"/><path d="M268.29499,107.32743l-20.38295,-38.2262l33.38269,-26.64184l33.95886,21.60062z"/></g><path d="M327.33604,90.46594c-0.04499,18.40067 -14.45431,33.28222 -32.18412,33.23887c-17.72981,-0.04335 -32.06619,-14.99518 -32.0212,-33.39585c0.04499,-18.40067 14.45431,-33.28222 32.18412,-33.23887c17.72981,0.04335 32.06619,14.99518 32.0212,33.39585z" fill="#5b5b5b" stroke="none" stroke-width="0" stroke-linecap="butt"/><path d="M259.07845,38.52924l-1.19456,1.27818l0.48157,-11.55329l7.31997,-0.79404l1.74744,9.83476z" fill="#5d5d5d" stroke="none" stroke-width="0" stroke-linecap="butt"/><path d="M258.49193,29.06073l-0.21093,-4.29513l2.22501,0.00544l0.06439,3.8519z" fill="#5d5d5d" stroke="none" stroke-width="0" stroke-linecap="butt"/><path d="M263.20274,90.40013c0.04514,-18.46379 14.43471,-33.39658 32.13999,-33.35329c17.70528,0.04329 32.02165,15.04626 31.9765,33.51006c-0.04514,18.46379 -14.43471,33.39658 -32.13998,33.35329c-17.70528,-0.04329 -32.02166,-15.04626 -31.97651,-33.51005z" fill="url(#color-5)" stroke="none" stroke-width="0" stroke-linecap="butt"/><path d="M263.64139,28.31603l-0.50762,-3.70536l1.92995,-0.06909l0.58125,3.77935z" fill="#5d5d5d" stroke="none" stroke-width="0" stroke-linecap="butt"/><path d="M281.8032,109.13742l-10.71206,-19.11438l5.02926,-17.57786l114.84026,133.14464l-1.28029,32.81781z" fill="#666666" stroke="none" stroke-width="0" stroke-linecap="butt"/><path d="M321.44713,235.8712l-34.14951,-47.08456c0,0 0.43626,-26.79516 0.37194,-27.60028c-0.51522,-6.44902 -16.50777,-71.16582 -16.50777,-71.16582l88.87246,110.37854l34.72444,44.22942z" fill="#616161" stroke="none" stroke-width="0" stroke-linecap="butt"/><path d="M282.05964,74.70218c1.28108,-1.29394 12.31364,-3.72867 25.37987,-4.51108c13.06622,-0.78241 22.77253,-1.41746 21.49146,-0.12351c-1.25154,1.2641 -25.37821,4.34229 -25.67953,4.36034c-13.06622,0.7824 -22.47287,1.56819 -21.19179,0.27425z" fill="url(#color-6)" stroke="none" stroke-width="0" stroke-linecap="butt"/><path d="M287.94082,84.11819c1.32702,-1.76734 12.74819,-5.0998 26.27295,-6.17836c13.52476,-1.07857 23.57176,-1.95327 22.24474,-0.18593c-1.29643,1.72659 -26.27111,5.94797 -26.583,5.97283c-13.52476,1.07857 -23.26171,2.15881 -21.93469,0.39147z" fill="url(#color-7)" stroke="none" stroke-width="0" stroke-linecap="butt"/><path d="M295.63809,93.38795c1.54325,-1.95622 14.82707,-5.64359 30.55797,-6.83569c15.73089,-1.19208 27.41671,-2.15898 25.87346,-0.20277c-1.50768,1.91111 -30.55587,6.58063 -30.91863,6.60812c-15.7309,1.19208 -27.05607,2.38655 -25.51282,0.43033z" fill="url(#color-8)" stroke="none" stroke-width="0" stroke-linecap="butt"/><path d="M337.74533,96.13049c17.2292,-1.18843 30.02803,-2.15261 28.33823,-0.19675c-1.65085,1.91075 -33.4652,6.57352 -33.86251,6.60093c-17.2292,1.18843 -29.63297,2.38025 -27.94316,0.42439c1.68981,-1.95585 16.23824,-5.64013 33.46745,-6.82856z" fill="url(#color-9)" stroke="none" stroke-width="0" stroke-linecap="butt"/><path d="M347.41903,107.50581c17.2292,-1.18843 30.02803,-2.15261 28.33823,-0.19675c-1.65085,1.91075 -33.4652,6.57352 -33.86251,6.60093c-17.2292,1.18843 -29.63297,2.38025 -27.94316,0.42439c1.68981,-1.95585 16.23824,-5.64013 33.46745,-6.82856z" fill="url(#color-10)" stroke="none" stroke-width="0" stroke-linecap="butt"/><g fill="none" stroke="#5f5f5f" stroke-width="3" stroke-linecap="round"><path d="M258.17666,84.64643c0,0 -2.83556,-11.92747 11.59234,-24.0432c14.07295,-11.81766 25.54865,-7.54407 25.54865,-7.54407"/><path d="M251.37055,71.5828c0,0 -2.36981,-10.13697 9.69076,-20.43454c11.76386,-10.04422 20.2343,-7.05779 20.2343,-7.05779"/><path d="M247.17256,62.69024c0,0 -2.11114,-8.62797 8.62701,-17.39124c10.47397,-8.54768 18.01662,-6.00507 18.01662,-6.00507"/></g><path d="M262.36132,110.89342c-2.22423,-1.78037 -8.25673,-17.0578 -10.52488,-20.35605c-7.45274,-10.83743 -3.19819,-18.17714 -0.57488,-25.32305c1.14942,-3.13102 4.61507,-2.71357 7.36692,-2.14474c2.6861,0.55524 8.40576,11.46482 8.40576,11.46482c0,0 -0.7993,1.27774 -1.39049,2.73727c-0.88417,2.18281 -1.6388,5.13982 -1.81503,6.25517c-0.2322,1.46961 -0.59609,3.26226 -0.63496,7.07909c-0.05251,5.15567 1.8635,13.6371 2.60996,13.04923c0.76293,-0.60084 -0.28761,6.95691 -0.28761,6.95691c0,0 1.92939,4.35096 -3.15479,0.28135z" fill="url(#color-11)" stroke="none" stroke-width="NaN" stroke-linecap="butt"/><path d="M239.24158,66.613c-0.23331,-1.97035 0.22178,-4.8458 2.57299,-5.84141c1.02862,-0.43556 5.56843,1.00344 6.8657,0.93111c4.26257,-0.23767 4.09474,3.29016 4.43012,6.1225c0.14695,1.24101 -1.06105,2.51065 -2.06001,3.45928c-1.28095,1.21641 -4.15578,0.23425 -6.55067,0.36778c-4.26257,0.23767 -4.92275,-2.20692 -5.25813,-5.03926z" fill="url(#color-12)" stroke="none" stroke-width="NaN" stroke-linecap="butt"/><path d="M361.27559,131.6801l-0.6831,-9.35574l32.65943,-3.44999l0.86131,8.65021z" fill="#838383" stroke="none" stroke-width="0" stroke-linecap="butt"/><path d="M122.55108,188.1475c17.14401,2.61595 70.01266,54.58857 71.4225,57.16906c-10.94365,17.30186 -24.40752,26.9269 -29.84048,35.36319c-4.46411,0.1756 -22.99511,25.20403 -52.94446,25.3392c-29.94935,0.13516 -52.76324,-2.81364 -78.1588,-17.54443c-25.39556,-14.73079 -7.61245,-33.78206 -7.61245,-33.78206c0,0 37.4577,-20.37257 66.41572,-41.28753c28.10238,-20.29697 30.71798,-25.25743 30.71798,-25.25743z" fill="#383735" stroke="none" stroke-width="0" stroke-linecap="butt"/><path d="M264.12138,98.82624l-20.59572,-36.10755c0,0 1.26494,-7.35641 2.68646,-10.70686c1.28987,-3.04016 5.48616,-8.55557 5.48616,-8.55557c0,0 1.95661,-2.61676 6.0983,-4.22315c4.769,-1.84971 11.93982,-2.60895 14.18058,-0.60406c1.85669,1.66125 17.08513,7.84406 19.6649,10.79366c2.22945,2.54908 -16.58301,14.93528 -16.58301,14.93528c0,0 -7.07477,5.95652 -10.01649,14.89698c-0.02027,0.06161 -0.03693,0.12443 -0.05508,0.18687c-1.36964,4.71489 -1.68026,5.89315 -1.78731,9.44338c-0.18236,5.4699 0.92121,9.94102 0.92121,9.94102z" fill="url(#color-13)" stroke="none" stroke-width="0" stroke-linecap="butt"/><path d="M174.06013,257.95463c-14.03657,1.43815 -62.69541,-34.64331 -64.29401,-36.82571c-13.03202,-17.79105 70.73271,-105.75079 111.83741,-119.95966c3.49403,-1.2078 8.53656,5.58816 14.41143,11.60347c4.21924,4.32009 8.69442,6.27721 14.14167,13.71369c7.22319,9.86096 -12.53625,34.17237 -12.53625,34.17237c0,0 -18.54404,45.95273 -36.23329,74.28664c-10.84288,17.36768 -21.12084,22.37333 -27.32697,23.00919z" fill="#383735" stroke="none" stroke-width="0" stroke-linecap="butt"/><path d="M265.84259,120.41706c-0.02357,9.63882 -4.52384,4.48818 -12.86185,8.66922c-3.64772,1.82912 -8.07908,-2.37951 -12.48334,-2.39028c-14.47159,-0.03538 -20.95728,-2.18567 -20.9234,-16.04129c0.01484,-6.07092 4.61053,-11.90268 8.36925,-16.233c4.81979,-5.55272 14.11006,0.02215 22.24083,0.04203c14.47159,0.03538 15.69239,12.0977 15.65851,25.95331z" fill="url(#color-14)" stroke="none" stroke-width="NaN" stroke-linecap="butt"/><path d="M265.72661,117.69243c-1.52704,2.44967 -12.56467,11.2187 -13.11789,10.62574c-0.11332,-0.12146 -5.5314,-2.81791 -9.92389,-6.53903c-4.1809,-3.54188 -8.08213,-7.25356 -10.59095,-9.91857c-6.62473,-7.03715 -7.24371,-13.54577 -7.19421,-13.78423c1.09605,-5.27989 4.93639,-10.41292 7.80859,-13.91903c2.31761,-2.82913 5.65077,-18.6937 7.05822,-20.37546c1.05381,-2.93579 4.49887,-12.61594 9.1432,-15.98203c0.94946,-0.68814 4.70236,-2.91246 5.89007,-2.20954c0.96478,0.57098 3.82533,2.21825 4.2213,3.51015c0.62892,2.05193 0.71461,3.32051 -0.39037,4.5765c-1.47695,3.01225 -4.32302,8.79033 -5.74273,11.81085c-0.02842,0.06046 -0.29687,0.71723 -0.32388,0.77509c-0.24756,1.14157 -0.35175,3.27493 -0.47808,4.28337c-0.53052,4.23483 -0.28009,5.88676 -0.28009,5.88676c0,0 11.03491,19.61031 12.31023,21.93482c0.08913,0.16246 1.22139,3.81515 2.8886,7.33043c1.15548,2.43632 3.04724,5.15704 3.04724,5.15704c0,0 -1.4865,2.28308 -4.32534,6.83716z" fill="url(#color-15)" stroke="none" stroke-width="0" stroke-linecap="butt"/><path d="M221.49572,97.1941c2.08351,-1.38166 3.46517,0.70185 3.46517,0.70185l0.38551,0.5934c5.05115,6.53235 11.75025,13.27146 18.27013,18.36135c3.66772,2.86329 7.29173,5.23717 10.43042,8.72521c0,0 1.66786,1.86232 -0.19445,3.53019c-1.86232,1.66786 -3.53019,-0.19445 -3.53019,-0.19445c-2.91121,-3.26814 -6.35228,-5.43501 -9.77045,-8.11026c-6.84093,-5.35408 -13.84967,-12.39533 -19.15973,-19.25198l-0.59828,-0.89013c0,0 -1.38166,-2.08351 0.70185,-3.46517z" fill="#2e2d2b" stroke="none" stroke-width="0.5" stroke-linecap="butt"/><path d="M286.5287,188.42272l1.14855,-27.56304c0,0 -3.32246,-15.47943 -5.55539,-25.1069c-3.02316,-13.03466 -10.94221,-46.02414 -10.94221,-46.02414l5.0321,-17.37537l114.80617,134.19316l-1.86139,37.35793l-68.72881,-7.76169z" fill="url(#color-16)" stroke="none" stroke-width="0" stroke-linecap="butt"/><path d="M274.6021,65.68059l38.22153,-2.83188l112.95266,76.97596l-73.82849,13.07586z" fill="#727272" stroke="none" stroke-width="0" stroke-linecap="butt"/><path d="M274.87869,70.84411l-0.30515,-5.16061l79.01596,86.47249l-0.13626,10.55401z" fill="#696969" stroke="none" stroke-width="0" stroke-linecap="butt"/><path d="M449.74725,206.00641c0,0 -15.57091,0.31521 -23.12155,1.20257c-10.00439,1.17572 -30.42403,5.42381 -30.42403,5.42381l-121.33251,-141.73096l-0.2808,-5.18181l39.21766,-2.93515l111.83405,76.97916l-0.27261,0.20513l27.31531,19.59194l10.92396,8.34291z" fill="url(#color-17)" stroke="none" stroke-width="0" stroke-linecap="butt"/><path d="M277.66478,71.83554l0.33692,-4.95428l3.60232,3.9268l44.83703,-4.86369l0.46266,5.04302l-45.45881,5.67635z" fill="#4d4d4d" stroke="none" stroke-width="NaN" stroke-linecap="butt"/><path d="M281.5925,71.2255l-3.74112,-4.34839l43.28337,-4.54404l5.28702,3.61335z" fill="#5f5f5f" stroke="none" stroke-width="0" stroke-linecap="butt"/><path d="M283.17534,79.56624l0.36907,-5.42684l3.94593,4.30135l49.11373,-5.3276l0.5068,5.52404l-49.79484,6.21778z" fill="#4d4d4d" stroke="none" stroke-width="NaN" stroke-linecap="butt"/><path d="M287.47776,78.898l-4.09797,-4.76315l47.63683,-5.26269l5.55455,4.2591z" fill="#5f5f5f" stroke="none" stroke-width="0" stroke-linecap="butt"/><path d="M290.09529,88.36344l0.41326,-6.07661l4.41839,4.81636l54.99421,-5.96549l0.56748,6.18544l-55.75687,6.96225z" fill="#4d4d4d" stroke="none" stroke-width="NaN" stroke-linecap="butt"/><path d="M294.91279,87.61522l-4.58862,-5.33346l52.835,-5.70068l6.78314,4.59701z" fill="#5f5f5f" stroke="none" stroke-width="0" stroke-linecap="butt"/><path d="M299.1322,97.52432l0.43976,-6.46636l4.70177,5.12528l58.52153,-6.34811l0.60387,6.58217l-59.33309,7.4088z" fill="#4d4d4d" stroke="none" stroke-width="NaN" stroke-linecap="butt"/><path d="M304.25871,96.7281l-4.88294,-5.67555l56.37858,-6.21231l7.07788,5.04859z" fill="#5f5f5f" stroke="none" stroke-width="0" stroke-linecap="butt"/><path d="M307.09706,107.54001l0.46063,-6.77331l4.92496,5.36858l61.29945,-6.64945l0.63253,6.89462l-62.14954,7.76049z" fill="#4d4d4d" stroke="none" stroke-width="NaN" stroke-linecap="butt"/><path d="M312.65446,106.70644l-5.11472,-5.94495l59.40447,-6.72458l6.85775,5.47135z" fill="#5f5f5f" stroke="none" stroke-width="0" stroke-linecap="butt"/><path d="M318.43035,120.40733l0.50483,-7.42308l5.39741,5.88358l67.17993,-7.28734l0.69322,7.55602l-68.11157,8.50495z" fill="#4d4d4d" stroke="none" stroke-width="NaN" stroke-linecap="butt"/><path d="M324.31532,119.49329l-5.60538,-6.51525l65.10316,-7.36967l7.67403,5.98454z" fill="#5f5f5f" stroke="none" stroke-width="0" stroke-linecap="butt"/><path d="M340.65035,133.43161l0.10666,-7.61219l11.22618,10.9052l58.15863,-7.7348l1.48112,7.88061l-59.65563,7.5913z" fill="#545454" stroke="none" stroke-width="NaN" stroke-linecap="butt"/><path d="M351.98228,137.09972l-11.60035,-11.28121l51.73443,-6.36068l16.52419,9.90342z" fill="#5f5f5f" stroke="none" stroke-width="0" stroke-linecap="butt"/><path d="M364.1193,123.56842l-3.69077,-6.36272l18.71407,-2.42513l7.57487,5.84276z" fill="#5a5a5a" stroke="none" stroke-width="0" stroke-linecap="butt"/><path d="M359.70951,122.54177c0,0 -0.64596,-2.65463 -0.1807,-4.89266c0.70593,-3.39575 2.06499,-7.18374 1.77759,-8.58969c-0.40156,-1.96441 -0.0198,-5.18928 -1.4944,-7.56979c-2.04905,-3.30787 -4.277,-4.01796 -4.277,-4.01796l6.70814,-0.59482c0,0 3.69914,2.06351 4.15577,3.86082c0.32926,1.29594 1.18554,5.16879 1.48452,7.99842c0.33869,3.20548 -1.9665,5.4082 -1.88803,7.85924c0.07609,2.37673 3.2476,4.7473 3.2476,4.7473z" fill="#5f5f5f" stroke="none" stroke-width="0" stroke-linecap="butt"/><path d="M361.05522,131.53241l-7.37844,-5.60166c0,0 -3.62363,-29.45427 0.96108,-28.7057c5.48903,0.89622 6.09828,3.89962 6.99679,13.36005c0.44769,4.71372 -1.4035,3.08117 -2.08541,10.6413c-0.1406,1.55879 1.71682,0.8209 1.71682,0.8209l32.1241,-3.58263l0.66308,9.55888z" fill="#515151" stroke="none" stroke-width="0" stroke-linecap="butt"/><path d="M385.68727,108.85832c-0.01713,7.00495 -0.52219,11.16339 -4.61605,11.15338c-1.9431,-0.00475 -4.56289,-3.35966 -4.56289,-3.35966c0,0 -1.06615,-4.29049 -1.05716,-7.97064c0.01713,-7.00495 -1.23938,-12.53479 2.85449,-12.52478c4.09388,0.01001 7.39873,5.69676 7.38161,12.70171z" fill="#545454" stroke="none" stroke-width="0" stroke-linecap="butt"/><path d="M383.2887,119.75782c0,0 -0.6798,-2.49715 -0.19129,-4.60213c0.74122,-3.19389 2.16894,-6.75654 1.86642,-8.07906c-0.42269,-1.84785 -0.02222,-4.8811 -1.57308,-7.12063c-2.15502,-3.11198 -4.49742,-3.78049 -4.49742,-3.78049l7.05199,-0.55768c0,0 3.88938,1.94197 4.36992,3.63266c0.34649,1.21906 1.24773,4.86214 1.56281,7.52379c0.35693,3.01519 -2.06588,5.08647 -1.98273,7.39196c0.08063,2.2356 3.41542,4.46623 3.41542,4.46623z" fill="#5f5f5f" stroke="none" stroke-width="0" stroke-linecap="butt"/><path d="M370.52424,172.62107c0,0 -3.86927,-3.93899 -5.79877,-5.56754c-2.69995,-2.27882 -4.96518,-9.36979 -4.96518,-9.36979c0,0 12.96165,-1.10199 23.88814,-2.45997c2.91178,-0.36188 -5.67071,-6.83858 -5.67071,-6.83858l32.44201,-5.78177c0,0 7.17335,8.27328 9.51486,7.99493c11.72787,-1.39419 21.0963,-2.23998 21.0963,-2.23998c0,0 6.55271,4.44994 6.55059,5.31647c-0.01373,5.6158 -4.00183,8.64515 -4.00183,8.64515z" fill="#535353" stroke="none" stroke-width="0" stroke-linecap="butt"/><path d="M370.39421,175.22717l-10.79915,-10.39072l0.16845,-7.17729l11.12945,8.44307z" fill="#444444" stroke="none" stroke-width="0" stroke-linecap="butt"/><path d="M447.24137,161.97385l-76.83576,13.2575l0.44747,-9.15452l76.70899,-12.26209z" fill="#4c4c4c" stroke="none" stroke-width="0" stroke-linecap="butt"/></g></g></svg>