<svg version="1.1" xmlns="http://www.w3.org/2000/svg" xmlns:xlink="http://www.w3.org/1999/xlink" width="23.8055" height="23.77255" viewBox="0,0,23.8055,23.77255"><defs><linearGradient x1="238.90606" y1="170.70518" x2="238.90606" y2="191.49738" gradientUnits="userSpaceOnUse" id="color-1"><stop offset="0" stop-color="#ecf6ff"/><stop offset="1" stop-color="#85a0a2"/></linearGradient><linearGradient x1="246.6008" y1="168.50261" x2="246.6008" y2="178.30818" gradientUnits="userSpaceOnUse" id="color-2"><stop offset="0" stop-color="#ecf6ff"/><stop offset="1" stop-color="#bed0d5"/></linearGradient></defs><g transform="translate(-228.48614,-168.50261)"><g data-paper-data="{&quot;isPaintingLayer&quot;:true}" fill-rule="nonzero" stroke="none" stroke-width="1" stroke-linecap="butt" stroke-linejoin="miter" stroke-miterlimit="10" stroke-dasharray="" stroke-dashoffset="0" style="mix-blend-mode: normal"><g fill="#283b54"><path d="M234.17991,187.36168l-4.91599,-4.91599l0.62369,-0.60594c0.57045,-0.55777 0.6389,-0.61608 0.84173,-0.72003c0.20283,-0.10141 0.24086,-0.11155 0.44368,-0.1217c0.21043,-0.01014 0.24086,-0.00507 0.59327,0.10902l0.37269,0.1217l0.60594,-0.60594c0.33213,-0.33213 0.60594,-0.61608 0.60594,-0.62876c0,-0.01521 -0.02789,-0.05324 -0.06085,-0.08874c-0.18254,-0.19268 -0.29663,-0.61101 -0.24846,-0.91018c0.06845,-0.40565 -0.19776,-0.11409 3.56213,-3.87904c1.87107,-1.8736 3.44804,-3.43536 3.50128,-3.47086c0.18001,-0.11662 0.36002,-0.16226 0.63637,-0.16226c0.27635,0 0.45636,0.04564 0.63637,0.16226c0.05324,0.03549 2.00037,1.96741 4.32273,4.29484c3.82834,3.83087 4.23145,4.24413 4.29484,4.38104c0.14958,0.32199 0.14451,0.68961 -0.01521,1.0192c-0.08113,0.16226 -0.2941,0.38283 -3.48353,3.56974c-2.65195,2.65195 -3.42776,3.41255 -3.53424,3.47086c-0.42593,0.22818 -0.97356,0.18001 -1.30823,-0.11662c-0.09127,-0.0786 -0.09127,-0.0786 -0.69975,0.52735c-0.33213,0.33213 -0.60594,0.62369 -0.60594,0.64397c0,0.02028 0.04564,0.18001 0.10141,0.35495c0.13437,0.41833 0.15212,0.5958 0.07606,0.83919c-0.03042,0.10395 -0.09127,0.24086 -0.13691,0.30677c-0.0431,0.06338 -0.33466,0.38283 -0.64904,0.70482c-0.31438,0.32452 -0.57298,0.59834 -0.57805,0.61101c-0.00507,0.01268 -0.02282,0.02282 -0.03803,0.02282c-0.01775,0 -2.24123,-2.2108 -4.94388,-4.91346zM233.75398,184.52466c0.21297,-0.21804 0.3803,-0.41326 0.37776,-0.431c-0.01014,-0.04817 -1.59218,-1.65557 -1.62768,-1.65557c-0.03296,0 -0.77834,0.76567 -0.79863,0.81637c-0.00761,0.02535 1.615,1.66824 1.6505,1.66824c0.00761,0 0.18761,-0.18001 0.39805,-0.39805zM237.64824,180.68364c0.52988,-0.53495 1.9167,-1.92938 3.08295,-3.1007c1.42232,-1.42992 2.13981,-2.16517 2.17531,-2.23616c0.07099,-0.14198 0.07352,-0.38283 0.00254,-0.52481c-0.07099,-0.15212 -0.99385,-1.0623 -1.1409,-1.12822c-0.13691,-0.06338 -0.27128,-0.06592 -0.40058,-0.01521c-0.06592,0.02789 -1.00145,0.94821 -3.21733,3.16408c-1.71895,1.71895 -3.12605,3.13366 -3.12605,3.14887c0,0.02535 1.62261,1.66064 1.64796,1.66064c0.00761,0 0.44875,-0.43608 0.9761,-0.96849z"/><path d="M246.50919,175.04762c-4.09201,-4.09201 -4.09201,-4.09201 -4.03116,-4.16047c0.12423,-0.13184 0.54509,-0.46903 0.80877,-0.64651c0.25353,-0.16987 0.933,-0.52735 1.10287,-0.57805c0.0431,-0.01521 0.14705,-0.04817 0.23071,-0.0786c1.18907,-0.41833 2.68744,-0.40312 3.88158,0.03803c1.40964,0.52228 2.54039,1.54401 3.20465,2.89027c0.1724,0.35241 0.36255,0.87469 0.44368,1.21696c0.19015,0.81891 0.18761,1.81529 -0.00254,2.64181c-0.13437,0.58059 -0.47918,1.37415 -0.81384,1.8736c-0.1724,0.2586 -0.52228,0.69721 -0.65918,0.82652c-0.07352,0.06845 -0.07352,0.06845 -4.16554,-4.02356zM245.90325,172.41088c0.80116,-0.75046 1.89642,-1.34879 2.97393,-1.62261c0.32706,-0.08367 0.32706,-0.08367 0.24339,-0.12677c-0.04817,-0.02535 -0.11409,-0.05324 -0.14958,-0.06338c-0.03549,-0.01268 -0.1648,-0.05578 -0.28649,-0.09888c-0.74539,-0.26367 -1.6074,-0.42086 -2.30207,-0.42086c-0.62622,0 -1.12315,0.10141 -1.60486,0.32706c-0.27381,0.12677 -0.75299,0.46903 -0.75299,0.53495c0,0.02789 1.62514,1.66064 1.65557,1.66064c0.01014,0 0.11155,-0.0862 0.22311,-0.19015z"/></g><g><path d="M233.40213,186.5839l-4.91599,-4.91599l0.62369,-0.60594c0.57045,-0.55777 0.6389,-0.61608 0.84173,-0.72003c0.20283,-0.10141 0.24086,-0.11155 0.44368,-0.1217c0.21043,-0.01014 0.24086,-0.00507 0.59327,0.10902l0.37269,0.1217l0.60594,-0.60594c0.33213,-0.33213 0.60594,-0.61608 0.60594,-0.62876c0,-0.01521 -0.02789,-0.05324 -0.06085,-0.08874c-0.18254,-0.19268 -0.29663,-0.61101 -0.24846,-0.91018c0.06845,-0.40565 -0.19776,-0.11409 3.56213,-3.87904c1.87107,-1.8736 3.44804,-3.43536 3.50128,-3.47086c0.18001,-0.11662 0.36002,-0.16226 0.63637,-0.16226c0.27635,0 0.45636,0.04564 0.63637,0.16226c0.05324,0.03549 2.00037,1.96741 4.32273,4.29484c3.82834,3.83087 4.23145,4.24413 4.29484,4.38104c0.14958,0.32199 0.14451,0.68961 -0.01521,1.0192c-0.08113,0.16226 -0.2941,0.38283 -3.48353,3.56974c-2.65195,2.65195 -3.42776,3.41255 -3.53424,3.47086c-0.42593,0.22818 -0.97356,0.18001 -1.30823,-0.11662c-0.09127,-0.0786 -0.09127,-0.0786 -0.69975,0.52735c-0.33213,0.33213 -0.60594,0.62369 -0.60594,0.64397c0,0.02028 0.04564,0.18001 0.10141,0.35495c0.13437,0.41833 0.15212,0.5958 0.07606,0.83919c-0.03042,0.10395 -0.09127,0.24086 -0.13691,0.30677c-0.0431,0.06338 -0.33466,0.38283 -0.64904,0.70482c-0.31438,0.32452 -0.57298,0.59834 -0.57805,0.61101c-0.00507,0.01268 -0.02282,0.02282 -0.03803,0.02282c-0.01775,0 -2.24123,-2.2108 -4.94388,-4.91346zM232.9762,183.74688c0.21297,-0.21804 0.3803,-0.41326 0.37776,-0.431c-0.01014,-0.04817 -1.59218,-1.65557 -1.62768,-1.65557c-0.03296,0 -0.77834,0.76567 -0.79863,0.81637c-0.00761,0.02535 1.615,1.66824 1.6505,1.66824c0.00761,0 0.18761,-0.18001 0.39805,-0.39805zM236.87046,179.90586c0.52988,-0.53495 1.9167,-1.92938 3.08295,-3.1007c1.42232,-1.42992 2.13981,-2.16517 2.17531,-2.23616c0.07099,-0.14198 0.07352,-0.38283 0.00254,-0.52481c-0.07099,-0.15212 -0.99385,-1.0623 -1.1409,-1.12822c-0.13691,-0.06338 -0.27128,-0.06592 -0.40058,-0.01521c-0.06592,0.02789 -1.00145,0.94821 -3.21733,3.16408c-1.71895,1.71895 -3.12605,3.13366 -3.12605,3.14887c0,0.02535 1.62261,1.66064 1.64796,1.66064c0.00761,0 0.44875,-0.43608 0.9761,-0.96849z" fill="url(#color-1)"/><path d="M245.73141,174.26984c-4.09201,-4.09201 -4.09201,-4.09201 -4.03116,-4.16047c0.12423,-0.13184 0.54509,-0.46903 0.80877,-0.64651c0.25353,-0.16987 0.933,-0.52735 1.10287,-0.57805c0.0431,-0.01521 0.14705,-0.04817 0.23071,-0.0786c1.18907,-0.41833 2.68744,-0.40312 3.88158,0.03803c1.40964,0.52228 2.54039,1.54401 3.20465,2.89027c0.1724,0.35241 0.36255,0.87469 0.44368,1.21696c0.19015,0.81891 0.18761,1.81529 -0.00254,2.64181c-0.13437,0.58059 -0.47918,1.37415 -0.81384,1.8736c-0.1724,0.2586 -0.52228,0.69721 -0.65918,0.82652c-0.07352,0.06845 -0.07352,0.06845 -4.16554,-4.02356zM245.12547,171.6331c0.80116,-0.75046 1.89642,-1.34879 2.97393,-1.62261c0.32706,-0.08367 0.32706,-0.08367 0.24339,-0.12677c-0.04817,-0.02535 -0.11409,-0.05324 -0.14958,-0.06338c-0.03549,-0.01268 -0.1648,-0.05578 -0.28649,-0.09888c-0.74539,-0.26367 -1.6074,-0.42086 -2.30207,-0.42086c-0.62622,0 -1.12315,0.10141 -1.60486,0.32706c-0.27381,0.12677 -0.75299,0.46903 -0.75299,0.53495c0,0.02789 1.62514,1.66064 1.65557,1.66064c0.01014,0 0.11155,-0.0862 0.22311,-0.19015z" fill="url(#color-2)"/></g></g></g></svg>