<svg version="1.1" xmlns="http://www.w3.org/2000/svg" xmlns:xlink="http://www.w3.org/1999/xlink" width="62.60486" height="64.41819" viewBox="0,0,62.60486,64.41819"><defs><radialGradient cx="239.99998" cy="180" r="31.16666" gradientUnits="userSpaceOnUse" id="color-1"><stop offset="0" stop-color="#fff0b6"/><stop offset="1" stop-color="#fff0b6" stop-opacity="0"/></radialGradient><radialGradient cx="241.82771" cy="178.80626" r="26.16666" gradientUnits="userSpaceOnUse" id="color-2"><stop offset="0" stop-color="#d1fff5"/><stop offset="1" stop-color="#d1fff5" stop-opacity="0"/></radialGradient><radialGradient cx="239.99997" cy="180" r="16.66667" gradientUnits="userSpaceOnUse" id="color-3"><stop offset="0" stop-color="#ffffff"/><stop offset="1" stop-color="#ffffff" stop-opacity="0"/></radialGradient></defs><g transform="translate(-208.69756,-147.79091)"><g data-paper-data="{&quot;isPaintingLayer&quot;:true}" fill-rule="nonzero" stroke="none" stroke-width="0" stroke-linecap="butt" stroke-linejoin="miter" stroke-miterlimit="10" stroke-dasharray="" stroke-dashoffset="0" style="mix-blend-mode: normal"><path d="M210.56777,169.74792c5.87224,-16.85832 23.80989,-25.93469 40.06486,-20.27262c16.25496,5.66207 24.67183,23.91846 18.79959,40.77679c-5.87224,16.85832 -23.80988,25.93468 -40.06485,20.27261c-16.25496,-5.66207 -24.67184,-23.91846 -18.7996,-40.77679z" fill="url(#color-1)"/><path d="M217.11723,170.19889c4.93017,-14.15378 19.99012,-21.77404 33.63734,-17.02033c13.64722,4.75372 20.71378,20.08127 15.78361,34.23506c-4.93017,14.15378 -19.99011,21.77404 -33.63733,17.02032c-13.64722,-4.75372 -20.71379,-20.08127 -15.78362,-34.23505z" fill="url(#color-2)"/><path d="M224.26082,174.5176c3.14024,-9.01515 12.73256,-13.86882 21.42506,-10.84097c8.6925,3.02785 13.1935,12.79062 10.05326,21.80578c-3.14024,9.01515 -12.73256,13.86882 -21.42506,10.84097c-8.6925,-3.02785 -13.1935,-12.79062 -10.05326,-21.80578z" fill="url(#color-3)"/></g></g></svg>