<svg version="1.1" xmlns="http://www.w3.org/2000/svg" xmlns:xlink="http://www.w3.org/1999/xlink" width="64.25" height="50.98787" viewBox="0,0,64.25,50.98787"><defs><radialGradient cx="215.15066" cy="155.23891" r="3.27708" gradientUnits="userSpaceOnUse" id="color-1"><stop offset="0" stop-color="#7f7f7f"/><stop offset="1" stop-color="#7f7f7f" stop-opacity="0"/></radialGradient><radialGradient cx="229.25" cy="128.2725" r="3.26196" gradientUnits="userSpaceOnUse" id="color-2"><stop offset="0" stop-color="#e1aa0a"/><stop offset="1" stop-color="#545b5e"/></radialGradient><radialGradient cx="226.22767" cy="167.41592" r="13.58417" gradientUnits="userSpaceOnUse" id="color-3"><stop offset="0" stop-color="#7f7f7f"/><stop offset="1" stop-color="#7f7f7f" stop-opacity="0"/></radialGradient><radialGradient cx="243.8824" cy="139.3799" r="30.6265" gradientUnits="userSpaceOnUse" id="color-4"><stop offset="0" stop-color="#ff9e31"/><stop offset="1" stop-color="#ff6600"/></radialGradient><radialGradient cx="245.25546" cy="152.11098" r="50.00388" gradientUnits="userSpaceOnUse" id="color-5"><stop offset="0" stop-color="#ff7a11"/><stop offset="1" stop-color="#e1aa0a"/></radialGradient><radialGradient cx="238.1156" cy="168.58978" r="8.30472" gradientUnits="userSpaceOnUse" id="color-6"><stop offset="0" stop-color="#7f7f7f"/><stop offset="1" stop-color="#7f7f7f" stop-opacity="0"/></radialGradient><radialGradient cx="247.34083" cy="167.01914" r="13.38268" gradientUnits="userSpaceOnUse" id="color-7"><stop offset="0" stop-color="#7f7f7f"/><stop offset="1" stop-color="#7f7f7f" stop-opacity="0"/></radialGradient><radialGradient cx="227.4856" cy="159.4885" r="13.8337" gradientUnits="userSpaceOnUse" id="color-8"><stop offset="0" stop-color="#ff9e31"/><stop offset="1" stop-color="#ff6600"/></radialGradient><radialGradient cx="212.5377" cy="151.4064" r="3.4549" gradientUnits="userSpaceOnUse" id="color-9"><stop offset="0" stop-color="#dc7334"/><stop offset="1" stop-color="#bf563b"/></radialGradient><radialGradient cx="240.2422" cy="158.9129" r="12.6685" gradientUnits="userSpaceOnUse" id="color-10"><stop offset="0" stop-color="#ff9e31"/><stop offset="1" stop-color="#ff6600"/></radialGradient><radialGradient cx="252.6258" cy="161.8441" r="12.7689" gradientUnits="userSpaceOnUse" id="color-11"><stop offset="0" stop-color="#ff9e31"/><stop offset="1" stop-color="#ff6600"/></radialGradient><radialGradient cx="260.71265" cy="154.01212" r="7.84855" gradientUnits="userSpaceOnUse" id="color-12"><stop offset="0" stop-color="#ff6a04"/><stop offset="1" stop-color="#ff9126"/></radialGradient><radialGradient cx="237.0406" cy="151.2444" r="24.7347" gradientUnits="userSpaceOnUse" id="color-13"><stop offset="0" stop-color="#e5e5e5"/><stop offset="1" stop-color="#e5e5e5" stop-opacity="0"/></radialGradient></defs><g transform="translate(-205.5,-122.5)"><g data-paper-data="{&quot;isPaintingLayer&quot;:true}" fill-rule="nonzero" stroke-linejoin="miter" stroke-miterlimit="10" stroke-dasharray="" stroke-dashoffset="0" style="mix-blend-mode: normal"><path d="M260.5,138l-4.75,4.85" fill="none" stroke="#545b5e" stroke-width="2" stroke-linecap="round"/><path d="M212.25,133.5l4.75,3.85" fill="none" stroke="#545b5e" stroke-width="2" stroke-linecap="round"/><path d="M248.3,151.55c0.887,-0.32 -2.178,0.468 -3,-0.5c-0.604,-0.79 0.325,-2.817 1.25,-3c2.484,1.809 2.797,0.923 3.75,1.1c1.851,0.263 4.202,0.112 5.5,1.5c0.917,1.248 0.624,3.465 -0.25,4.75c-0.963,1.4 -3.314,0.983 -4.75,1.9c-1.627,1.044 -2.549,4.14 -4.75,4.35c-1.548,-0.041 -2.207,-2.544 -3,-4c-0.449,-0.829 -0.124,-1.853 0,-2.85c0.043,-1.095 -0.312,-2.429 0.5,-3.4c0.534,-0.637 2.047,-0.798 2.5,-0.1c0.668,1.041 -0.698,2.653 -0.25,3.85c0.199,0.523 1.376,0.441 1.75,0c0.756,-0.9 0.313,-2.626 0.75,-3.6z" fill="#f84d08" stroke="none" stroke-width="1" stroke-linecap="round"/><path d="M215.4519,152.8529c0.5362,0.3027 1.1379,0.3514 1.4962,0.6889c0.3256,0.4741 0.3523,1.0919 0.3747,1.5302c0.0637,1.2019 0.5059,3.7242 -0.1272,3.7171c-0.6272,-0.3745 -1.6359,-3.3033 -2.6506,-4.5587c-0.4185,-0.5085 -1.1717,-0.882 -1.5104,-1.2837c-0.3387,-0.4017 -0.4857,-0.7453 -0.3606,-0.9354c0.1252,-0.1901 0.4989,-0.1908 1.0017,-0.0385c0.5029,0.1524 1.1842,0.5496 1.7762,0.8801z" fill="#7f7f7f" stroke="url(#color-1)" stroke-width="1.64915" stroke-linecap="round"/><path d="M228.5,127.25l3,6.25" fill="none" stroke="url(#color-2)" stroke-width="2" stroke-linecap="round"/><path d="M228.875,158c1.772,-0.278 3.786,0.648 5.037,1.92c1.105,1.117 1.045,2.936 0.838,4.43c-0.193,2.084 -0.701,4.139 -2,5.5c-0.778,1.08 -2.395,1.511 -3.5,1c-1.601,-0.749 -2.534,-2.601 -3.5,-4c-0.827,-1.194 -0.67,-3.033 -1.75,-4c-0.922,-0.826 -4.239,0.132 -3.5,-0.5c1.699,-1.793 5.288,-3.86 8.375,-4.35z" fill="none" stroke="url(#color-3)" stroke-width="2" stroke-linecap="round"/><path d="M226.75,136.35c0.829,-0.031 1.844,-0.57 2.75,-1c0.386,-0.148 0.854,-0.308 1.25,-0.5c0.848,-0.617 1.228,-1.377 1.75,-2c0.881,-0.787 1.978,-2.056 3.25,-2.1c0.938,-0.007 1.358,1.595 2.25,1.5c1.248,-0.129 1.732,-1.651 2.75,-2.25c1.09,-0.629 2.603,-1.583 4,-1.4c1.297,0.18 2.249,1.068 3,2c0.757,0.952 0.588,2.389 1.5,3c0.933,0.865 2.609,0.181 3.5,1c1.363,1.25 2.449,2.948 2.75,4.75c0.303,1.821 -1.485,3.714 -1,5.25c0.25,0.727 2.001,-0.992 3,-0.75c1.651,0.406 4.212,1.274 4.25,3c0.052,2.546 -2.476,4.519 -3.75,6.75c-0.595,1.039 -0.185,3.398 -1.5,3.15c-5.261,-0.991 -11.209,-2.51 -15.25,-6.4c-1.592,-1.538 3.201,-5.305 1.5,-6.85c-2.09,-1.888 -6.035,-0.106 -8.75,0.1c-1.842,0.146 -3.707,0.434 -5.5,0.75c-0.493,0.087 -1.18,-0.314 -1.5,0.15c-0.542,0.772 0.18,2.177 -0.7,2.75c-1.334,0.852 -3.195,0.083 -4.75,0.35c-1.031,0.169 -1.684,1.041 -2.55,1.5c-0.441,0.235 -0.994,0.354 -1.25,0.9c-0.684,0.76 -1.089,2.812 -1.45,2.85c-0.339,0.032 -0.255,-1.699 -0.05,-2.5c0.228,-0.803 0.852,-1.299 0.75,-2c-0.073,-0.501 -1.225,-0.128 -1.25,-0.75c-0.102,-2.487 -0.216,-5.17 0.5,-7.6c0.283,-0.955 1.186,-1.609 2,-2.15c1.224,-0.813 2.387,-1.557 3.75,-1.75c1.663,-0.229 3.172,0.285 4.75,0.25z" fill="url(#color-4)" stroke="url(#color-5)" stroke-width="2" stroke-linecap="round"/><path d="M239.375,146.95c0.586,0 1.118,0.42 1.502,1.099c0.385,0.679 0.623,1.616 0.623,2.651c0,1.035 -0.238,1.972 -0.623,2.651c-0.384,0.679 -0.916,1.099 -1.502,1.099c-0.586,0 -1.118,-0.42 -1.502,-1.099c-0.385,-0.679 -0.623,-1.616 -0.623,-2.651c0,-1.035 0.238,-1.972 0.623,-2.651c0.384,-0.679 0.916,-1.099 1.502,-1.099z" fill="#e1aa0a" stroke="none" stroke-width="1" stroke-linecap="butt"/><path d="M231.25,149.2c0.661,0.722 0.365,1.856 0.75,2.85c0.572,1.501 0.554,3.532 1.75,4.5c0.478,0.392 1.007,-1.943 1.25,-1.5c0.668,1.29 0.815,3.171 0.75,4.75c-0.061,1.483 0.386,5.018 -0.75,4.4c-2.931,-1.607 -4.628,-6.026 -7.5,-8.4c-1.537,-1.408 -3.468,-2.69 -5.5,-2.75c-1.789,-0.053 -4.591,2.946 -5,2c-0.56,-1.295 0.763,-5.631 2.75,-6.75c2.615,-1.46 5.971,-0.422 9,-0.25c0.865,0.133 1.806,0.41 2.5,1.15z" fill="#f84d08" stroke="none" stroke-width="1" stroke-linecap="round"/><path d="M237.975,158.5c1.785,0.183 3.953,0.492 5.037,1.92c0.878,1.157 -0.003,2.895 -0.062,4.33c-0.33,1.882 -0.018,4.051 -1.1,5.6c-0.915,1.311 -2.953,2.638 -4.4,1.95c-1.746,-0.83 -1.982,-3.355 -2.5,-5.2c-0.416,-1.364 -0.25,-2.847 -0.25,-4.25c0,-1.087 -0.471,-2.401 0.25,-3.25c0.592,-0.895 1.831,-1.22 3.025,-1.1z" fill="none" stroke="url(#color-6)" stroke-width="2" stroke-linecap="round"/><path d="M244.725,158.15c2.834,-0.144 1.673,-1.478 2.675,-1.4c2.855,0.221 6.541,0.545 8.3,2.25c1.058,1.064 -3.595,2.404 -4.75,4.1c-1.29,2.092 -0.771,5.093 -2.35,6.9c-0.958,1.094 -3.037,1.285 -4.4,0.5c-1.119,-0.582 -1.243,-2.311 -1.5,-3.75c-0.262,-1.444 0.318,-2.943 0.25,-4.4c-0.27,-1.091 -1.764,-2.142 -1.25,-3.1c0.486,-0.952 1.976,-0.98 3.025,-1.1z" fill="none" stroke="url(#color-7)" stroke-width="4" stroke-linecap="round"/><path d="M229.75,153.8c0.866,0.208 1.243,1.786 1.75,2.75c1.043,1.978 2.094,4.028 2.5,6.25c0.356,1.946 -0.075,4.031 -0.75,5.9c-0.331,0.909 -1.531,1.448 -2.5,1.5c-1.025,0.054 -2.531,-0.255 -3.25,-1.15c-1.652,-2.06 -1.337,-5.272 -3.25,-6.85c-1.436,-1.235 -4.238,0.761 -5.5,-0.5c-1.675,-1.673 -1.677,-4.573 -1.75,-6.9c-0.021,-0.672 0.826,-1.162 1.5,-1.35c1.929,-0.526 4.159,-0.865 6,-0.4c1.452,0.373 2.376,2.329 3.75,2.5c0.759,0.094 0.862,-1.893 1.5,-1.75z" fill="url(#color-8)" stroke="none" stroke-width="1" stroke-linecap="round"/><path d="M212.5256,150.2863c0.8464,0.5326 1.558,1.1028 2.0249,1.5945c0.4659,0.4912 0.6865,0.9029 0.5506,1.119c-0.136,0.2161 -0.6026,0.1954 -1.2471,-0.0122c-0.6453,-0.2081 -1.4673,-0.603 -2.3137,-1.1356c-0.8463,-0.5326 -1.558,-1.1028 -2.0248,-1.5945c-0.466,-0.4912 -0.6866,-0.9029 -0.5506,-1.119c0.136,-0.2161 0.6026,-0.1954 1.2471,0.0122c0.6453,0.2081 1.4673,0.603 2.3136,1.1356z" fill="url(#color-9)" stroke="none" stroke-width="0.79981" stroke-linecap="butt"/><path d="M243.3,151.35c0.388,0.673 -0.548,1.594 -0.55,2.45c-0.015,3.26 0.263,6.539 0.05,9.8c-0.161,0.795 -0.887,0.026 -1,0.5c-0.405,1.758 0.223,3.605 -0.5,5.4c-0.419,1.038 -1.514,2.275 -2.5,2.25c-1.042,-0.026 -1.96,-1.346 -2.25,-2.4c-0.879,-3.197 -0.328,-6.593 -0.75,-9.85c-0.171,-1.271 -0.666,-2.438 -0.5,-3.65c0.119,-0.867 0.658,-1.645 1,-2.5c0.332,-0.375 0.534,-1.166 1,-1.15c0.614,0.03 0.821,1.646 1.5,1.5c1.101,-0.268 1.56,-1.994 2.75,-2.5c0.452,-0.352 1.395,-0.395 1.75,0.15z" fill="url(#color-10)" stroke="none" stroke-width="1" stroke-linecap="round"/><path d="M255.3,156c1.328,0.145 3.739,0.096 3.75,1.1c0,1.529 -2.118,3.244 -3.5,4.15c-1.553,1.01 -3.634,1.166 -5.25,1.85c-0.417,0.178 -1.035,-0.057 -1.25,0.5c-0.601,1.572 -0.219,3.402 -0.75,5c-0.501,1.035 -1.157,2.553 -2.25,2.65c-1.043,0.091 -1.977,-1.341 -2.25,-2.4c-0.446,-1.743 0.173,-3.646 0,-5.45c-0.122,-1.303 -1.165,-2.383 -1.25,-3.65c-0.026,-0.629 -0.232,-1.873 0.25,-1.65c1.436,0.669 1.97,2.814 3.5,3.15c0.854,0.187 1.001,-1.611 1.75,-2.15c1.53,-1.092 2.907,-1.871 4.5,-2.5c0.934,-0.365 1.852,-0.628 2.75,-0.6z" fill="url(#color-11)" stroke="none" stroke-width="1" stroke-linecap="round"/><path d="M238.3,144.45c1.238,-0.455 1.793,-1.973 3,-2.6c0.469,-0.24 1.117,0.41 1.25,1c0.319,1.563 0.357,3.44 -0.5,4.85c-0.521,0.845 -1.97,-0.294 -3,0c-0.49,0.154 -1.021,0.598 -1.25,1.25c-0.317,0.911 0.752,2.14 0,2.9c-0.653,0.644 -1.773,-0.251 -2.75,-0.25c-1.17,0.001 -2.738,1.034 -3.5,0.35c-1.175,-1.075 -1.132,-3.044 -1.5,-4.55c-0.225,-0.919 -0.06,-1.909 0,-2.85c0.033,-0.623 -0.443,-1.697 0,-2.1c0.388,-0.343 1.305,-0.158 1.75,0.15c0.602,0.625 0.271,1.895 1,2.3c0.605,0.339 1.112,-0.824 1.75,-0.95c1.267,-0.03 2.626,0.905 3.75,0.5z" fill="#f84d08" stroke="none" stroke-width="1" stroke-linecap="round"/><path d="M263.5,152.75z" fill="none" stroke="#ff6a04" stroke-width="4" stroke-linecap="round"/><path d="M258.5,157.1l3.25,-5.1l2.25,-2l2.75,-0.5" fill="none" stroke="url(#color-12)" stroke-width="2" stroke-linecap="round"/><path d="M226.125,122.5c0.379,0 0.723,0.14 0.972,0.366c0.249,0.227 0.403,0.539 0.403,0.884c0,0.345 -0.154,0.657 -0.403,0.884c-0.249,0.226 -0.593,0.366 -0.972,0.366c-0.379,0 -0.723,-0.14 -0.972,-0.366c-0.249,-0.227 -0.403,-0.539 -0.403,-0.884c0,-0.345 0.154,-0.657 0.403,-0.884c0.249,-0.226 0.593,-0.366 0.972,-0.366z" fill="#545b5e" stroke="none" stroke-width="1" stroke-linecap="butt"/><path d="M207.25,128.5c0.483,0 0.92,0.216 1.237,0.564c0.317,0.349 0.513,0.83 0.513,1.361c0,0.531 -0.196,1.012 -0.513,1.361c-0.317,0.348 -0.754,0.564 -1.237,0.564c-0.483,0 -0.92,-0.216 -1.237,-0.564c-0.317,-0.349 -0.513,-0.83 -0.513,-1.361c0,-0.531 0.196,-1.012 0.513,-1.361c0.317,-0.348 0.754,-0.564 1.237,-0.564z" fill="#e1aa0a" stroke="none" stroke-width="1" stroke-linecap="butt"/><path d="M268.125,135c0.448,0 0.855,0.182 1.149,0.476c0.294,0.294 0.476,0.701 0.476,1.149c0,0.448 -0.182,0.855 -0.476,1.149c-0.294,0.294 -0.701,0.476 -1.149,0.476c-0.448,0 -0.855,-0.182 -1.149,-0.476c-0.294,-0.294 -0.476,-0.701 -0.476,-1.149c0,-0.448 0.182,-0.855 0.476,-1.149c0.294,-0.294 0.701,-0.476 1.149,-0.476z" fill="#e1aa0a" stroke="none" stroke-width="1" stroke-linecap="butt"/><path d="M235.9,137.4c1.994,0.128 1.342,3.685 2.85,4.75c4.575,3.219 12.794,2.769 14.9,7.75c2.091,5.015 -0.441,12.079 -4.4,15.75c-4.286,3.529 -11.165,3.89 -16.5,2.5c-4.286,-1.116 -6.875,-6.046 -9.398,-9.414c-2.037,-2.735 -5.202,-5.387 -5.202,-8.836c0,-3.449 1.989,-6.574 5.202,-8.836c3.213,-2.263 8.203,-3.952 12.548,-3.664z" fill="url(#color-13)" stroke="none" stroke-width="1" stroke-linecap="round"/></g></g></svg>