<svg version="1.1" xmlns="http://www.w3.org/2000/svg" xmlns:xlink="http://www.w3.org/1999/xlink" width="27.09885" height="29.78844" viewBox="0,0,27.09885,29.78844"><defs><linearGradient x1="240" y1="165.54327" x2="240" y2="194.45673" gradientUnits="userSpaceOnUse" id="color-1"><stop offset="0" stop-color="#ecf6ff"/><stop offset="1" stop-color="#85a0a2"/></linearGradient></defs><g transform="translate(-226.88807,-165.54327)"><g data-paper-data="{&quot;isPaintingLayer&quot;:true}" fill-rule="nonzero" stroke="none" stroke-width="1" stroke-linecap="butt" stroke-linejoin="miter" stroke-miterlimit="10" stroke-dasharray="" stroke-dashoffset="0" style="mix-blend-mode: normal"><path d="M250.62489,169.44279c0,1.67093 -1.35352,3.02714 -3.02714,3.02714c-1.67025,0 -3.02451,-1.35621 -3.02451,-3.02714c0,-1.66959 1.35426,-3.02451 3.02451,-3.02451c1.67362,0 3.02714,1.35493 3.02714,3.02451zM238.19063,171.17108l0.00788,-0.00131l5.49087,1.19903l1.68496,0.93769l0.00132,0.00263c0.73741,0.31972 1.21466,1.04669 1.2148,1.85043c-0.00055,0.34964 -0.09197,0.69313 -0.26529,0.99679l0.00132,0.00262l-3.14008,6.20925l3.63257,3.21888l0.00394,0.0105c0.2797,0.25439 0.43939,0.61477 0.43995,0.99285c-0.0006,0.06154 -0.00543,0.12298 -0.01445,0.18386l0.00394,0.0105l-1.3632,7.17714h-0.00131c-0.1496,0.79397 -0.84287,1.36921 -1.65081,1.36977c-0.9284,0 -1.68102,-0.75261 -1.68102,-1.68102c0.00007,-0.11069 0.01106,-0.2211 0.03283,-0.32963l1.14782,-5.90588l-5.07325,-3.12957c-0.90997,-0.45505 -1.48529,-1.38461 -1.48665,-2.40202c0.00096,-0.56404 0.17922,-1.11352 0.50956,-1.5707v-0.00262l3.31738,-5.40683l-2.9641,-0.94163l-4.0305,2.89844l-0.00132,-0.00132c-0.24203,0.20461 -0.54854,0.31716 -0.86546,0.31781c-0.74272,0 -1.34481,-0.60209 -1.34481,-1.34481c0.00034,-0.46812 0.24408,-0.90238 0.64351,-1.1465l4.65956,-3.34365l0.02102,-0.00394h0.00131c0.21672,-0.13897 0.4688,-0.21282 0.72626,-0.21275c0.11532,0.00062 0.23008,0.01606 0.34145,0.04596zM248.60767,179.86639h4.03444c0.74301,0 1.34481,0.60181 1.34481,1.34482c0,0.74301 -0.60181,1.34481 -1.34481,1.34481h-4.70684c-0.53859,0 -0.99963,-0.31892 -1.2148,-0.77615l-0.00787,-0.00526l-0.81293,-1.79265l1.50634,-2.97855zM237.88201,185.38222c0.00471,0.00336 0.40657,0.25263 0.96265,0.59624l-1.53655,2.16693c-0.5043,0.71141 -1.3224,1.13469 -2.19451,1.13469h-5.66949c-0.9286,0 -1.68102,-0.75242 -1.68102,-1.68102c0,-0.9286 0.75242,-1.68102 1.68102,-1.68102h5.20589l1.52999,-2.4112c0.34562,0.77663 0.93279,1.43966 1.70203,1.87538z" fill="#283b54"/><path d="M249.74989,168.56778c0,1.67093 -1.35352,3.02714 -3.02714,3.02714c-1.67026,0 -3.02451,-1.35621 -3.02451,-3.02714c0,-1.66958 1.35426,-3.02451 3.02451,-3.02451c1.67362,0 3.02714,1.35493 3.02714,3.02451zM237.31563,170.29608l0.00788,-0.00131l5.49088,1.19904l1.68495,0.93769l0.00131,0.00263c0.73741,0.31972 1.21467,1.04669 1.2148,1.85043c-0.00055,0.34964 -0.09197,0.69313 -0.26529,0.99679l0.00131,0.00263l-3.14008,6.20925l3.63257,3.21888l0.00394,0.01051c0.2797,0.25439 0.43939,0.61477 0.43995,0.99285c-0.0006,0.06155 -0.00543,0.12298 -0.01445,0.18386l0.00394,0.01051l-1.3632,7.17715h-0.00131c-0.1496,0.79397 -0.84287,1.36922 -1.65081,1.36976c-0.9284,0 -1.68102,-0.75262 -1.68102,-1.68102c0.00006,-0.11069 0.01106,-0.22111 0.03283,-0.32964l1.14782,-5.90588l-5.07325,-3.12958c-0.90997,-0.45505 -1.48529,-1.38461 -1.48665,-2.40201c0.00095,-0.56404 0.17921,-1.11351 0.50956,-1.5707v-0.00263l3.31738,-5.40683l-2.9641,-0.94163l-4.0305,2.89844l-0.00131,-0.00131c-0.24203,0.20461 -0.54854,0.31717 -0.86546,0.31782c-0.74272,0 -1.34481,-0.60209 -1.34481,-1.34481c0.00034,-0.46812 0.24408,-0.90239 0.64351,-1.1465l4.65956,-3.34364l0.02101,-0.00394h0.00131c0.21673,-0.13897 0.46879,-0.21282 0.72625,-0.21275c0.11532,0.00062 0.23008,0.01607 0.34146,0.04597zM247.73267,178.99139h4.03444c0.74301,0 1.34481,0.6018 1.34481,1.34481c0,0.74301 -0.6018,1.34481 -1.34481,1.34481h-4.70684c-0.5386,0 -0.99963,-0.31892 -1.2148,-0.77616l-0.00788,-0.00525l-0.81293,-1.79265l1.50635,-2.97855zM237.007,184.50722c0.00471,0.00336 0.40656,0.25264 0.96264,0.59624l-1.53655,2.16693c-0.5043,0.71141 -1.3224,1.13469 -2.19451,1.13469h-5.66949c-0.92859,0 -1.68102,-0.75242 -1.68102,-1.68102c0,-0.92859 0.75242,-1.68102 1.68102,-1.68102h5.20589l1.52999,-2.41121c0.34562,0.77663 0.9328,1.43966 1.70203,1.87538z" fill="url(#color-1)"/></g></g></svg>