<svg version="1.1" xmlns="http://www.w3.org/2000/svg" xmlns:xlink="http://www.w3.org/1999/xlink" width="483.48348" height="361.86186" viewBox="0,0,483.48348,361.86186"><defs><radialGradient cx="246.65426" cy="180.45463" r="20.14477" gradientUnits="userSpaceOnUse" id="color-1"><stop offset="0" stop-color="#5c886b"/><stop offset="1" stop-color="#00563a"/></radialGradient><radialGradient cx="244.32658" cy="179.9238" r="8.50453" gradientUnits="userSpaceOnUse" id="color-2"><stop offset="0" stop-color="#5c886b"/><stop offset="1" stop-color="#00563a"/></radialGradient><radialGradient cx="241.41216" cy="190.14856" r="8.77999" gradientUnits="userSpaceOnUse" id="color-3"><stop offset="0" stop-color="#5c886b"/><stop offset="1" stop-color="#00563a"/></radialGradient><radialGradient cx="243.0151" cy="184.78117" r="10.14963" gradientUnits="userSpaceOnUse" id="color-4"><stop offset="0" stop-color="#5c886b"/><stop offset="1" stop-color="#00563a"/></radialGradient><radialGradient cx="233.54323" cy="182.25534" r="8.80051" gradientUnits="userSpaceOnUse" id="color-5"><stop offset="0" stop-color="#5c886b"/><stop offset="1" stop-color="#00563a"/></radialGradient><radialGradient cx="244.32658" cy="185.24262" r="8.62527" gradientUnits="userSpaceOnUse" id="color-6"><stop offset="0" stop-color="#5c886b"/><stop offset="1" stop-color="#00563a"/></radialGradient><radialGradient cx="238.98348" cy="184.51401" r="8.913" gradientUnits="userSpaceOnUse" id="color-7"><stop offset="0" stop-color="#5c886b"/><stop offset="1" stop-color="#00563a"/></radialGradient><radialGradient cx="247.22341" cy="169.54795" r="10.93798" gradientUnits="userSpaceOnUse" id="color-8"><stop offset="0" stop-color="#cccccc"/><stop offset="1" stop-color="#7f7f7f"/></radialGradient></defs><g transform="translate(1.74174,0.93093)"><g data-paper-data="{&quot;isPaintingLayer&quot;:true}" fill-rule="nonzero" stroke-linejoin="miter" stroke-miterlimit="10" stroke-dasharray="" stroke-dashoffset="0" style="mix-blend-mode: normal"><path d="M-1.74174,360.93093v-361.86186h483.48348v361.86186z" fill="none" stroke="none" stroke-width="0" stroke-linecap="butt"/><g stroke="#0b4631" stroke-width="0.3"><path d="M242.86107,174.17228c2.69224,0.84116 4.7902,2.69663 6.00471,5.01497c1.21464,2.31821 1.54597,5.09928 0.70495,7.79152c-0.84116,2.69224 -3.27334,4.07083 -5.01497,6.00471c-0.47839,0.52041 -0.71827,1.0139 -1.27465,1.16165c-0.70358,0.19621 -1.44354,-0.21036 -2.16181,-0.33202c-1.41141,-0.21613 -2.83312,-0.42704 -4.22228,-0.7699c-1.22426,-0.28382 -2.43244,-0.62338 -3.54575,-1.17633c-0.68587,-0.28807 -1.3418,-0.71827 -1.78668,-1.31338c-0.42388,-0.52644 -0.693,-1.14888 -0.80505,-1.88005c-0.39202,-2.57512 -1.54597,-5.09942 -0.70481,-7.79152c0.84103,-2.69224 2.6965,-4.7902 5.01484,-6.00485c2.31834,-1.21451 5.09942,-1.54583 7.79152,-0.70481z" fill="url(#color-1)" stroke-linecap="butt"/><path d="M241.94164,178.58776c2.37066,0.7423 4.83839,0.96721 7.14246,1.75071c0.59387,0.22821 0.24853,0.57863 0.34808,0.86396c0.06166,0.17342 0.75755,0.61845 0.05081,0.49651c-2.68016,-0.44104 -5.36718,-1.00141 -8.01438,-1.81716c-2.87363,-0.88538 -5.68148,-2.01612 -8.4561,-3.2596c-0.65304,-0.29713 0.31691,-0.21544 0.44956,-0.34026c0.21091,-0.20047 0.04956,-0.70453 0.71524,-0.53167c2.6608,0.70536 5.13828,2.01543 7.76434,2.83751z" fill="url(#color-2)" stroke-linecap="round"/><path d="M238.50106,188.70765c2.91015,0.77896 5.97272,0.98767 8.84319,1.80151c0.71704,0.20308 -0.39724,0.27379 -0.5513,0.44571c-0.1196,0.12715 0.2856,0.44928 -0.39944,0.35577c-2.73549,-0.37293 -5.51658,-0.70894 -8.20112,-1.39493c-2.58541,-0.73131 -5.06853,-1.82128 -7.557,-2.84149c-0.62229,-0.25526 -0.21338,-0.31321 -0.25814,-0.49253c-0.07017,-0.28533 -0.73914,-0.94194 -0.03515,-0.76619c2.81403,0.70124 5.39464,2.10469 8.15896,2.89216z" fill="url(#color-3)" stroke-linecap="round"/><path d="M239.97179,183.33073c3.29379,0.90404 6.68165,1.21355 9.94181,2.14464c0.8159,0.23219 -0.11809,0.45065 -0.21503,0.68806c-0.05067,0.15228 0.59909,0.60925 -0.22848,0.47798c-3.2857,-0.51546 -6.56013,-1.20201 -9.79749,-2.09961c-3.19273,-0.88523 -6.3521,-1.9373 -9.41687,-3.21662c-0.7445,-0.31403 0.07676,-0.47167 0.15723,-0.70605c0.12852,-0.14966 -0.3121,-0.62036 0.47372,-0.40122c3.07273,0.84982 5.99784,2.26424 9.08512,3.11282z" fill="url(#color-4)" stroke-linecap="round"/><path d="M234.16934,182.87403c-0.82496,2.73151 -1.00648,5.62917 -1.73011,8.38854c-0.1807,0.68902 -0.28011,-0.34135 -0.40822,-0.46425c-0.17548,-0.2164 -0.57163,0.08871 -0.49885,-0.57326c0.28671,-2.63457 0.58481,-5.33093 1.29731,-7.90233c0.80093,-2.63965 2.05978,-5.13142 3.2169,-7.64255c0.28807,-0.63369 0.36497,-0.25608 0.57094,-0.30799c0.25869,-0.06138 0.95595,-0.91407 0.73681,-0.1763c-0.87233,2.95574 -2.36805,5.70867 -3.18477,8.67814z" fill="url(#color-5)" stroke-linecap="round"/><path d="M246.02154,176.95679c0.23988,-0.73131 0.32776,0.36662 0.50544,0.56435c0.13978,0.15997 0.41797,-0.10683 0.29412,0.57821c-0.47812,2.72327 -0.84213,5.49282 -1.7058,8.11475c-0.86642,2.58074 -2.12789,5.08514 -3.47957,7.50935c-0.32735,0.56874 -0.45051,-0.06851 -0.68875,-0.0865c-0.16574,-0.01428 -0.72513,0.555 -0.47756,-0.14184c0.91146,-2.55699 2.34882,-4.93945 3.23049,-7.5905c0.98877,-2.9155 1.35621,-6.02105 2.32164,-8.94781z" fill="url(#color-6)" stroke-linecap="round"/><path d="M241.9319,175.49883c0.28299,0.05575 0.7839,-0.48842 0.60691,0.25279c-0.69094,2.97702 -1.88706,5.75124 -2.76336,8.61114c-0.82702,2.80579 -1.38903,5.70688 -2.35034,8.40091c-0.2403,0.67351 -0.38502,0.10463 -0.54691,0.02869c-0.29233,-0.16038 -0.85778,-0.05286 -0.72651,-0.77429c0.52549,-2.88557 1.4581,-5.46412 2.33152,-8.13137c0.88002,-2.80099 1.78792,-5.51822 2.93144,-8.28062c0.28574,-0.69039 0.35192,-0.12907 0.51724,-0.10724z" fill="url(#color-7)" stroke-linecap="round"/><path d="M241.3177,166.03913l1.90944,1.44779l1.58648,0.59167l2.11883,0.03035l1.96958,0.02485l-2.50152,5.80959l1.33726,2.75197l-3.14935,0.27943l-2.46059,-0.56269l-2.08615,-0.9263l-2.64047,-1.74494l2.9475,-1.96285z" fill="url(#color-8)" stroke-linecap="round"/><path d="M244.37784,165.88225c0.65538,0.05973 1.24155,0.1553 1.8266,0.2797c0.60938,0.10944 1.24956,0.18358 1.75585,0.42113c0.29986,0.14116 0.56074,0.40438 0.73097,0.67158c0.14952,0.23191 0.45296,0.59702 0.26945,0.7828c-0.22911,0.23178 -0.69159,0.02773 -1.03884,0.05039c-0.53061,-0.00151 -1.06039,-0.00439 -1.5964,0.01113c-0.59086,0.0162 -1.1983,0.11095 -1.77575,0.00536c-0.58865,-0.15763 -1.13722,-0.45203 -1.64821,-0.77635c-0.56336,-0.35825 -1.4929,-0.8365 -1.59847,-1.29236c-0.06107,-0.28259 0.88297,-0.1969 1.34546,-0.22848c0.56653,-0.01964 1.1538,0.02238 1.72932,0.07511z" fill="#666666" stroke-linecap="round"/></g></g></g></svg>