<svg xmlns:xlink="http://www.w3.org/1999/xlink" xmlns="http://www.w3.org/2000/svg" version="1.1" viewBox="0.0 0.0 959.9396325459318 539.9658792650919" fill="none" stroke="none" stroke-linecap="square" stroke-miterlimit="10"><clipPath id="p.0"><path d="m0 0l959.93964 0l0 539.9659l-959.93964 0l0 -539.9659z" clip-rule="nonzero"/></clipPath><g clip-path="url(#p.0)"><path fill="#000000" fill-opacity="0.0" d="m0 0l959.93964 0l0 539.9659l-959.93964 0z" fill-rule="evenodd"/><defs><linearGradient id="p.1" gradientUnits="userSpaceOnUse" gradientTransform="matrix(23.28468850571164 0.0 0.0 23.28468850571164 0.0 0.0)" spreadMethod="pad" x1="-0.0919802849387145" y1="-0.047549057760476694" x2="-0.09206457796394216" y2="23.23713944779859"><stop offset="0.0" stop-color="#272525"/><stop offset="1.0" stop-color="#110c0c"/></linearGradient></defs><path fill="url(#p.1)" d="m-2.1417322 -1.1036745l964.22046 0l0 542.1733l-964.22046 0z" fill-rule="evenodd"/><path stroke="#000000" stroke-width="1.0" stroke-linejoin="round" stroke-linecap="butt" d="m-2.1417322 -1.1036745l964.22046 0l0 542.1733l-964.22046 0z" fill-rule="evenodd"/><path fill="#ffffff" fill-opacity="0.0894" d="m-130.24231 279.1963l0 0c44.62635 -162.43259 212.48079 -257.9334 374.9134 -213.30707c162.43259 44.62635 257.93344 212.48077 213.3071 374.9134c-44.626373 162.43262 -212.4808 257.9334 -374.9134 213.30707c-162.43259 -44.626343 -257.93344 -212.48077 -213.3071 -374.9134z" fill-rule="evenodd"/><path fill="#cbcbcb" fill-opacity="0.0894" d="m63.17337 237.73477c4.648575 -16.92006 22.133415 -26.868057 39.053474 -22.219482c16.920067 4.648575 26.868065 22.133408 22.21949 39.053482c-4.648575 16.92006 -22.133415 26.868057 -39.053474 22.219498c-16.920067 -4.64859 -26.868069 -22.133423 -22.21949 -39.053497m188.44841 51.773865c4.648575 -16.920044 22.133408 -26.868042 39.053482 -22.219482c16.920044 4.64859 26.868073 22.133423 22.219482 39.053497c-4.64859 16.920044 -22.133423 26.868042 -39.053467 22.219482c-16.920074 -4.64859 -26.868073 -22.133423 -22.219498 -39.053497" fill-rule="evenodd"/><path fill="#000000" fill-opacity="0.0" d="m-30.780533 444.46704q129.33151 153.27545 318.44708 87.48938" fill-rule="evenodd"/><path fill="#000000" fill-opacity="0.0" d="m-130.24231 279.1963l0 0c44.62635 -162.43259 212.48079 -257.9334 374.9134 -213.30707c162.43259 44.62635 257.93344 212.48077 213.3071 374.9134c-44.626373 162.43262 -212.4808 257.9334 -374.9134 213.30707c-162.43259 -44.626343 -257.93344 -212.48077 -213.3071 -374.9134z" fill-rule="evenodd"/><path fill="#000000" fill-opacity="0.0" d="m169.71602 181.14043l620.50397 0l0 95.33858l-620.50397 0z" fill-rule="evenodd"/><path fill="#f3f3f3" d="m262.4921 238.39418q0 3.984375 -1.984375 6.78125q-1.96875 2.796875 -5.515625 4.265625q-3.546875 1.46875 -8.34375 1.46875q-2.546875 0 -4.8125 -0.25q-2.265625 -0.234375 -4.15625 -0.6875q-1.890625 -0.46875 -3.328125 -1.140625l0 -4.984375q2.28125 0.953125 5.578125 1.765625q3.3125 0.796875 6.921875 0.796875q3.375 0 5.6875 -0.890625q2.328125 -0.90625 3.53125 -2.609375q1.21875 -1.703125 1.21875 -4.078125q0 -2.296875 -1.015625 -3.84375q-1.0 -1.546875 -3.34375 -2.8125q-2.34375 -1.265625 -6.375 -2.703125q-2.84375 -1.015625 -5.015625 -2.21875q-2.171875 -1.21875 -3.640625 -2.75q-1.46875 -1.53125 -2.21875 -3.546875q-0.75 -2.015625 -0.75 -4.609375q0 -3.578125 1.8125 -6.125q1.828125 -2.5625 5.046875 -3.921875q3.234375 -1.375 7.421875 -1.375q3.578125 0 6.625 0.671875q3.046875 0.671875 5.578125 1.8125l-1.609375 4.46875q-2.421875 -1.015625 -5.140625 -1.6875q-2.703125 -0.671875 -5.578125 -0.671875q-2.875 0 -4.84375 0.84375q-1.96875 0.84375 -3.015625 2.375q-1.03125 1.515625 -1.03125 3.640625q0 2.34375 0.984375 3.90625q1.0 1.5625 3.1875 2.78125q2.1875 1.203125 5.796875 2.515625q3.9375 1.4375 6.6875 3.046875q2.765625 1.609375 4.203125 3.921875q1.4375 2.296875 1.4375 5.84375zm44.763184 -22.234375q5.53125 0 8.34375 2.890625q2.8125 2.890625 2.8125 9.28125l0 21.96875l-5.015625 0l0 -21.71875q0 -4.078125 -1.765625 -6.109375q-1.75 -2.03125 -5.203125 -2.03125q-4.875 0 -7.078125 2.8125q-2.1875 2.8125 -2.1875 8.296875l0 18.75l-5.0625 0l0 -21.71875q0 -2.71875 -0.78125 -4.515625q-0.765625 -1.8125 -2.3125 -2.71875q-1.546875 -0.90625 -3.90625 -0.90625q-3.328125 0 -5.359375 1.375q-2.015625 1.375 -2.921875 4.09375q-0.890625 2.703125 -0.890625 6.640625l0 17.75l-5.078125 0l0 -33.53125l4.09375 0l0.765625 4.75l0.28125 0q1.0 -1.75 2.53125 -2.9375q1.53125 -1.203125 3.421875 -1.8125q1.90625 -0.609375 4.046875 -0.609375q3.828125 0 6.40625 1.421875q2.59375 1.421875 3.75 4.328125l0.28125 0q1.640625 -2.90625 4.515625 -4.328125q2.875 -1.421875 6.3125 -1.421875zm26.677856 0.609375l0 33.53125l-5.078125 0l0 -33.53125l5.078125 0zm-2.484375 -12.546875q1.25 0 2.15625 0.8125q0.90625 0.8125 0.90625 2.53125q0 1.671875 -0.90625 2.5q-0.90625 0.828125 -2.15625 0.828125q-1.3125 0 -2.1875 -0.828125q-0.875 -0.828125 -0.875 -2.5q0 -1.71875 0.875 -2.53125q0.875 -0.8125 2.1875 -0.8125zm18.332642 46.078125l-5.109375 0l0 -47.609375l5.109375 0l0 47.609375zm23.613922 -34.140625q4.28125 0 7.34375 1.90625q3.0625 1.890625 4.671875 5.296875q1.625 3.40625 1.625 7.96875l0 3.15625l-23.15625 0q0.09375 5.90625 2.9375 9.0q2.84375 3.078125 8.015625 3.078125q3.1875 0 5.625 -0.578125q2.453125 -0.578125 5.078125 -1.71875l0 4.46875q-2.53125 1.140625 -5.03125 1.65625q-2.484375 0.515625 -5.890625 0.515625q-4.828125 0 -8.421875 -1.96875q-3.59375 -1.96875 -5.59375 -5.796875q-1.984375 -3.828125 -1.984375 -9.359375q0 -5.421875 1.8125 -9.375q1.828125 -3.96875 5.140625 -6.109375q3.328125 -2.140625 7.828125 -2.140625zm-0.0625 4.15625q-4.0625 0 -6.484375 2.671875q-2.421875 2.65625 -2.875 7.421875l17.75 0q-0.03125 -3.0 -0.9375 -5.265625q-0.90625 -2.28125 -2.75 -3.546875q-1.828125 -1.28125 -4.703125 -1.28125zm44.026703 20.8125q0 3.203125 -1.609375 5.390625q-1.609375 2.1875 -4.59375 3.296875q-2.984375 1.09375 -7.109375 1.09375q-3.515625 0 -6.09375 -0.546875q-2.5625 -0.546875 -4.484375 -1.5625l0 -4.6875q2.046875 1.015625 4.890625 1.84375q2.84375 0.828125 5.8125 0.828125q4.34375 0 6.296875 -1.40625q1.96875 -1.40625 1.96875 -3.828125q0 -1.375 -0.78125 -2.421875q-0.78125 -1.0625 -2.625 -2.046875q-1.828125 -1.0 -5.078125 -2.203125q-3.203125 -1.21875 -5.546875 -2.421875q-2.34375 -1.21875 -3.609375 -2.953125q-1.265625 -1.75 -1.265625 -4.53125q0 -4.25 3.4375 -6.53125q3.4375 -2.28125 9.03125 -2.28125q3.03125 0 5.671875 0.59375q2.65625 0.59375 4.953125 1.609375l-1.71875 4.0625q-2.078125 -0.890625 -4.4375 -1.5q-2.34375 -0.609375 -4.796875 -0.609375q-3.515625 0 -5.40625 1.171875q-1.875 1.15625 -1.875 3.171875q0 1.5625 0.875 2.578125q0.875 1.0 2.796875 1.890625q1.921875 0.890625 5.078125 2.078125q3.15625 1.171875 5.4375 2.40625q2.296875 1.234375 3.53125 3.0q1.25 1.75 1.25 4.515625zm50.10431 9.171875l-24.890625 0l0 -44.734375l24.890625 0l0 4.59375l-19.703125 0l0 14.46875l18.578125 0l0 4.53125l-18.578125 0l0 16.546875l19.703125 0l0 4.59375zm21.081451 0.609375q-6.359375 0 -10.078125 -4.34375q-3.71875 -4.34375 -3.71875 -12.90625q0 -8.65625 3.796875 -13.078125q3.796875 -4.421875 10.09375 -4.421875q2.65625 0 4.640625 0.703125q2.0 0.703125 3.4375 1.890625q1.4375 1.171875 2.421875 2.671875l0.359375 0q-0.125 -0.953125 -0.25 -2.609375q-0.109375 -1.65625 -0.109375 -2.6875l0 -13.4375l5.078125 0l0 47.609375l-4.109375 0l-0.765625 -4.765625l-0.203125 0q-0.953125 1.484375 -2.40625 2.71875q-1.453125 1.21875 -3.453125 1.9375q-2.0 0.71875 -4.734375 0.71875zm0.796875 -4.21875q5.390625 0 7.625 -3.0625q2.234375 -3.0625 2.234375 -9.078125l0 -0.921875q0 -6.390625 -2.140625 -9.8125q-2.125 -3.4375 -7.71875 -3.4375q-4.671875 0 -7.0 3.59375q-2.328125 3.59375 -2.328125 9.8125q0 6.171875 2.3125 9.546875q2.3125 3.359375 7.015625 3.359375zm30.693481 -29.921875l0 33.53125l-5.078125 0l0 -33.53125l5.078125 0zm-2.484375 -12.546875q1.25 0 2.15625 0.8125q0.90625 0.8125 0.90625 2.53125q0 1.671875 -0.90625 2.5q-0.90625 0.828125 -2.15625 0.828125q-1.3125 0 -2.1875 -0.828125q-0.875 -0.828125 -0.875 -2.5q0 -1.71875 0.875 -2.53125q0.875 -0.8125 2.1875 -0.8125zm24.051392 42.53125q1.25 0 2.5625 -0.21875q1.3125 -0.21875 2.140625 -0.515625l0 3.9375q-0.875 0.40625 -2.453125 0.671875q-1.578125 0.28125 -3.078125 0.28125q-2.65625 0 -4.828125 -0.921875q-2.171875 -0.9375 -3.484375 -3.171875q-1.296875 -2.234375 -1.296875 -6.1875l0 -19.875l-4.765625 0l0 -2.484375l4.796875 -1.984375l2.015625 -7.28125l3.0625 0l0 7.765625l9.828125 0l0 3.984375l-9.828125 0l0 19.71875q0 3.15625 1.453125 4.71875q1.453125 1.5625 3.875 1.5625zm16.583557 -29.984375l0 33.53125l-5.078125 0l0 -33.53125l5.078125 0zm-2.484375 -12.546875q1.25 0 2.15625 0.8125q0.90625 0.8125 0.90625 2.53125q0 1.671875 -0.90625 2.5q-0.90625 0.828125 -2.15625 0.828125q-1.3125 0 -2.1875 -0.828125q-0.875 -0.828125 -0.875 -2.5q0 -1.71875 0.875 -2.53125q0.875 -0.8125 2.1875 -0.8125zm29.098267 11.9375q5.96875 0 9.015625 2.921875q3.0625 2.921875 3.0625 9.375l0 21.84375l-5.015625 0l0 -21.5q0 -4.203125 -1.921875 -6.28125q-1.90625 -2.078125 -5.84375 -2.078125q-5.578125 0 -7.84375 3.15625q-2.25 3.140625 -2.25 9.140625l0 17.5625l-5.078125 0l0 -33.53125l4.09375 0l0.765625 4.828125l0.28125 0q1.0625 -1.765625 2.71875 -2.96875q1.65625 -1.21875 3.703125 -1.84375q2.046875 -0.625 4.3125 -0.625zm31.910278 49.187485q-6.609375 0 -10.1875 -2.46875q-3.578125 -2.453125 -3.578125 -6.8906097q0 -3.140625 2.0 -5.375q2.0 -2.234375 5.546875 -2.96875q-1.3125 -0.625 -2.25 -1.84375q-0.921875 -1.21875 -0.921875 -2.8125q0 -1.828125 1.015625 -3.21875q1.03125 -1.40625 3.140625 -2.6875q-2.625 -1.0625 -4.265625 -3.609375q-1.640625 -2.5625 -1.640625 -5.96875q0 -3.609375 1.5 -6.15625q1.5 -2.5625 4.34375 -3.90625q2.84375 -1.34375 6.890625 -1.34375q0.875 0 1.78125 0.078125q0.90625 0.078125 1.734375 0.21875q0.828125 0.125 1.4375 0.3125l11.5 0l0 3.28125l-6.171875 0.765625q0.90625 1.1875 1.515625 2.875q0.625 1.671875 0.625 3.71875q0 5.03125 -3.40625 7.984375q-3.390625 2.953125 -9.328125 2.953125q-1.40625 0 -2.875 -0.25q-1.5 0.828125 -2.28125 1.84375q-0.78125 1.0 -0.78125 2.3125q0 0.984375 0.59375 1.5625q0.609375 0.578125 1.734375 0.84375q1.125 0.25 2.71875 0.25l5.90625 0q5.484375 0 8.40625 2.296875q2.921875 2.296875 2.921875 6.703125q0 5.5624847 -4.53125 8.531235q-4.53125 2.96875 -13.09375 2.96875zm0.15625 -3.96875q4.15625 0 6.890625 -0.84375q2.734375 -0.84375 4.09375 -2.421875q1.375 -1.578125 1.375 -3.7499847q0 -2.015625 -0.921875 -3.046875q-0.921875 -1.015625 -2.703125 -1.359375q-1.765625 -0.359375 -4.328125 -0.359375l-5.8125 0q-2.265625 0 -3.953125 0.703125q-1.6875 0.703125 -2.59375 2.078125q-0.890625 1.375 -0.890625 3.421875q0 2.7343597 2.28125 4.1562347q2.296875 1.421875 6.5625 1.421875zm1.3125 -26.79686q3.640625 0 5.46875 -1.828125q1.84375 -1.84375 1.84375 -5.375q0 -3.75 -1.875 -5.625q-1.859375 -1.890625 -5.5 -1.890625q-3.484375 0 -5.375 1.9375q-1.875 1.9375 -1.875 5.671875q0 3.4375 1.890625 5.28125q1.90625 1.828125 5.421875 1.828125zm72.4682 15.71875l-6.140625 0l-16.125 -21.75l-4.78125 4.28125l0 17.46875l-5.1875 0l0 -44.734375l5.1875 0l0 22.3125q1.75 -1.984375 3.578125 -3.953125q1.84375 -1.984375 3.65625 -4.0l13.0625 -14.359375l6.078125 0l-17.796875 19.40625l18.46875 25.328125zm10.442871 -33.53125l0 33.53125l-5.078125 0l0 -33.53125l5.078125 0zm-2.484375 -12.546875q1.25 0 2.15625 0.8125q0.90625 0.8125 0.90625 2.53125q0 1.671875 -0.90625 2.5q-0.90625 0.828125 -2.15625 0.828125q-1.3125 0 -2.1875 -0.828125q-0.875 -0.828125 -0.875 -2.5q0 -1.71875 0.875 -2.53125q0.875 -0.8125 2.1875 -0.8125zm24.051392 42.53125q1.25 0 2.5625 -0.21875q1.3125 -0.21875 2.140625 -0.515625l0 3.9375q-0.875 0.40625 -2.453125 0.671875q-1.578125 0.28125 -3.078125 0.28125q-2.65625 0 -4.828125 -0.921875q-2.171875 -0.9375 -3.484375 -3.171875q-1.296875 -2.234375 -1.296875 -6.1875l0 -19.875l-4.765625 0l0 -2.484375l4.796875 -1.984375l2.015625 -7.28125l3.0625 0l0 7.765625l9.828125 0l0 3.984375l-9.828125 0l0 19.71875q0 3.15625 1.453125 4.71875q1.453125 1.5625 3.875 1.5625z" fill-rule="nonzero"/><path fill="#000000" fill-opacity="0.0" d="m204.47113 277.55118l550.9921 0" fill-rule="evenodd"/><path stroke="#ffffff" stroke-width="3.0" stroke-linejoin="round" stroke-linecap="butt" d="m204.47113 277.55118l550.9921 0" fill-rule="evenodd"/><path fill="#000000" fill-opacity="0.0" d="m210.99081 282.25854l538.01575 0l0 53.322815l-538.01575 0z" fill-rule="evenodd"/><path fill="#f3f3f3" d="m248.07193 318.41977q-2.015625 0 -3.5625 -0.828125q-1.546875 -0.84375 -2.40625 -2.546875q-0.859375 -1.71875 -0.859375 -4.3125q0 -2.71875 0.90625 -4.453125q0.90625 -1.734375 2.5 -2.5625q1.609375 -0.84375 3.640625 -0.84375q1.125 0 2.171875 0.234375q1.046875 0.21875 1.71875 0.5625l-0.6875 1.90625q-0.6875 -0.28125 -1.578125 -0.5q-0.890625 -0.21875 -1.671875 -0.21875q-1.5625 0 -2.59375 0.671875q-1.03125 0.671875 -1.546875 1.96875q-0.515625 1.296875 -0.515625 3.203125q0 1.8125 0.5 3.109375q0.5 1.28125 1.484375 1.953125q1.0 0.671875 2.484375 0.671875q1.203125 0 2.15625 -0.25q0.953125 -0.25 1.734375 -0.59375l0 2.03125q-0.75 0.375 -1.671875 0.578125q-0.921875 0.21875 -2.203125 0.21875zm21.498047 -15.546875q0.453125 0 0.9375 0.0625q0.5 0.046875 0.875 0.125l-0.28125 2.109375q-0.375 -0.109375 -0.828125 -0.15625q-0.4375 -0.0625 -0.84375 -0.0625q-0.90625 0 -1.703125 0.375q-0.796875 0.359375 -1.40625 1.03125q-0.59375 0.671875 -0.9375 1.625q-0.34375 0.953125 -0.34375 2.109375l0 8.046875l-2.28125 0l0 -14.984375l1.890625 0l0.25 2.765625l0.09375 0q0.46875 -0.84375 1.125 -1.53125q0.65625 -0.6875 1.515625 -1.09375q0.875 -0.421875 1.9375 -0.421875zm17.669922 0q1.921875 0 3.28125 0.859375q1.375 0.84375 2.09375 2.375q0.734375 1.515625 0.734375 3.546875l0 1.421875l-10.359375 0q0.046875 2.625 1.3125 4.015625q1.28125 1.375 3.59375 1.375q1.421875 0 2.515625 -0.25q1.09375 -0.265625 2.265625 -0.765625l0 1.984375q-1.140625 0.515625 -2.25 0.75q-1.109375 0.234375 -2.640625 0.234375q-2.15625 0 -3.765625 -0.875q-1.59375 -0.890625 -2.484375 -2.59375q-0.890625 -1.71875 -0.890625 -4.203125q0 -2.40625 0.8125 -4.171875q0.8125 -1.78125 2.296875 -2.734375q1.484375 -0.96875 3.484375 -0.96875zm-0.015625 1.859375q-1.828125 0 -2.90625 1.203125q-1.078125 1.1875 -1.28125 3.3125l7.921875 0q0 -1.34375 -0.40625 -2.359375q-0.40625 -1.015625 -1.234375 -1.578125q-0.8125 -0.578125 -2.09375 -0.578125zm22.855469 -1.828125q2.671875 0 3.96875 1.203125q1.3125 1.203125 1.3125 3.84375l0 10.1875l-1.65625 0l-0.4375 -2.21875l-0.109375 0q-0.625 0.828125 -1.3125 1.390625q-0.6875 0.546875 -1.59375 0.828125q-0.890625 0.28125 -2.1875 0.28125q-1.359375 0 -2.421875 -0.484375q-1.0625 -0.484375 -1.671875 -1.453125q-0.609375 -0.96875 -0.609375 -2.453125q0 -2.25 1.78125 -3.453125q1.78125 -1.203125 5.421875 -1.3125l2.578125 -0.109375l0 -0.921875q0 -1.9375 -0.84375 -2.71875q-0.828125 -0.78125 -2.34375 -0.78125q-1.171875 0 -2.25 0.34375q-1.0625 0.34375 -2.015625 0.8125l-0.703125 -1.71875q1.015625 -0.53125 2.328125 -0.890625q1.3125 -0.375 2.765625 -0.375zm3.03125 7.84375l-2.28125 0.109375q-2.796875 0.109375 -3.953125 0.921875q-1.140625 0.796875 -1.140625 2.265625q0 1.296875 0.765625 1.90625q0.78125 0.609375 2.078125 0.609375q1.984375 0 3.25 -1.09375q1.28125 -1.109375 1.28125 -3.328125l0 -1.390625zm19.035156 5.796875q0.5625 0 1.140625 -0.09375q0.59375 -0.09375 0.96875 -0.234375l0 1.765625q-0.40625 0.1875 -1.109375 0.3125q-0.703125 0.125 -1.375 0.125q-1.1875 0 -2.15625 -0.421875q-0.96875 -0.421875 -1.546875 -1.421875q-0.578125 -1.0 -0.578125 -2.765625l0 -8.875l-2.140625 0l0 -1.109375l2.140625 -0.890625l0.90625 -3.25l1.375 0l0 3.46875l4.390625 0l0 1.78125l-4.390625 0l0 8.8125q0 1.40625 0.640625 2.109375q0.65625 0.6875 1.734375 0.6875zm18.175781 -13.671875q1.921875 0 3.28125 0.859375q1.375 0.84375 2.09375 2.375q0.734375 1.515625 0.734375 3.546875l0 1.421875l-10.359375 0q0.046875 2.625 1.3125 4.015625q1.28125 1.375 3.59375 1.375q1.421875 0 2.515625 -0.25q1.09375 -0.265625 2.265625 -0.765625l0 1.984375q-1.140625 0.515625 -2.25 0.75q-1.109375 0.234375 -2.640625 0.234375q-2.15625 0 -3.765625 -0.875q-1.59375 -0.890625 -2.484375 -2.59375q-0.890625 -1.71875 -0.890625 -4.203125q0 -2.40625 0.8125 -4.171875q0.8125 -1.78125 2.296875 -2.734375q1.484375 -0.96875 3.484375 -0.96875zm-0.015625 1.859375q-1.828125 0 -2.90625 1.203125q-1.078125 1.1875 -1.28125 3.3125l7.921875 0q0 -1.34375 -0.40625 -2.359375q-0.40625 -1.015625 -1.234375 -1.578125q-0.8125 -0.578125 -2.09375 -0.578125zm22.574219 13.6875q-2.84375 0 -4.5 -1.9375q-1.65625 -1.953125 -1.65625 -5.78125q0 -3.875 1.6875 -5.84375q1.703125 -1.984375 4.515625 -1.984375q1.1875 0 2.078125 0.328125q0.890625 0.3125 1.53125 0.84375q0.640625 0.515625 1.078125 1.1875l0.171875 0q-0.0625 -0.421875 -0.125 -1.15625q-0.046875 -0.75 -0.046875 -1.203125l0 -6.015625l2.265625 0l0 21.28125l-1.828125 0l-0.34375 -2.140625l-0.09375 0q-0.421875 0.671875 -1.078125 1.21875q-0.640625 0.546875 -1.546875 0.875q-0.890625 0.328125 -2.109375 0.328125zm0.359375 -1.890625q2.40625 0 3.40625 -1.359375q1.0 -1.375 1.0 -4.078125l0 -0.40625q0 -2.859375 -0.953125 -4.390625q-0.953125 -1.53125 -3.453125 -1.53125q-2.09375 0 -3.140625 1.609375q-1.03125 1.609375 -1.03125 4.375q0 2.765625 1.03125 4.28125q1.03125 1.5 3.140625 1.5zm38.19336 1.578125l-2.671875 -8.71875q-0.171875 -0.5625 -0.328125 -1.09375q-0.15625 -0.546875 -0.296875 -1.046875q-0.125 -0.5 -0.234375 -0.921875q-0.09375 -0.4375 -0.171875 -0.75l-0.09375 0q-0.046875 0.3125 -0.140625 0.75q-0.09375 0.421875 -0.234375 0.9375q-0.125 0.5 -0.28125 1.0625q-0.140625 0.546875 -0.34375 1.109375l-2.78125 8.671875l-2.5625 0l-4.125 -14.984375l2.359375 0l2.15625 8.28125q0.21875 0.8125 0.40625 1.609375q0.203125 0.796875 0.34375 1.515625q0.15625 0.703125 0.21875 1.21875l0.109375 0q0.078125 -0.34375 0.171875 -0.8125q0.109375 -0.484375 0.234375 -1.015625q0.140625 -0.546875 0.28125 -1.09375q0.15625 -0.546875 0.3125 -1.015625l2.765625 -8.6875l2.4375 0l2.671875 8.671875q0.203125 0.65625 0.390625 1.375q0.203125 0.703125 0.359375 1.375q0.171875 0.65625 0.25 1.171875l0.109375 0q0.046875 -0.46875 0.1875 -1.140625q0.15625 -0.6875 0.359375 -1.5q0.203125 -0.828125 0.421875 -1.671875l2.1875 -8.28125l2.3125 0l-4.140625 14.984375l-2.640625 0zm19.033203 -14.953125l0 14.984375l-2.265625 0l0 -14.984375l2.265625 0zm-1.09375 -5.609375q0.546875 0 0.953125 0.375q0.40625 0.359375 0.40625 1.125q0 0.75 -0.40625 1.125q-0.40625 0.359375 -0.953125 0.359375q-0.59375 0 -0.984375 -0.359375q-0.390625 -0.375 -0.390625 -1.125q0 -0.765625 0.390625 -1.125q0.390625 -0.375 0.984375 -0.375zm18.013672 19.0q0.5625 0 1.140625 -0.09375q0.59375 -0.09375 0.96875 -0.234375l0 1.765625q-0.40625 0.1875 -1.109375 0.3125q-0.703125 0.125 -1.375 0.125q-1.1875 0 -2.15625 -0.421875q-0.96875 -0.421875 -1.546875 -1.421875q-0.578125 -1.0 -0.578125 -2.765625l0 -8.875l-2.140625 0l0 -1.109375l2.140625 -0.890625l0.90625 -3.25l1.375 0l0 3.46875l4.390625 0l0 1.78125l-4.390625 0l0 8.8125q0 1.40625 0.640625 2.109375q0.65625 0.6875 1.734375 0.6875zm14.675781 -19.6875l0 6.359375q0 0.546875 -0.03125 1.109375q-0.015625 0.546875 -0.078125 1.015625l0.140625 0q0.46875 -0.796875 1.1875 -1.328125q0.71875 -0.546875 1.625 -0.828125q0.921875 -0.28125 1.953125 -0.28125q1.796875 0 3.0 0.578125q1.21875 0.578125 1.828125 1.78125q0.609375 1.203125 0.609375 3.109375l0 9.765625l-2.25 0l0 -9.609375q0 -1.875 -0.859375 -2.796875q-0.84375 -0.9375 -2.609375 -0.9375q-1.671875 0 -2.65625 0.640625q-0.984375 0.625 -1.421875 1.859375q-0.4375 1.234375 -0.4375 3.015625l0 7.828125l-2.265625 0l0 -21.28125l2.265625 0zm39.15625 17.171875q0 1.4375 -0.71875 2.421875q-0.71875 0.96875 -2.0625 1.46875q-1.328125 0.5 -3.171875 0.5q-1.578125 0 -2.734375 -0.25q-1.140625 -0.25 -2.0 -0.703125l0 -2.09375q0.921875 0.453125 2.1875 0.828125q1.28125 0.359375 2.59375 0.359375q1.953125 0 2.828125 -0.625q0.875 -0.625 0.875 -1.703125q0 -0.625 -0.359375 -1.09375q-0.34375 -0.46875 -1.171875 -0.90625q-0.8125 -0.453125 -2.265625 -0.984375q-1.4375 -0.546875 -2.484375 -1.078125q-1.03125 -0.546875 -1.609375 -1.328125q-0.5625 -0.78125 -0.5625 -2.03125q0 -1.890625 1.53125 -2.90625q1.546875 -1.03125 4.046875 -1.03125q1.359375 0 2.53125 0.28125q1.1875 0.265625 2.21875 0.703125l-0.765625 1.828125q-0.9375 -0.40625 -2.0 -0.671875q-1.046875 -0.28125 -2.140625 -0.28125q-1.5625 0 -2.40625 0.53125q-0.84375 0.515625 -0.84375 1.421875q0 0.6875 0.390625 1.140625q0.390625 0.453125 1.25 0.859375q0.859375 0.390625 2.265625 0.921875q1.40625 0.515625 2.4375 1.078125q1.03125 0.546875 1.578125 1.34375q0.5625 0.78125 0.5625 2.0zm13.179657 -17.171875l0 6.359375q0 0.546875 -0.03125 1.109375q-0.015625 0.546875 -0.078125 1.015625l0.140625 0q0.46875 -0.796875 1.1875 -1.328125q0.71875 -0.546875 1.625 -0.828125q0.921875 -0.28125 1.953125 -0.28125q1.796875 0 3.0 0.578125q1.21875 0.578125 1.828125 1.78125q0.609375 1.203125 0.609375 3.109375l0 9.765625l-2.25 0l0 -9.609375q0 -1.875 -0.859375 -2.796875q-0.84375 -0.9375 -2.609375 -0.9375q-1.671875 0 -2.65625 0.640625q-0.984375 0.625 -1.421875 1.859375q-0.4375 1.234375 -0.4375 3.015625l0 7.828125l-2.265625 0l0 -21.28125l2.265625 0zm35.101562 13.765625q0 1.84375 -0.484375 3.296875q-0.46875 1.4375 -1.375 2.4375q-0.90625 1.0 -2.1875 1.53125q-1.265625 0.53125 -2.890625 0.53125q-1.5 0 -2.75 -0.53125q-1.25 -0.53125 -2.15625 -1.53125q-0.90625 -1.0 -1.40625 -2.4375q-0.5 -1.453125 -0.5 -3.296875q0 -2.46875 0.828125 -4.1875q0.84375 -1.734375 2.390625 -2.640625q1.546875 -0.921875 3.703125 -0.921875q2.046875 0 3.578125 0.921875q1.546875 0.921875 2.390625 2.65625q0.859375 1.71875 0.859375 4.171875zm-11.40625 0q0 1.796875 0.484375 3.125q0.484375 1.328125 1.46875 2.0625q1.0 0.71875 2.578125 0.71875q1.5625 0 2.5625 -0.71875q1.0 -0.734375 1.484375 -2.0625q0.484375 -1.328125 0.484375 -3.125q0 -1.796875 -0.484375 -3.09375q-0.484375 -1.3125 -1.484375 -2.015625q-0.984375 -0.71875 -2.578125 -0.71875q-2.34375 0 -3.4375 1.546875q-1.078125 1.546875 -1.078125 4.28125zm28.601562 7.796875q-2.015625 0 -3.5625 -0.828125q-1.546875 -0.84375 -2.40625 -2.546875q-0.859375 -1.71875 -0.859375 -4.3125q0 -2.71875 0.90625 -4.453125q0.90625 -1.734375 2.5 -2.5625q1.609375 -0.84375 3.640625 -0.84375q1.125 0 2.171875 0.234375q1.046875 0.21875 1.71875 0.5625l-0.6875 1.90625q-0.6875 -0.28125 -1.578125 -0.5q-0.890625 -0.21875 -1.671875 -0.21875q-1.5625 0 -2.59375 0.671875q-1.03125 0.671875 -1.546875 1.96875q-0.515625 1.296875 -0.515625 3.203125q0 1.8125 0.5 3.109375q0.5 1.28125 1.484375 1.953125q1.0 0.671875 2.484375 0.671875q1.203125 0 2.15625 -0.25q0.953125 -0.25 1.734375 -0.59375l0 2.03125q-0.75 0.375 -1.671875 0.578125q-0.921875 0.21875 -2.203125 0.21875zm16.951172 -21.5625l0 11.046875q0 0.546875 -0.046875 1.34375q-0.046875 0.78125 -0.0625 1.390625l0.09375 0q0.28125 -0.359375 0.828125 -1.046875q0.5625 -0.703125 0.9375 -1.140625l4.984375 -5.296875l2.671875 0l-6.03125 6.390625l6.46875 8.59375l-2.734375 0l-5.296875 -7.09375l-1.8125 1.671875l0 5.421875l-2.265625 0l0 -21.28125l2.265625 0zm31.921875 21.25l-2.671875 -8.71875q-0.171875 -0.5625 -0.328125 -1.09375q-0.15625 -0.546875 -0.296875 -1.046875q-0.125 -0.5 -0.234375 -0.921875q-0.09375 -0.4375 -0.171875 -0.75l-0.09375 0q-0.046875 0.3125 -0.140625 0.75q-0.09375 0.421875 -0.234375 0.9375q-0.125 0.5 -0.28125 1.0625q-0.140625 0.546875 -0.34375 1.109375l-2.78125 8.671875l-2.5625 0l-4.125 -14.984375l2.359375 0l2.15625 8.28125q0.21875 0.8125 0.40625 1.609375q0.203125 0.796875 0.34375 1.515625q0.15625 0.703125 0.21875 1.21875l0.109375 0q0.078125 -0.34375 0.171875 -0.8125q0.109375 -0.484375 0.234375 -1.015625q0.140625 -0.546875 0.28125 -1.09375q0.15625 -0.546875 0.3125 -1.015625l2.765625 -8.6875l2.4375 0l2.671875 8.671875q0.203125 0.65625 0.390625 1.375q0.203125 0.703125 0.359375 1.375q0.171875 0.65625 0.25 1.171875l0.109375 0q0.046875 -0.46875 0.1875 -1.140625q0.15625 -0.6875 0.359375 -1.5q0.203125 -0.828125 0.421875 -1.671875l2.1875 -8.28125l2.3125 0l-4.140625 14.984375l-2.640625 0zm22.376953 -15.203125q2.671875 0 3.96875 1.203125q1.3125 1.203125 1.3125 3.84375l0 10.1875l-1.65625 0l-0.4375 -2.21875l-0.109375 0q-0.625 0.828125 -1.3125 1.390625q-0.6875 0.546875 -1.59375 0.828125q-0.890625 0.28125 -2.1875 0.28125q-1.359375 0 -2.421875 -0.484375q-1.0625 -0.484375 -1.671875 -1.453125q-0.609375 -0.96875 -0.609375 -2.453125q0 -2.25 1.78125 -3.453125q1.78125 -1.203125 5.421875 -1.3125l2.578125 -0.109375l0 -0.921875q0 -1.9375 -0.84375 -2.71875q-0.828125 -0.78125 -2.34375 -0.78125q-1.171875 0 -2.25 0.34375q-1.0625 0.34375 -2.015625 0.8125l-0.703125 -1.71875q1.015625 -0.53125 2.328125 -0.890625q1.3125 -0.375 2.765625 -0.375zm3.03125 7.84375l-2.28125 0.109375q-2.796875 0.109375 -3.953125 0.921875q-1.140625 0.796875 -1.140625 2.265625q0 1.296875 0.765625 1.90625q0.78125 0.609375 2.078125 0.609375q1.984375 0 3.25 -1.09375q1.28125 -1.109375 1.28125 -3.328125l0 -1.390625zm17.488281 7.390625l-5.6875 -14.984375l2.4375 0l3.296875 9.0625q0.34375 0.9375 0.6875 2.0625q0.359375 1.109375 0.5 1.796875l0.09375 0q0.15625 -0.6875 0.53125 -1.8125q0.390625 -1.125 0.71875 -2.046875l3.28125 -9.0625l2.4375 0l-5.703125 14.984375l-2.59375 0zm23.728516 -15.265625q1.921875 0 3.28125 0.859375q1.375 0.84375 2.09375 2.375q0.734375 1.515625 0.734375 3.546875l0 1.421875l-10.359375 0q0.046875 2.625 1.3125 4.015625q1.28125 1.375 3.59375 1.375q1.421875 0 2.515625 -0.25q1.09375 -0.265625 2.265625 -0.765625l0 1.984375q-1.140625 0.515625 -2.25 0.75q-1.109375 0.234375 -2.640625 0.234375q-2.15625 0 -3.765625 -0.875q-1.59375 -0.890625 -2.484375 -2.59375q-0.890625 -1.71875 -0.890625 -4.203125q0 -2.40625 0.8125 -4.171875q0.8125 -1.78125 2.296875 -2.734375q1.484375 -0.96875 3.484375 -0.96875zm-0.015625 1.859375q-1.828125 0 -2.90625 1.203125q-1.078125 1.1875 -1.28125 3.3125l7.921875 0q0 -1.34375 -0.40625 -2.359375q-0.40625 -1.015625 -1.234375 -1.578125q-0.8125 -0.578125 -2.09375 -0.578125zm36.61328 13.40625l-13.109375 0l0 -1.90625l5.359375 -5.421875q1.484375 -1.5 2.5 -2.671875q1.015625 -1.1875 1.546875 -2.328125q0.546875 -1.140625 0.546875 -2.5q0 -1.703125 -1.015625 -2.59375q-1.0 -0.90625 -2.640625 -0.90625q-1.4375 0 -2.546875 0.5q-1.109375 0.484375 -2.265625 1.390625l-1.21875 -1.53125q0.796875 -0.671875 1.734375 -1.1875q0.9375 -0.515625 2.0 -0.8125q1.078125 -0.3125 2.296875 -0.3125q1.84375 0 3.1875 0.65625q1.34375 0.640625 2.0625 1.828125q0.734375 1.1875 0.734375 2.828125q0 1.578125 -0.625 2.9375q-0.625 1.359375 -1.765625 2.703125q-1.140625 1.328125 -2.65625 2.8125l-4.34375 4.34375l0 0.09375l10.21875 0l0 2.078125z" fill-rule="nonzero"/><defs><radialGradient id="p.2" gradientUnits="userSpaceOnUse" gradientTransform="matrix(24.415097579763966 0.0 0.0 24.415097579763966 0.0 0.0)" spreadMethod="pad" cx="-0.07745519383273022" cy="-4.574102765286198" fx="-0.07745519383273022" fy="-4.574102765286198" r="24.415098190307617"><stop offset="0.0" stop-color="#ffffff" stop-opacity="0.62352943"/><stop offset="0.63" stop-color="#ffffff" stop-opacity="0.0"/><stop offset="1.0" stop-color="#ffffff" stop-opacity="0.0"/></radialGradient></defs><path fill="url(#p.2)" d="m-423.89108 -111.67716l0 0c0 -232.51624 188.93584 -421.0079 422.0 -421.0079l0 0c111.92136 0 219.25871 44.35608 298.39908 123.31036c79.14035 78.954285 123.60092 186.03929 123.60092 297.69754l0 0c0 232.51624 -188.93582 421.00787 -422.0 421.00787l0 0c-233.06416 0 -422.0 -188.49165 -422.0 -421.00787z" fill-rule="evenodd"/><defs><radialGradient id="p.3" gradientUnits="userSpaceOnUse" gradientTransform="matrix(24.415097579763966 0.0 0.0 24.415097579763966 0.0 0.0)" spreadMethod="pad" cx="39.39738815185946" cy="-5.3690800843604745" fx="39.39738815185946" fy="-5.3690800843604745" r="24.415098190307617"><stop offset="0.0" stop-color="#ffffff" stop-opacity="0.62352943"/><stop offset="0.63" stop-color="#ffffff" stop-opacity="0.0"/><stop offset="1.0" stop-color="#ffffff" stop-opacity="0.0"/></radialGradient></defs><path fill="url(#p.3)" d="m539.89105 -131.08661l0 0c0 -232.51624 188.93585 -421.00787 422.0 -421.00787l0 0c111.921326 0 219.25873 44.35605 298.3991 123.31033c79.14038 78.954315 123.60095 186.0393 123.60095 297.69754l0 0c0 232.51622 -188.93591 421.00787 -422.00006 421.00787l0 0c-233.06415 0 -422.0 -188.49165 -422.0 -421.00787z" fill-rule="evenodd"/><defs><radialGradient id="p.4" gradientUnits="userSpaceOnUse" gradientTransform="matrix(24.415097579763966 0.0 0.0 24.415097579763966 0.0 0.0)" spreadMethod="pad" cx="-0.07874521787990958" cy="26.909256612137753" fx="-0.07874521787990958" fy="26.909256612137753" r="24.415098190307617"><stop offset="0.0" stop-color="#000000" stop-opacity="0.62352943"/><stop offset="0.63" stop-color="#000000" stop-opacity="0.0"/><stop offset="0.63000005" stop-color="#ffffff" stop-opacity="0.0"/><stop offset="1.0" stop-color="#ffffff" stop-opacity="0.0"/></radialGradient></defs><path fill="url(#p.4)" d="m-423.92258 656.9921l0 0c0 -232.51624 188.93584 -421.00787 422.0 -421.00787l0 0c111.92136 0 219.25871 44.35605 298.39908 123.31036c79.14035 78.954285 123.60092 186.0393 123.60092 297.6975l0 0c0 232.51624 -188.93584 421.00787 -422.0 421.00787l0 0c-233.06416 0 -422.0 -188.49164 -422.0 -421.00787z" fill-rule="evenodd"/><defs><radialGradient id="p.5" gradientUnits="userSpaceOnUse" gradientTransform="matrix(24.415097579763966 0.0 0.0 24.415097579763966 0.0 0.0)" spreadMethod="pad" cx="39.39609812781228" cy="26.114279293063476" fx="39.39609812781228" fy="26.114279293063476" r="24.415098190307617"><stop offset="0.0" stop-color="#000000" stop-opacity="0.62352943"/><stop offset="0.63" stop-color="#000000" stop-opacity="0.0"/><stop offset="0.63000005" stop-color="#ffffff" stop-opacity="0.0"/><stop offset="1.0" stop-color="#ffffff" stop-opacity="0.0"/></radialGradient></defs><path fill="url(#p.5)" d="m539.85956 637.5827l0 0c0 -232.51627 188.93585 -421.0079 422.0 -421.0079l0 0c111.921326 0 219.25873 44.35608 298.3991 123.31036c79.14038 78.954285 123.60095 186.03928 123.60095 297.69754l0 0c0 232.51617 -188.93591 421.00787 -422.00006 421.00787l0 0c-233.06415 0 -422.0 -188.4917 -422.0 -421.00787z" fill-rule="evenodd"/></g></svg>