<svg version="1.1" xmlns="http://www.w3.org/2000/svg" xmlns:xlink="http://www.w3.org/1999/xlink" width="50.0847" height="31.17045" viewBox="0,0,50.0847,31.17045"><defs><radialGradient cx="237.3526" cy="151.8953" r="11.5563" gradientUnits="userSpaceOnUse" id="color-1"><stop offset="0" stop-color="#666666"/><stop offset="1" stop-color="#666666" stop-opacity="0"/></radialGradient><linearGradient x1="250.6992" y1="146.4601" x2="263.5977" y2="146.4601" gradientUnits="userSpaceOnUse" id="color-2"><stop offset="0" stop-color="#666666"/><stop offset="1" stop-color="#666666" stop-opacity="0"/></linearGradient><radialGradient cx="217.4301" cy="151.1162" r="19.3856" gradientUnits="userSpaceOnUse" id="color-3"><stop offset="0" stop-color="#666666"/><stop offset="1" stop-color="#666666" stop-opacity="0"/></radialGradient><radialGradient cx="216.12306" cy="152.03576" r="15.57002" gradientUnits="userSpaceOnUse" id="color-4"><stop offset="0" stop-color="#666666"/><stop offset="1" stop-color="#666666" stop-opacity="0"/></radialGradient></defs><g transform="translate(-213.513,-129.67955)"><g data-paper-data="{&quot;isPaintingLayer&quot;:true}" fill-rule="nonzero" stroke-linejoin="miter" stroke-miterlimit="10" stroke-dasharray="" stroke-dashoffset="0" style="mix-blend-mode: normal"><path d="M241.6,145.1c0.796,-0.108 1.623,0.683 2.25,1.25c0.553,0.501 1.142,1.113 1.75,1.75c0.235,0.476 0.431,0.945 0.75,1.55c0.397,0.833 0.869,1.944 0.75,2.7c-0.073,0.304 -0.72,0.442 -1,0.25c-0.538,-0.4 -0.469,-1.228 -1,-1.25c-0.712,-0.03 -1.049,1.104 -1.75,1.25c-1.869,0.389 -4.117,-0.35 -6,0.5c-1.203,0.511 -1.337,2.356 -2.5,3.25c-0.451,0.358 -1.604,0.562 -1.75,0c-0.392,-1.543 -0.495,-3.27 0.25,-4.5c1.263,-2.015 3.618,-3.111 5.319,-4.497c0.954,-0.778 1.736,-2.072 2.931,-2.253z" fill="url(#color-1)" stroke="none" stroke-width="1" stroke-linecap="round"/><path d="M257.1,146.6c0.765,0.296 1.063,1.31 1.5,2c0.948,1.48 1.406,0.955 2,1.25c0.999,0.497 2.194,1.001 2.75,2c0.392,1.072 0.326,2.629 -0.25,3.5c-0.318,0.42 -1.142,0.347 -1.5,0c-0.662,-0.64 -0.057,-2.101 -0.75,-2.5c-1.971,-0.838 -4.369,-0.136 -6.25,-0.75c-1.251,-0.407 -2.168,-1.235 -3.25,-2.25c-0.491,-0.474 -0.875,-1.34 -0.5,-2c0.527,-0.841 1.963,-0.819 3,-1c1.05,-0.178 2.232,-0.612 3.25,-0.25z" fill="url(#color-2)" stroke="none" stroke-width="1" stroke-linecap="round"/><path d="M253.3809,146.0479c0.671,-0.1812 1.411,-0.4408 2.218,-0.4068c0.3362,0.0933 0.8391,0.3766 0.9664,0.7611c0.1096,0.3436 -0.1805,0.6564 -0.657,0.9864c-0.4764,0.3311 -1.1725,0.6373 -1.9752,0.8405c-0.8026,0.2032 -1.448,0.2005 -2.1371,0.2007c-0.293,-0.0084 -0.6185,0.1318 -0.7122,-0.0466c-0.0833,-0.5205 -0.0386,-1.159 0.322,-1.4948c0.5001,-0.4732 1.2745,-0.6538 1.9751,-0.8405z" fill="#ec431f" stroke="none" stroke-width="1" stroke-linecap="round"/><path d="M238.4663,148.4227c0.7359,-0.0396 1.5607,-0.1417 2.3898,0.0572c0.3278,0.1604 0.7863,0.5409 0.8329,0.9434c0.0374,0.3588 -0.3329,0.6054 -0.9003,0.8306c-0.5673,0.2262 -1.357,0.383 -2.2343,0.4171c-0.8773,0.0341 -1.5459,-0.101 -2.2602,-0.2424c-0.302,-0.0683 -0.6706,0.0021 -0.7281,-0.1918c0.0293,-0.5265 0.2174,-1.1423 0.6658,-1.3969c0.6236,-0.3605 1.4666,-0.3783 2.2344,-0.4172z" fill="#ec431f" stroke="none" stroke-width="1.03061" stroke-linecap="round"/><path d="M219.1,146.85c0.753,-0.475 1.451,-1.158 1.5,-2c0.561,-2.29 -0.097,-4.693 0.25,-7c0.087,-0.577 0.622,-1.086 1.25,-1c1.981,0.305 4.73,0.802 5.5,2.5c0.632,1.423 -1.025,3.013 -2,4.25c-0.539,0.678 -1.692,0.086 -2.5,0.75c-1.194,0.984 -2.066,2.207 -2.75,3.75c-0.411,0.924 -1.143,2.828 -0.5,3c0.988,0.233 2.271,-1.268 3.5,-1.75c0.691,-0.269 1.707,-0.227 2.242,0.042c0.944,0.497 2.181,1.051 2.508,2.058c-0.229,1.901 -1.607,1.344 -2,2c-0.616,0.987 0.186,2.77 -0.75,3.5c-2.786,-0.037 -3.065,-0.005 -3.75,0.4c-0.918,0.688 -1.333,1.931 -2.5,2.5c-0.692,0.293 -1.929,0.19 -2.25,-0.5c-0.466,-1.051 -0.32,-2.221 0,-3.25c0.243,-0.724 1.235,-0.918 1,-1.5c0.129,-0.797 -0.871,-1.144 -1.25,-1.75c-0.72,-1.165 -2.499,-2.643 -2,-4c0.509,-1.323 3.116,-1.115 4.5,-2z" fill="url(#color-3)" stroke="url(#color-4)" stroke-width="2" stroke-linecap="round"/><path d="M223.9163,150.6727c0.7359,-0.0396 1.5607,-0.1417 2.3898,0.0572c0.3278,0.1604 1.1445,0.7451 0.8329,0.9434c-0.6929,0.4362 -2.0105,0.1472 -3.06,0.4442c-0.1885,0.0374 -0.189,0.4307 -0.5102,0.5202c-0.584,0.1528 -1.1357,-0.0069 -1.8246,0.0409c-0.25,0.0128 -0.6706,0.0021 -0.7281,-0.1918c0.0293,-0.5265 0.2174,-1.1423 0.6658,-1.3969c0.6236,-0.3605 1.4666,-0.3783 2.2344,-0.4172z" fill="#ec431f" stroke="none" stroke-width="1.03061" stroke-linecap="round"/><path d="M219.6,139.5c0.269,-0.343 0.955,-1.168 1,-0.75c0.412,2.206 0.33,4.497 0,6.5c-0.167,0.985 -0.44,2.161 -1.25,2.75c-1.129,0.766 -3.069,1.41 -4.5,1c-0.639,-0.209 -0.262,-1.552 0,-2.25c0.34,-0.877 0.671,-1.626 1.25,-2.25c0.728,-0.765 1.617,-1.231 2.25,-2c0.621,-0.773 0.616,-2.129 1.25,-3z" fill="#ec431f" stroke="none" stroke-width="1" stroke-linecap="round"/><path d="M240.85,134c1.407,-0.986 1.288,-3.583 2.75,-4.25c1.339,-0.342 3.65,1.093 3.5,2c-0.243,1.183 -2.684,1.446 -3.75,2.5c-1.429,1.39 -1.531,3.905 -3.25,4.75c-1.433,0.701 -3.596,-0.129 -5.25,-0.75c-0.544,-0.206 -1.129,-1.096 -1,-1.75c0.354,-0.553 1.363,-0.494 2,-0.75c1.636,-0.66 3.575,-0.747 5,-1.75z" fill="#666666" stroke="none" stroke-width="1" stroke-linecap="round"/><path d="M240.8386,131.5061c0.5392,-0.6234 1.1973,-1.2219 1.9779,-1.5298c0.7296,-0.2708 1.7105,-0.504 1.9912,0.0006c0.3166,0.6207 0.2302,1.6703 -0.2417,2.2497c-0.5345,0.6325 -1.7694,0.45 -2.4561,1.0163c-1.245,1.0034 -2.0638,2.8718 -3.5229,3.9952c-0.3093,0.1516 -0.9943,-0.3302 -0.9866,-0.7461c0.0581,-0.8521 0.959,-1.6308 1.4747,-2.4729c0.5421,-0.8684 1.0994,-1.7466 1.7635,-2.513z" fill="#ec431f" stroke="none" stroke-width="1" stroke-linecap="butt"/></g></g></svg>