<svg version="1.1" xmlns="http://www.w3.org/2000/svg" xmlns:xlink="http://www.w3.org/1999/xlink" width="717.68589" height="437.26045" viewBox="0,0,717.68589,437.26045"><defs><linearGradient x1="239.42439" y1="133.87933" x2="239.42439" y2="139.37933" gradientUnits="userSpaceOnUse" id="color-1"><stop offset="0" stop-color="#e8f2ff" stop-opacity="0"/><stop offset="1" stop-color="#e8f2ff" stop-opacity="0.52549"/></linearGradient><linearGradient x1="239.83136" y1="139.43238" x2="239.83136" y2="532.4689" gradientUnits="userSpaceOnUse" id="color-2"><stop offset="0" stop-color="#adb4bf"/><stop offset="1" stop-color="#737880"/></linearGradient><linearGradient x1="239.15215" y1="325.95544" x2="239.15215" y2="139.45747" gradientUnits="userSpaceOnUse" id="color-3"><stop offset="0" stop-color="#e6f0ff" stop-opacity="0"/><stop offset="1" stop-color="#e6f0ff" stop-opacity="0.39608"/></linearGradient><linearGradient x1="232.91349" y1="215.65785" x2="232.91349" y2="139.11002" gradientUnits="userSpaceOnUse" id="color-4"><stop offset="0" stop-color="#e5efff" stop-opacity="0"/><stop offset="1" stop-color="#e5efff" stop-opacity="0.41961"/></linearGradient><linearGradient x1="238.16674" y1="95.20846" x2="238.16674" y2="139.18194" gradientUnits="userSpaceOnUse" id="color-5"><stop offset="0" stop-color="#e8f1ff" stop-opacity="0"/><stop offset="1" stop-color="#e8f1ff" stop-opacity="0.89412"/></linearGradient><linearGradient x1="241.83326" y1="182.9741" x2="241.83326" y2="139.00062" gradientUnits="userSpaceOnUse" id="color-6"><stop offset="0" stop-color="#e8f1ff" stop-opacity="0"/><stop offset="1" stop-color="#e8f1ff" stop-opacity="0.89412"/></linearGradient></defs><g transform="translate(121.46957,-95.20845)"><g data-paper-data="{&quot;isPaintingLayer&quot;:true}" fill-rule="nonzero" stroke-width="0" stroke-linecap="butt" stroke-linejoin="miter" stroke-miterlimit="10" stroke-dasharray="" stroke-dashoffset="0" style="mix-blend-mode: normal"><path d="M-114.95867,139.37933v-5.5h708.76614v5.5z" fill="url(#color-1)" stroke="none"/><path d="M-115.13932,532.4689v-393.03653h709.9414v393.03653z" fill="url(#color-2)" stroke="#000000"/><path d="M594.55229,139.45747v186.49795h-710.80041v-186.49795z" fill="url(#color-3)" stroke="none"/><path d="M227.35978,139.11002c119.03875,0 359.9368,0 359.9368,0v76.54785h-708.76614v-76.54785c0,0 231.64172,0 348.82934,0z" fill="url(#color-4)" stroke="none"/><g stroke="none"><path d="M-116.21632,139.18194v-43.97349h708.76614v43.97349c0,0 -240.89805,0 -359.9368,0c-117.18762,0 -348.82934,0 -348.82934,0z" fill="url(#color-5)"/><path d="M596.21632,139.00062l0,43.97349l-708.76614,0v-43.97349c0,0 240.89805,0 359.9368,0c117.18762,0 348.82934,0 348.82934,0z" fill="url(#color-6)"/></g></g></g></svg>