<svg version="1.1" xmlns="http://www.w3.org/2000/svg" xmlns:xlink="http://www.w3.org/1999/xlink" width="443.99261" height="281.86293" viewBox="0,0,443.99261,281.86293"><defs><linearGradient x1="269.62125" y1="48.00622" x2="303.28888" y2="69.59252" gradientUnits="userSpaceOnUse" id="color-1"><stop offset="0" stop-color="#151413"/><stop offset="1" stop-color="#090807"/></linearGradient><radialGradient cx="245.81383" cy="36.77051" r="5.65393" gradientUnits="userSpaceOnUse" id="color-2"><stop offset="0" stop-color="#000000" stop-opacity="0.25882"/><stop offset="1" stop-color="#000000" stop-opacity="0"/></radialGradient><linearGradient x1="261.54148" y1="43.81157" x2="250.77034" y2="32.60607" gradientUnits="userSpaceOnUse" id="color-3"><stop offset="0" stop-color="#000000" stop-opacity="0.25882"/><stop offset="1" stop-color="#000000" stop-opacity="0"/></linearGradient><radialGradient cx="261.35281" cy="101.04745" r="32.05835" gradientUnits="userSpaceOnUse" id="color-4"><stop offset="0" stop-color="#000000" stop-opacity="0.38824"/><stop offset="1" stop-color="#000000" stop-opacity="0"/></radialGradient><radialGradient cx="300.47191" cy="71.32889" r="23.76957" gradientUnits="userSpaceOnUse" id="color-5"><stop offset="0" stop-color="#000000" stop-opacity="0.07843"/><stop offset="1" stop-color="#000000" stop-opacity="0"/></radialGradient><radialGradient cx="307.18925" cy="79.53505" r="24.60254" gradientUnits="userSpaceOnUse" id="color-6"><stop offset="0" stop-color="#000000" stop-opacity="0.07843"/><stop offset="1" stop-color="#000000" stop-opacity="0"/></radialGradient><radialGradient cx="318.82716" cy="88.30776" r="28.61592" gradientUnits="userSpaceOnUse" id="color-7"><stop offset="0" stop-color="#000000" stop-opacity="0.07843"/><stop offset="1" stop-color="#000000" stop-opacity="0"/></radialGradient><radialGradient cx="330.1517" cy="97.85772" r="31.34199" gradientUnits="userSpaceOnUse" id="color-8"><stop offset="0" stop-color="#000000" stop-opacity="0.07843"/><stop offset="1" stop-color="#000000" stop-opacity="0"/></radialGradient><radialGradient cx="339.85317" cy="109.20935" r="31.34199" gradientUnits="userSpaceOnUse" id="color-9"><stop offset="0" stop-color="#000000" stop-opacity="0.07843"/><stop offset="1" stop-color="#000000" stop-opacity="0"/></radialGradient><linearGradient x1="250.20547" y1="99.41296" x2="262.79553" y2="74.7423" gradientUnits="userSpaceOnUse" id="color-10"><stop offset="0" stop-color="#000000" stop-opacity="0.37647"/><stop offset="1" stop-color="#000000" stop-opacity="0"/></linearGradient><radialGradient cx="240.16771" cy="69.8027" r="6.98603" gradientUnits="userSpaceOnUse" id="color-11"><stop offset="0" stop-color="#000000" stop-opacity="0.37255"/><stop offset="1" stop-color="#000000" stop-opacity="0"/></radialGradient><linearGradient x1="247.77237" y1="85.22135" x2="274.82584" y2="61.37971" gradientUnits="userSpaceOnUse" id="color-12"><stop offset="0" stop-color="#000000" stop-opacity="0.4"/><stop offset="1" stop-color="#000000" stop-opacity="0"/></linearGradient><radialGradient cx="243.11066" cy="103.26512" r="23.68114" gradientUnits="userSpaceOnUse" id="color-13"><stop offset="0" stop-color="#000000" stop-opacity="0.46667"/><stop offset="1" stop-color="#000000" stop-opacity="0"/></radialGradient><linearGradient x1="250.13168" y1="70.68442" x2="243.06521" y2="106.12074" gradientUnits="userSpaceOnUse" id="color-14"><stop offset="0" stop-color="#151413"/><stop offset="1" stop-color="#090807"/></linearGradient><linearGradient x1="326.48553" y1="72.26896" x2="326.48553" y2="243.54339" gradientUnits="userSpaceOnUse" id="color-15"><stop offset="0" stop-color="#000000" stop-opacity="0"/><stop offset="1" stop-color="#000000" stop-opacity="0.4902"/></linearGradient><linearGradient x1="412.46315" y1="194.15607" x2="274.6307" y2="25.35004" gradientUnits="userSpaceOnUse" id="color-16"><stop offset="0" stop-color="#000000" stop-opacity="0.37647"/><stop offset="1" stop-color="#000000" stop-opacity="0"/></linearGradient></defs><g transform="translate(-15.04879,-24.48467)"><g data-paper-data="{&quot;isPaintingLayer&quot;:true}" fill-rule="nonzero" stroke-linejoin="miter" stroke-miterlimit="10" stroke-dasharray="" stroke-dashoffset="0" style="mix-blend-mode: normal"><path d="M303.28888,69.59252c-2.73413,4.26435 -12.48733,2.88904 -21.78439,-3.07185c-9.29706,-5.96089 -14.61737,-14.25009 -11.88324,-18.51444c2.73413,-4.26435 12.48733,-2.88904 21.78439,3.07185c9.29706,5.96089 14.61737,14.25009 11.88324,18.51444z" fill="url(#color-1)" stroke="none" stroke-width="0" stroke-linecap="butt"/><path d="M364.221,215.46914l-24.75619,-73.51838l81.02026,-2.62566c0,0 37.88447,26.8904 37.88447,27.75694c0,5.61582 -12.84508,37.90745 -12.84508,37.90745z" fill="#616161" stroke="none" stroke-width="0" stroke-linecap="butt"/><path d="M241.99148,32.84221l2.95246,3.2477" fill="none" stroke="#656565" stroke-width="12" stroke-linecap="round"/><path d="M239.39252,36.38021c0,-3.22295 2.61271,-5.83566 5.83566,-5.83566c3.22295,0 5.83566,2.61271 5.83566,5.83566c0,3.22295 -2.61271,5.83566 -5.83566,5.83566c-3.22295,0 -5.83566,-2.61271 -5.83566,-5.83566z" fill="#5d5d5d" stroke="none" stroke-width="0" stroke-linecap="butt"/><path d="M240.15989,42.4992v-11.45737h11.30787v11.45738z" fill="url(#color-2)" stroke="none" stroke-width="0" stroke-linecap="butt"/><path d="M258.54441,52.79047l-12.17888,-14.61466" fill="none" stroke="#6d6d6d" stroke-width="7.5" stroke-linecap="round"/><path d="M242.93595,39.78151c0,0 -1.02059,-3.12155 1.0615,-4.56912c2.93914,-2.04343 5.15768,0.47635 5.15768,0.47635l3.26041,3.85595l-5.97079,4.6153z" fill="url(#color-3)" stroke="none" stroke-width="0" stroke-linecap="butt"/><g fill="#727272" stroke="none" stroke-width="0" stroke-linecap="butt"><path d="M283.71137,59.19499c0,12.36299 -9.63372,22.38517 -21.51752,22.38517c-11.8838,0 -21.51752,-10.02218 -21.51752,-22.38517c0,-12.36299 9.63372,-22.38517 21.51752,-22.38517c11.8838,0 21.51752,10.02218 21.51752,22.38517z"/><path d="M263.58214,107.26237l-20.47635,-38.17625l33.31745,-26.72338l34.01157,21.51753z"/></g><path d="M322.58179,90.25658c0,18.40072 -14.37289,33.31746 -32.10276,33.31746c-17.72986,0 -32.10276,-14.91673 -32.10276,-33.31746c0,-18.40072 14.37289,-33.31746 32.10276,-33.31746c17.72986,0 32.10276,14.91673 32.10276,33.31746z" fill="#5b5b5b" stroke="none" stroke-width="0" stroke-linecap="butt"/><path d="M254.19742,38.48692l-1.19143,1.2811l0.45332,-11.55443l7.31801,-0.81193l1.77148,9.83046z" fill="#5d5d5d" stroke="none" stroke-width="0" stroke-linecap="butt"/><path d="M253.58775,29.01988l-0.22143,-4.2946h2.22502l0.07381,3.85173z" fill="#5d5d5d" stroke="none" stroke-width="0" stroke-linecap="butt"/><path d="M258.44852,90.34757c0,-18.46385 14.35301,-33.43177 32.05835,-33.43177c17.70533,0 32.05834,14.96792 32.05834,33.43178c0,18.46385 -14.35301,33.43177 -32.05834,33.43177c-17.70533,0 -32.05835,-14.96792 -32.05835,-33.43177z" fill="url(#color-4)" stroke="none" stroke-width="0" stroke-linecap="butt"/><path d="M258.73537,28.26259l-0.51668,-3.70411l1.92978,-0.07381l0.59049,3.77792z" fill="#5d5d5d" stroke="none" stroke-width="0" stroke-linecap="butt"/><path d="M277.09473,109.03933l-10.75876,-19.08813l4.98627,-17.5901l115.16545,132.86346l-1.20005,32.82084z" fill="#666666" stroke="none" stroke-width="0" stroke-linecap="butt"/><path d="M317.04841,235.6758l-34.26453,-47.00092c0,0 0.37075,-26.79615 0.30446,-27.60111c-0.53099,-6.44774 -16.68172,-71.12525 -16.68172,-71.12525l89.14207,110.16092l34.83248,44.14439z" fill="#616161" stroke="none" stroke-width="0" stroke-linecap="butt"/><path d="M277.26698,74.60357c1.27791,-1.29707 12.30449,-3.75877 25.36876,-4.57312c13.06427,-0.81435 22.769,-1.47313 21.49109,-0.17606c-1.24845,1.26716 -25.36752,4.40433 -25.66879,4.42311c-13.06427,0.81434 -22.46897,1.62313 -21.19106,0.32606z" fill="url(#color-5)" stroke="none" stroke-width="0" stroke-linecap="butt"/><path d="M283.17116,84.00517c1.32269,-1.77058 12.73568,-5.13095 26.25777,-6.24258c13.52208,-1.11163 23.56691,-2.0109 22.24422,-0.24032c-1.2922,1.72975 -26.25649,6.01218 -26.56832,6.03781c-13.52208,1.11163 -23.25636,2.21568 -21.93367,0.4451z" fill="url(#color-6)" stroke="none" stroke-width="0" stroke-linecap="butt"/><path d="M290.89107,93.25608c1.53846,-1.95999 14.81323,-5.67983 30.54117,-6.91038c15.72793,-1.23054 27.41135,-2.22601 25.87289,-0.26603c-1.503,1.91479 -30.53969,6.65532 -30.90238,6.6837c-15.72794,1.23054 -27.05015,2.45269 -25.51169,0.49271z" fill="url(#color-7)" stroke="none" stroke-width="0" stroke-linecap="butt"/><path d="M333.00489,95.89566c17.22624,-1.23055 30.02268,-2.22602 28.33766,-0.26604c-1.64617,1.91478 -33.44903,6.65532 -33.84627,6.6837c-17.22624,1.23055 -29.62706,2.45269 -27.94204,0.49271c1.68502,-1.95998 16.2244,-5.67982 33.45065,-6.91037z" fill="url(#color-8)" stroke="none" stroke-width="0" stroke-linecap="butt"/><path d="M342.70638,107.2473c17.22624,-1.23055 30.02268,-2.22602 28.33766,-0.26604c-1.64617,1.91478 -33.44903,6.65532 -33.84627,6.6837c-17.22624,1.23055 -29.62706,2.45269 -27.94204,0.49271c1.68502,-1.95998 16.2244,-5.67982 33.45065,-6.91037z" fill="url(#color-9)" stroke="none" stroke-width="0" stroke-linecap="butt"/><g fill="none" stroke="#5f5f5f" stroke-width="3" stroke-linecap="round"><path d="M253.40838,84.60618c0,0 -2.86471,-11.9205 11.53352,-24.07147c14.04401,-11.85203 25.53013,-7.60651 25.53013,-7.60651"/><path d="M246.57035,71.55923c0,0 -2.39459,-10.13115 9.64077,-20.45817c11.73927,-10.07295 20.21698,-7.10724 20.21698,-7.10724"/><path d="M242.35063,62.67696c0,0 -2.13223,-8.62278 8.58446,-17.41228c10.45304,-8.57326 18.00188,-6.0491 18.00188,-6.0491"/></g><path d="M257.6572,110.84286c-2.22858,-1.77493 -8.29841,-17.03756 -10.57462,-20.33026c-7.47922,-10.81918 -3.24262,-18.16927 -0.63679,-25.32157c1.14176,-3.13382 4.60842,-2.72485 7.36165,-2.16275c2.68745,0.54867 8.43377,11.44423 8.43377,11.44423c0,0 -0.79617,1.27969 -1.38379,2.74066c-0.87883,2.18497 -1.62623,5.14381 -1.79973,6.25959c-0.22861,1.47017 -0.58811,3.26371 -0.61765,7.08062c-0.0399,5.15578 1.89684,13.6325 2.64186,13.04281c0.76146,-0.6027 -0.2706,6.95759 -0.2706,6.95759c0,0 1.94002,4.34623 -3.15409,0.28906z" fill="url(#color-10)" stroke="none" stroke-width="NaN" stroke-linecap="butt"/><path d="M234.42927,66.6191c-0.23813,-1.96977 0.20993,-4.84633 2.5587,-5.84768c1.02755,-0.43807 5.57087,0.98982 6.86796,0.91432c4.26198,-0.24809 4.10277,3.28014 4.44508,6.11165c0.14998,1.24065 -1.05491,2.51324 -2.05155,3.46431c-1.27797,1.21954 -4.15519,0.24441 -6.54975,0.3838c-4.26198,0.24809 -4.92813,-2.19488 -5.27044,-5.02639z" fill="url(#color-11)" stroke="none" stroke-width="NaN" stroke-linecap="butt"/><path d="M356.622,131.38764l-0.70597,-9.35404l32.6509,-3.52983l0.88246,8.64808z" fill="#838383" stroke="none" stroke-width="0" stroke-linecap="butt"/><path d="M118.03627,188.43854c17.15035,2.57403 70.14592,54.41723 71.56206,56.99426c-10.90131,17.32857 -24.34161,26.9865 -29.75393,35.43604c-4.46367,0.18651 -22.93342,25.26018 -52.88235,25.46857c-29.94893,0.20839 -52.76996,-2.68463 -78.20146,-17.35328c-25.4315,-14.66865 -7.69502,-33.76335 -7.69502,-33.76335c0,0 37.40778,-20.46409 66.31457,-41.44979c28.05267,-20.36562 30.65613,-25.33246 30.65613,-25.33246z" fill="#383735" stroke="none" stroke-width="0" stroke-linecap="butt"/><path d="M259.38776,98.77141l-20.68394,-36.05709c0,0 1.24695,-7.35948 2.66027,-10.7134c1.28243,-3.0433 5.46523,-8.56896 5.46523,-8.56896c0,0 1.95021,-2.62154 6.08796,-4.23805c4.76446,-1.86136 11.93341,-2.63813 14.17906,-0.63873c1.86075,1.65671 17.10426,7.80226 19.69123,10.74555c2.23568,2.54362 -16.54644,14.97578 -16.54644,14.97578c0,0 -7.06019,5.9738 -9.98004,14.92143c-0.02012,0.06166 -0.03663,0.12452 -0.05462,0.187c-1.35811,4.71822 -1.66585,5.89724 -1.76422,9.44772c-0.16899,5.47033 0.94551,9.93874 0.94551,9.93874z" fill="url(#color-12)" stroke="none" stroke-width="0" stroke-linecap="butt"/><path d="M169.71584,258.11953c-14.03301,1.47246 -62.77992,-34.48992 -64.38386,-36.6684c-13.07548,-17.75913 70.47394,-105.92341 111.54378,-120.23274c3.49107,-1.21634 8.5502,5.56727 14.43976,11.5682c4.22979,4.30976 8.70974,6.25593 14.17516,13.67907c7.24728,9.84327 -12.45266,34.20292 -12.45266,34.20292c0,0 -18.43163,45.99793 -36.05155,74.37501c-10.80038,17.39414 -21.06607,22.4249 -27.27063,23.07594z" fill="#383735" stroke="none" stroke-width="0" stroke-linecap="butt"/><path d="M261.16175,120.35796c0,9.63885 -4.51285,4.49923 -12.84062,8.70064c-3.64324,1.83803 -8.08487,-2.35975 -12.48915,-2.35975c-14.47163,0 -20.96256,-2.13442 -20.96256,-15.99008c0,-6.07094 4.58141,-11.91392 8.32954,-16.25341c4.8062,-5.56449 14.11007,-0.01235 22.24087,-0.01235c14.47163,0 15.72192,12.0593 15.72192,25.91495z" fill="url(#color-13)" stroke="none" stroke-width="NaN" stroke-linecap="butt"/><path d="M261.03911,117.63362c-1.52105,2.4534 -12.5372,11.24939 -13.09187,10.65778c-0.11362,-0.12118 -5.53827,-2.80438 -9.93985,-6.51475c-4.18955,-3.53165 -8.09984,-7.23378 -10.61517,-9.89265c-6.64192,-7.02093 -7.27681,-13.52802 -7.22789,-13.7666c1.08314,-5.28255 4.91092,-10.42496 7.77453,-13.93808c2.31069,-2.83479 5.60505,-18.70746 7.00838,-20.39266c1.04663,-2.93836 4.46801,-12.6269 9.1041,-16.00434c0.94777,-0.69046 4.69523,-2.92395 5.88465,-2.22393c0.96617,0.56862 3.83074,2.20889 4.22987,3.49982c0.63394,2.05039 0.72273,3.31875 -0.37918,4.57744c-1.46958,3.01585 -4.30151,8.80087 -5.71384,11.82486c-0.02827,0.06053 -0.29512,0.71795 -0.32198,0.77588c-0.24477,1.14217 -0.34374,3.27578 -0.46761,4.28453c-0.52016,4.23611 -0.2657,5.88743 -0.2657,5.88743c0,0 11.08282,19.58327 12.36382,21.90466c0.08953,0.16224 1.23071,3.81215 2.90651,7.32335c1.16143,2.43349 3.05984,5.14957 3.05984,5.14957c0,0 -1.48091,2.28671 -4.30861,6.84771z" fill="url(#color-14)" stroke="none" stroke-width="0" stroke-linecap="butt"/><path d="M216.75823,97.2435c2.08013,-1.38675 3.46688,0.69338 3.46688,0.69338l0.38696,0.59246c5.06711,6.51998 11.78266,13.24269 18.31497,18.31663c3.67471,2.85431 7.30451,5.21933 10.45172,8.69968c0,0 1.67241,1.85824 -0.18582,3.53065c-1.85824,1.67241 -3.53065,-0.18582 -3.53065,-0.18582c-2.91919,-3.26101 -6.36555,-5.41946 -9.79025,-8.08635c-6.854,-5.33734 -13.87993,-12.36143 -19.20674,-19.20508l-0.60045,-0.88866c0,0 -1.38675,-2.08013 0.69338,-3.46688z" fill="#2e2d2b" stroke="none" stroke-width="0.5" stroke-linecap="butt"/><path d="M282.01407,188.31284l1.08116,-27.56577c0,0 -3.3603,-15.47126 -5.61676,-25.09324c-3.05502,-13.02723 -11.05471,-45.99725 -11.05471,-45.99725l4.9896,-17.38762l115.13393,133.91206l-1.77005,37.36237l-68.74758,-7.59363z" fill="url(#color-15)" stroke="none" stroke-width="0" stroke-linecap="butt"/><path d="M269.7874,65.60024l38.21449,-2.92532l113.14053,76.69956l-73.7963,13.25633z" fill="#727272" stroke="none" stroke-width="0" stroke-linecap="butt"/><path d="M270.07662,70.76307l-0.31777,-5.15985l79.22715,86.27904l-0.11046,10.55431z" fill="#696969" stroke="none" stroke-width="0" stroke-linecap="butt"/><path d="M445.27512,205.49741c0,0 -15.57009,0.35328 -23.11854,1.2591c-10.00149,1.20018 -30.41068,5.49818 -30.41068,5.49818l-121.67868,-141.43388l-0.29347,-5.18111l39.21037,-3.03103l112.02193,76.7055l-0.27211,0.2058l27.36313,19.5251l10.94433,8.31618z" fill="url(#color-16)" stroke="none" stroke-width="0" stroke-linecap="butt"/><path d="M272.86512,71.74768l0.32481,-4.95509l3.61191,3.91798l44.825,-4.9733l0.47499,5.04187l-45.4448,5.78748z" fill="#4d4d4d" stroke="none" stroke-width="NaN" stroke-linecap="butt"/><path d="M276.79134,71.12804l-3.75174,-4.33923l43.27213,-4.64985l5.29584,3.60041z" fill="#5f5f5f" stroke="none" stroke-width="0" stroke-linecap="butt"/><path d="M278.39457,79.46488l0.3558,-5.42773l3.95643,4.29169l49.10056,-5.44767l0.5203,5.52278l-49.77949,6.33951z" fill="#4d4d4d" stroke="none" stroke-width="NaN" stroke-linecap="butt"/><path d="M282.69534,78.78613l-4.1096,-4.75312l47.62382,-5.37915l5.56495,4.24551z" fill="#5f5f5f" stroke="none" stroke-width="0" stroke-linecap="butt"/><path d="M285.33601,88.24514l0.3984,-6.0776l4.43015,4.80554l54.97946,-6.09993l0.5826,6.18403l-55.73968,7.09855z" fill="#4d4d4d" stroke="none" stroke-width="NaN" stroke-linecap="butt"/><path d="M290.15166,87.48514l-4.60165,-5.32222l52.8209,-5.82984l6.79436,4.58041z" fill="#5f5f5f" stroke="none" stroke-width="0" stroke-linecap="butt"/><path d="M294.39529,97.3839l0.42395,-6.46742l4.71429,5.11377l58.50583,-6.49118l0.61996,6.58067l-59.3148,7.55385z" fill="#4d4d4d" stroke="none" stroke-width="NaN" stroke-linecap="butt"/><path d="M299.51984,96.57514l-4.8968,-5.66359l56.36322,-6.35014l7.0902,5.03127z" fill="#5f5f5f" stroke="none" stroke-width="0" stroke-linecap="butt"/><path d="M302.38461,107.38008l0.44407,-6.77442l4.93807,5.35652l61.28301,-6.79931l0.64939,6.89305l-62.13038,7.91242z" fill="#4d4d4d" stroke="none" stroke-width="NaN" stroke-linecap="butt"/><path d="M307.93996,106.53293l-5.12924,-5.93243l59.38785,-6.8698l6.87111,5.45457z" fill="#5f5f5f" stroke="none" stroke-width="0" stroke-linecap="butt"/><path d="M313.74933,120.21965l0.48668,-7.42429l5.41178,5.87037l67.16191,-7.45157l0.71169,7.5543l-68.09057,8.67146z" fill="#4d4d4d" stroke="none" stroke-width="NaN" stroke-linecap="butt"/><path d="M319.63205,119.29123l-5.62129,-6.50153l65.08495,-7.52882l7.68864,5.96576z" fill="#5f5f5f" stroke="none" stroke-width="0" stroke-linecap="butt"/><path d="M336.00111,133.18957l0.08805,-7.61243l11.25281,10.87772l58.13954,-7.87697l1.50038,7.87697l-59.63689,7.73713z" fill="#545454" stroke="none" stroke-width="NaN" stroke-linecap="butt"/><path d="M347.34197,136.82996l-11.6279,-11.25281l51.71872,-6.48715l16.54835,9.86299z" fill="#5f5f5f" stroke="none" stroke-width="0" stroke-linecap="butt"/><path d="M359.44587,123.26903l-3.70632,-6.35368l18.70808,-2.47088l7.58913,5.82422z" fill="#5a5a5a" stroke="none" stroke-width="0" stroke-linecap="butt"/><path d="M355.03358,122.25316c0,0 -0.65245,-2.65304 -0.19266,-4.8922c0.69763,-3.39747 2.04742,-7.18877 1.75658,-8.59401c-0.40636,-1.96342 -0.03249,-5.18922 -1.5129,-7.56611c-2.05713,-3.30285 -4.28681,-4.00749 -4.28681,-4.00749l6.70667,-0.61122c0,0 3.70417,2.05446 4.1652,3.85065c0.33243,1.29513 1.19817,5.16588 1.50407,7.99477c0.34653,3.20464 -1.95327,5.41299 -1.86881,7.86383c0.0819,2.37654 3.2592,4.73935 3.2592,4.73935z" fill="#5f5f5f" stroke="none" stroke-width="0" stroke-linecap="butt"/><path d="M356.40127,131.24048l-7.39211,-5.5836c0,0 -3.69563,-29.44532 0.89089,-28.70796c5.4912,0.8828 6.1078,3.8847 7.02943,13.3429c0.45921,4.71261 -1.39596,3.08459 -2.05939,10.64637c-0.13679,1.55913 1.71882,0.8167 1.71882,0.8167l32.11524,-3.66116l0.68645,9.55723z" fill="#515151" stroke="none" stroke-width="0" stroke-linecap="butt"/><path d="M380.97781,108.50624c0,7.00497 -0.49489,11.16463 -4.58877,11.16463c-1.94311,0 -4.57109,-3.34849 -4.57109,-3.34849c0,0 -1.07664,-4.28787 -1.07664,-7.96803c0,-7.00497 -1.27002,-12.53172 2.82386,-12.53172c4.09389,0 7.41264,5.67865 7.41264,12.68362z" fill="#545454" stroke="none" stroke-width="0" stroke-linecap="butt"/><path d="M378.6059,119.41157c0,0 -0.6859,-2.49548 -0.20254,-4.60165c0.73341,-3.19569 2.15241,-6.76182 1.84666,-8.0836c-0.42721,-1.84681 -0.03415,-4.88103 -1.59049,-7.11676c-2.16262,-3.1067 -4.50665,-3.76948 -4.50665,-3.76948l7.05061,-0.57492c0,0 3.89412,1.93245 4.37879,3.62196c0.34947,1.21821 1.25961,4.85907 1.5812,7.51995c0.3643,3.01431 -2.05344,5.09151 -1.96465,7.39679c0.0861,2.2354 3.42633,4.45787 3.42633,4.45787z" fill="#5f5f5f" stroke="none" stroke-width="0" stroke-linecap="butt"/><path d="M365.97072,172.30587c0,0 -3.87889,-3.92952 -5.81237,-5.55335c-2.70551,-2.27221 -4.98807,-9.35762 -4.98807,-9.35762c0,0 12.95892,-1.13368 23.88205,-2.51837c2.91089,-0.369 -5.68741,-6.82469 -5.68741,-6.82469l32.42778,-5.86107c0,0 7.19356,8.25572 9.53438,7.97164c11.72443,-1.42286 21.09076,-2.29155 21.09076,-2.29155c0,0 6.56357,4.43391 6.56357,5.30044c0,5.61582 -3.98068,8.65491 -3.98068,8.65491z" fill="#535353" stroke="none" stroke-width="0" stroke-linecap="butt"/><path d="M365.84707,174.91228l-10.82452,-10.36429l0.1509,-7.17768l11.15006,8.41583z" fill="#444444" stroke="none" stroke-width="0" stroke-linecap="butt"/><path d="M442.66159,161.47111l-76.80312,13.44532l0.42509,-9.15559l76.67878,-12.44961z" fill="#4c4c4c" stroke="none" stroke-width="0" stroke-linecap="butt"/></g></g></svg>