<svg version="1.1" xmlns="http://www.w3.org/2000/svg" xmlns:xlink="http://www.w3.org/1999/xlink" width="444.30039" height="281.39256" viewBox="0,0,444.30039,281.39256"><defs><linearGradient x1="270.73716" y1="49.62863" x2="304.3395" y2="71.31642" gradientUnits="userSpaceOnUse" id="color-1"><stop offset="0" stop-color="#151413"/><stop offset="1" stop-color="#090807"/></linearGradient><radialGradient cx="246.96375" cy="38.32114" r="5.65393" gradientUnits="userSpaceOnUse" id="color-2"><stop offset="0" stop-color="#000000" stop-opacity="0.25882"/><stop offset="1" stop-color="#000000" stop-opacity="0"/></radialGradient><linearGradient x1="262.67009" y1="45.40962" x2="251.93281" y2="34.17167" gradientUnits="userSpaceOnUse" id="color-3"><stop offset="0" stop-color="#000000" stop-opacity="0.25882"/><stop offset="1" stop-color="#000000" stop-opacity="0"/></linearGradient><radialGradient cx="262.30871" cy="102.64467" r="32.05835" gradientUnits="userSpaceOnUse" id="color-4"><stop offset="0" stop-color="#000000" stop-opacity="0.38824"/><stop offset="1" stop-color="#000000" stop-opacity="0"/></radialGradient><radialGradient cx="301.51731" cy="73.04429" r="23.76957" gradientUnits="userSpaceOnUse" id="color-5"><stop offset="0" stop-color="#000000" stop-opacity="0.07843"/><stop offset="1" stop-color="#000000" stop-opacity="0"/></radialGradient><radialGradient cx="308.20986" cy="81.27068" r="24.60254" gradientUnits="userSpaceOnUse" id="color-6"><stop offset="0" stop-color="#000000" stop-opacity="0.07843"/><stop offset="1" stop-color="#000000" stop-opacity="0"/></radialGradient><radialGradient cx="319.82124" cy="90.07846" r="28.61592" gradientUnits="userSpaceOnUse" id="color-7"><stop offset="0" stop-color="#000000" stop-opacity="0.07843"/><stop offset="1" stop-color="#000000" stop-opacity="0"/></radialGradient><radialGradient cx="331.11691" cy="99.66255" r="31.34199" gradientUnits="userSpaceOnUse" id="color-8"><stop offset="0" stop-color="#000000" stop-opacity="0.07843"/><stop offset="1" stop-color="#000000" stop-opacity="0"/></radialGradient><radialGradient cx="340.78409" cy="111.0434" r="31.34199" gradientUnits="userSpaceOnUse" id="color-9"><stop offset="0" stop-color="#000000" stop-opacity="0.07843"/><stop offset="1" stop-color="#000000" stop-opacity="0"/></radialGradient><linearGradient x1="251.16636" y1="100.97655" x2="263.8308" y2="76.344" gradientUnits="userSpaceOnUse" id="color-10"><stop offset="0" stop-color="#000000" stop-opacity="0.37647"/><stop offset="1" stop-color="#000000" stop-opacity="0"/></linearGradient><radialGradient cx="241.21799" cy="71.33614" r="6.98603" gradientUnits="userSpaceOnUse" id="color-11"><stop offset="0" stop-color="#000000" stop-opacity="0.37255"/><stop offset="1" stop-color="#000000" stop-opacity="0"/></radialGradient><linearGradient x1="248.77609" y1="86.77767" x2="275.90138" y2="63.01777" gradientUnits="userSpaceOnUse" id="color-12"><stop offset="0" stop-color="#000000" stop-opacity="0.4"/><stop offset="1" stop-color="#000000" stop-opacity="0"/></linearGradient><radialGradient cx="244.05995" cy="104.80729" r="23.68114" gradientUnits="userSpaceOnUse" id="color-13"><stop offset="0" stop-color="#000000" stop-opacity="0.46667"/><stop offset="1" stop-color="#000000" stop-opacity="0"/></radialGradient><linearGradient x1="251.17925" y1="72.24792" x2="244.00589" y2="107.66276" gradientUnits="userSpaceOnUse" id="color-14"><stop offset="0" stop-color="#151413"/><stop offset="1" stop-color="#090807"/></linearGradient><linearGradient x1="327.52797" y1="74.06285" x2="327.01117" y2="245.3365" gradientUnits="userSpaceOnUse" id="color-15"><stop offset="0" stop-color="#000000" stop-opacity="0"/><stop offset="1" stop-color="#000000" stop-opacity="0.4902"/></linearGradient><linearGradient x1="413.13742" y1="196.20883" x2="275.81495" y2="26.98767" gradientUnits="userSpaceOnUse" id="color-16"><stop offset="0" stop-color="#000000" stop-opacity="0.37647"/><stop offset="1" stop-color="#000000" stop-opacity="0"/></linearGradient></defs><g transform="translate(-15.49592,-26.07861)"><g data-paper-data="{&quot;isPaintingLayer&quot;:true}" fill-rule="nonzero" stroke-linejoin="miter" stroke-miterlimit="10" stroke-dasharray="" stroke-dashoffset="0" style="mix-blend-mode: normal"><path d="M304.3395,71.31642c-2.74698,4.25608 -12.49599,2.85135 -21.77502,-3.13757c-9.27903,-5.98892 -14.57431,-14.29413 -11.82732,-18.55021c2.74698,-4.25608 12.49599,-2.85135 21.77502,3.13757c9.27903,5.98892 14.57431,14.29413 11.82732,18.55021z" fill="url(#color-1)" stroke="none" stroke-width="0" stroke-linecap="butt"/><path d="M364.83118,217.37624l-24.53424,-73.59274l81.02781,-2.38118c0,0 37.80316,27.00459 37.80054,27.87113c-0.01695,5.61579 -12.9594,37.86852 -12.9594,37.86852z" fill="#616161" stroke="none" stroke-width="0" stroke-linecap="butt"/><path d="M243.15327,34.38132l2.94265,3.25659" fill="none" stroke="#656565" stroke-width="12" stroke-linecap="round"/><path d="M240.54365,37.91146c0.00972,-3.22294 2.63031,-5.82775 5.85324,-5.81802c3.22294,0.00972 5.82775,2.63031 5.81802,5.85324c-0.00972,3.22294 -2.63031,5.82775 -5.85324,5.81802c-3.22294,-0.00972 -5.82775,-2.63031 -5.81802,-5.85324z" fill="#5d5d5d" stroke="none" stroke-width="0" stroke-linecap="butt"/><path d="M241.29255,44.03274l0.03457,-11.45732l11.30782,0.03412l-0.03457,11.45733z" fill="url(#color-2)" stroke="none" stroke-width="0" stroke-linecap="butt"/><path d="M259.64594,54.37944l-12.13473,-14.65134" fill="none" stroke="#6d6d6d" stroke-width="7.5" stroke-linecap="round"/><path d="M244.0768,41.32344c0,0 -1.01117,-3.12462 1.07528,-4.5659c2.94529,-2.03455 5.15622,0.49191 5.15622,0.49191l3.24876,3.86577l-5.98469,4.59726z" fill="url(#color-3)" stroke="none" stroke-width="0" stroke-linecap="butt"/><g fill="#727272" stroke="none" stroke-width="0" stroke-linecap="butt"><path d="M284.79346,60.85987c-0.0373,12.36293 -9.70122,22.356 -21.58497,22.32014c-11.88375,-0.03586 -21.48718,-10.08706 -21.44988,-22.45c0.0373,-12.36293 9.70122,-22.356 21.58497,-22.32014c11.88375,0.03586 21.48718,10.08706 21.44988,22.45z"/><path d="M264.51928,108.86629l-20.36106,-38.23786l33.39793,-26.62273l33.94649,21.62006z"/></g><path d="M323.56997,92.0386c-0.05552,18.40064 -14.47336,33.27394 -32.20315,33.22044c-17.72978,-0.0535 -32.0576,-15.01353 -32.00208,-33.41418c0.05552,-18.40064 14.47336,-33.27394 32.20315,-33.22044c17.72978,0.0535 32.0576,15.01353 32.00208,33.41418z" fill="#5b5b5b" stroke="none" stroke-width="0" stroke-linecap="butt"/><path d="M255.34213,40.06284l-1.19529,1.2775l0.48818,-11.55301l7.32043,-0.78984l1.74181,9.83576z" fill="#5d5d5d" stroke="none" stroke-width="0" stroke-linecap="butt"/><path d="M254.76102,30.594l-0.20847,-4.29525l2.22501,0.00671l0.06219,3.85194z" fill="#5d5d5d" stroke="none" stroke-width="0" stroke-linecap="butt"/><path d="M259.43672,91.93608c0.05571,-18.46377 14.45382,-33.38831 32.15908,-33.33488c17.70525,0.05342 32.01303,15.06458 31.95732,33.52836c-0.05571,18.46377 -14.45382,33.38831 -32.15907,33.33488c-17.70525,-0.05342 -32.01304,-15.06459 -31.95733,-33.52835z" fill="url(#color-4)" stroke="none" stroke-width="0" stroke-linecap="butt"/><path d="M259.91091,29.85225l-0.5055,-3.70565l1.92999,-0.06799l0.57909,3.77968z" fill="#5d5d5d" stroke="none" stroke-width="0" stroke-linecap="butt"/><path d="M278.02645,110.68402l-10.70111,-19.12051l5.03932,-17.57497l114.76402,133.21036l-1.29908,32.81707z" fill="#666666" stroke="none" stroke-width="0" stroke-linecap="butt"/><path d="M317.59783,237.44047l-34.12255,-47.1041c0,0 0.4516,-26.79491 0.38774,-27.60007c-0.51153,-6.44931 -16.46703,-71.17526 -16.46703,-71.17526l88.80926,110.4294l34.69912,44.24929z" fill="#616161" stroke="none" stroke-width="0" stroke-linecap="butt"/><path d="M278.3026,76.24893c1.28182,-1.29321 12.31578,-3.72163 25.38244,-4.49655c13.06667,-0.77493 22.77334,-1.40442 21.49152,-0.11121c-1.25227,1.26339 -25.38069,4.32777 -25.68202,4.34564c-13.06667,0.77492 -22.47377,1.55532 -21.19195,0.26212z" fill="url(#color-5)" stroke="none" stroke-width="0" stroke-linecap="butt"/><path d="M284.17839,85.66831c1.32803,-1.76658 12.7511,-5.0925 26.27649,-6.16332c13.52537,-1.07082 23.57287,-1.93978 22.24484,-0.1732c-1.29741,1.72584 -26.27451,5.93293 -26.58642,5.95762c-13.52537,1.07082 -23.26294,2.1455 -21.93491,0.37892z" fill="url(#color-6)" stroke="none" stroke-width="0" stroke-linecap="butt"/><path d="M291.87035,94.94247c1.54437,-1.95534 14.8303,-5.63511 30.56188,-6.81819c15.73157,-1.18308 27.41794,-2.14329 25.87357,-0.18796c-1.50877,1.91025 -30.55963,6.56314 -30.92241,6.59042c-15.73158,1.18308 -27.05743,2.37106 -25.51306,0.41573z" fill="url(#color-7)" stroke="none" stroke-width="0" stroke-linecap="butt"/><path d="M333.97601,97.70911c17.22987,-1.17857 30.02926,-2.13542 28.33833,-0.18053c-1.65194,1.9098 -33.46896,6.55436 -33.86628,6.58154c-17.22987,1.17857 -29.63433,2.36328 -27.9434,0.4084c1.69093,-1.95489 16.24146,-5.63084 33.47135,-6.8094z" fill="url(#color-8)" stroke="none" stroke-width="0" stroke-linecap="butt"/><path d="M343.6432,109.08997c17.22987,-1.17857 30.02926,-2.13542 28.33833,-0.18053c-1.65194,1.9098 -33.46896,6.55436 -33.86628,6.58154c-17.22987,1.17857 -29.63433,2.36328 -27.9434,0.4084c1.69093,-1.95489 16.24146,-5.63084 33.47135,-6.8094z" fill="url(#color-9)" stroke="none" stroke-width="0" stroke-linecap="butt"/><g fill="none" stroke="#5f5f5f" stroke-width="3" stroke-linecap="round"><path d="M254.41393,86.17951c0,0 -2.82873,-11.92909 11.6061,-24.03656c14.07971,-11.8096 25.55297,-7.52944 25.55297,-7.52944"/><path d="M247.6153,73.11198c0,0 -2.36401,-10.13833 9.70246,-20.42899c11.76961,-10.03748 20.23833,-7.0462 20.23833,-7.0462"/><path d="M243.4224,64.21702c0,0 -2.1062,-8.62917 8.63696,-17.3863c10.47886,-8.54168 18.02005,-5.99475 18.02005,-5.99475"/></g><path d="M258.58356,112.42889c-2.22321,-1.78165 -8.24696,-17.06252 -10.51323,-20.36208c-7.44654,-10.8417 -3.18778,-18.17897 -0.56038,-25.32338c1.15121,-3.13036 4.61662,-2.71093 7.36814,-2.14053c2.68578,0.55678 8.3992,11.46963 8.3992,11.46963c0,0 -0.80003,1.27728 -1.39205,2.73647c-0.88542,2.18231 -1.64174,5.13888 -1.81861,6.25413c-0.23305,1.46947 -0.59796,3.26192 -0.63901,7.07872c-0.05546,5.15564 1.8557,13.63816 2.60249,13.05072c0.76328,-0.6004 -0.29159,6.95674 -0.29159,6.95674c0,0 1.9269,4.35206 -3.15495,0.27954z" fill="url(#color-10)" stroke="none" stroke-width="NaN" stroke-linecap="butt"/><path d="M235.48918,68.13524c-0.23219,-1.97048 0.22455,-4.84567 2.57633,-5.83993c1.02887,-0.43497 5.56786,1.00663 6.86517,0.93504c4.26271,-0.23523 4.09285,3.2925 4.42662,6.12503c0.14624,1.2411 -1.06249,2.51005 -2.06199,3.4581c-1.28164,1.21568 -4.15591,0.23187 -6.55088,0.36403c-4.26271,0.23523 -4.92148,-2.20974 -5.25525,-5.04227z" fill="url(#color-11)" stroke="none" stroke-width="NaN" stroke-linecap="butt"/><path d="M357.48592,133.27219l-0.67774,-9.35613l32.6614,-3.43129l0.85636,8.6507z" fill="#838383" stroke="none" stroke-width="0" stroke-linecap="butt"/><path d="M118.72913,189.60292c17.14251,2.62577 69.9814,54.62864 71.38976,57.20993c-10.95355,17.2956 -24.42293,26.91293 -29.86072,35.3461c-4.46421,0.17304 -23.00954,25.19087 -52.95896,25.30889c-29.94942,0.11802 -52.76162,-2.84385 -78.14874,-17.58917c-25.38712,-14.74532 -7.59311,-33.78642 -7.59311,-33.78642c0,0 37.46936,-20.35112 66.43934,-41.2495c28.11399,-20.28088 30.73243,-25.23984 30.73243,-25.23984z" fill="#383735" stroke="none" stroke-width="0" stroke-linecap="butt"/><path d="M260.35054,100.36271l-20.57505,-36.11934c0,0 1.26915,-7.35568 2.69258,-10.70532c1.29161,-3.03942 5.49106,-8.55243 5.49106,-8.55243c0,0 1.95811,-2.61564 6.10072,-4.21966c4.77005,-1.84698 11.94132,-2.60211 14.18092,-0.59594c1.85574,1.66232 17.08064,7.85384 19.65872,10.80492c2.22799,2.55035 -16.59155,14.92578 -16.59155,14.92578c0,0 -7.07818,5.95247 -10.02502,14.89125c-0.02031,0.0616 -0.03701,0.12441 -0.05518,0.18683c-1.37234,4.7141 -1.68364,5.89219 -1.79272,9.44235c-0.1855,5.4698 0.91552,9.94155 0.91552,9.94155z" fill="url(#color-12)" stroke="none" stroke-width="0" stroke-linecap="butt"/><path d="M170.19821,259.43953c-14.03739,1.43011 -62.67556,-34.6792 -64.27292,-36.86251c-13.02183,-17.7985 70.79323,-105.71028 111.90606,-119.89562c3.49472,-1.2058 8.53336,5.59304 14.40479,11.61172c4.21677,4.3225 8.69082,6.28218 14.13382,13.72178c7.21755,9.86509 -12.55581,34.16519 -12.55581,34.16519c0,0 -18.57034,45.9421 -36.27581,74.26589c-10.85282,17.36147 -21.13364,22.36123 -27.34014,22.99355z" fill="#383735" stroke="none" stroke-width="0" stroke-linecap="butt"/><path d="M262.05939,121.95452c-0.02908,9.63881 -4.52641,4.48559 -12.86681,8.66185c-3.64877,1.82703 -8.07771,-2.38413 -12.48197,-2.39742c-14.47156,-0.04367 -20.95602,-2.19766 -20.91422,-16.05326c0.01832,-6.07091 4.61734,-11.90004 8.37855,-16.2282c4.82297,-5.54996 14.11004,0.03023 22.24081,0.05476c14.47156,0.04367 15.68546,12.10668 15.64365,25.96227z" fill="url(#color-13)" stroke="none" stroke-width="NaN" stroke-linecap="butt"/><path d="M261.94497,119.22982c-1.52845,2.4488 -12.57109,11.21151 -13.12397,10.61823c-0.11325,-0.12152 -5.52978,-2.82108 -9.92015,-6.54471c-4.17887,-3.54428 -8.07798,-7.25819 -10.58527,-9.92464c-6.6207,-7.04094 -7.23596,-13.54992 -7.18632,-13.78835c1.09907,-5.27926 4.94235,-10.41009 7.81655,-13.91456c2.31923,-2.8278 5.66147,-18.69046 7.06988,-20.37142c1.05549,-2.93519 4.50609,-12.61336 9.15235,-15.9768c0.94985,-0.6876 4.70403,-2.90977 5.89133,-2.20616c0.96445,0.57153 3.82406,2.22044 4.21929,3.51257c0.62775,2.05229 0.71271,3.32092 -0.39299,4.57628c-1.47867,3.0114 -4.32805,8.78785 -5.74949,11.80757c-0.02845,0.06044 -0.29729,0.71706 -0.32432,0.7749c-0.24822,1.14143 -0.35362,3.27473 -0.48054,4.2831c-0.53294,4.23452 -0.28346,5.8866 -0.28346,5.8866c0,0 11.02368,19.61662 12.29767,21.94187c0.08904,0.16251 1.2192,3.81585 2.8844,7.33209c1.15408,2.43698 3.04429,5.15878 3.04429,5.15878c0,0 -1.4878,2.28223 -4.32925,6.83468z" fill="url(#color-14)" stroke="none" stroke-width="0" stroke-linecap="butt"/><path d="M217.72581,98.70618c2.0843,-1.38047 3.46477,0.70384 3.46477,0.70384l0.38517,0.59362c5.04741,6.53524 11.74265,13.27818 18.25962,18.37181c3.66608,2.86539 7.28873,5.24135 10.42542,8.73118c0,0 1.6668,1.86328 -0.19647,3.53007c-1.86328,1.6668 -3.53007,-0.19647 -3.53007,-0.19647c-2.90934,-3.2698 -6.34917,-5.43864 -9.76581,-8.11585c-6.83786,-5.358 -13.84257,-12.40326 -19.1487,-19.26295l-0.59777,-0.89047c0,0 -1.38047,-2.0843 0.70384,-3.46477z" fill="#2e2d2b" stroke="none" stroke-width="0.5" stroke-linecap="butt"/><path d="M282.70656,189.97201l1.16433,-27.56238c0,0 -3.3136,-15.48133 -5.54102,-25.11007c-3.0157,-13.03639 -10.91587,-46.0304 -10.91587,-46.0304l5.04204,-17.37249l114.72934,134.25886l-1.88278,37.35686l-68.72435,-7.80104z" fill="url(#color-15)" stroke="none" stroke-width="0" stroke-linecap="butt"/><path d="M270.85022,67.22307l38.22314,-2.81l112.90858,77.0406l-73.83596,13.0336z" fill="#727272" stroke="none" stroke-width="0" stroke-linecap="butt"/><path d="M271.12386,72.38675l-0.3022,-5.16079l78.96645,86.51771l-0.14231,10.55393z" fill="#696969" stroke="none" stroke-width="0" stroke-linecap="butt"/><path d="M445.91502,207.64913c0,0 -15.57109,0.3063 -23.12223,1.18934c-10.00507,1.17 -30.42713,5.40639 -30.42713,5.40639l-121.25136,-141.80039l-0.27784,-5.18197l39.21934,-2.9127l111.78997,77.04317l-0.27273,0.20498l27.30409,19.60758l10.91919,8.34917z" fill="url(#color-16)" stroke="none" stroke-width="0" stroke-linecap="butt"/><path d="M273.90938,73.37977l0.33976,-4.95409l3.60007,3.92886l44.8398,-4.83802l0.45977,5.04328l-45.46206,5.65033z" fill="#4d4d4d" stroke="none" stroke-width="NaN" stroke-linecap="butt"/><path d="M277.83745,72.77198l-3.73863,-4.35053l43.28596,-4.51926l5.28495,3.61637z" fill="#5f5f5f" stroke="none" stroke-width="0" stroke-linecap="butt"/><path d="M279.41552,81.11362l0.37218,-5.42663l3.94346,4.30361l49.11677,-5.29949l0.50363,5.52432l-49.79839,6.18928z" fill="#4d4d4d" stroke="none" stroke-width="NaN" stroke-linecap="butt"/><path d="M283.71832,80.44785l-4.09524,-4.7655l47.63983,-5.23542l5.55211,4.26228z" fill="#5f5f5f" stroke="none" stroke-width="0" stroke-linecap="butt"/><path d="M286.33043,89.91479l0.41674,-6.07637l4.41563,4.81889l54.99762,-5.93401l0.56394,6.18576l-55.76085,6.93033z" fill="#4d4d4d" stroke="none" stroke-width="NaN" stroke-linecap="butt"/><path d="M291.14835,89.16932l-4.58557,-5.33608l52.83825,-5.67043l6.78051,4.60089z" fill="#5f5f5f" stroke="none" stroke-width="0" stroke-linecap="butt"/><path d="M295.3621,99.08084l0.44346,-6.46611l4.69884,5.12797l58.52515,-6.31461l0.6001,6.58251l-59.33732,7.37484z" fill="#4d4d4d" stroke="none" stroke-width="NaN" stroke-linecap="butt"/><path d="M300.48906,98.28755l-4.87969,-5.67834l56.38212,-6.18004l7.07499,5.05264z" fill="#5f5f5f" stroke="none" stroke-width="0" stroke-linecap="butt"/><path d="M303.32122,109.10108l0.46451,-6.77305l4.92188,5.3714l61.30325,-6.61436l0.62859,6.89498l-62.15397,7.72491z" fill="#4d4d4d" stroke="none" stroke-width="NaN" stroke-linecap="butt"/><path d="M308.8791,108.2707l-5.11132,-5.94788l59.40831,-6.69057l6.85462,5.47528z" fill="#5f5f5f" stroke="none" stroke-width="0" stroke-linecap="butt"/><path d="M314.64714,121.97489l0.50908,-7.42279l5.39404,5.88667l67.18409,-7.24888l0.68889,7.55641l-68.11643,8.46596z" fill="#4d4d4d" stroke="none" stroke-width="NaN" stroke-linecap="butt"/><path d="M320.53264,121.06422l-5.60165,-6.51846l65.10737,-7.3324l7.6706,5.98893z" fill="#5f5f5f" stroke="none" stroke-width="0" stroke-linecap="butt"/><path d="M336.85969,135.01189l0.11102,-7.61213l11.21994,10.91162l58.16304,-7.7015l1.47661,7.88146l-59.65996,7.55715z" fill="#545454" stroke="none" stroke-width="NaN" stroke-linecap="butt"/><path d="M348.18951,138.68648l-11.59389,-11.28784l51.73806,-6.33106l16.51851,9.91288z" fill="#5f5f5f" stroke="none" stroke-width="0" stroke-linecap="butt"/><path d="M360.33427,125.16214l-3.68713,-6.36483l18.71545,-2.41442l7.57152,5.84709z" fill="#5a5a5a" stroke="none" stroke-width="0" stroke-linecap="butt"/><path d="M355.92507,124.13296c0,0 -0.64444,-2.655 -0.1779,-4.89276c0.70788,-3.39535 2.0691,-7.18256 1.7825,-8.58867c-0.40043,-1.96464 -0.01683,-5.18929 -1.49006,-7.57064c-2.04715,-3.30904 -4.2747,-4.02041 -4.2747,-4.02041l6.70848,-0.59098c0,0 3.69795,2.06563 4.15356,3.8632c0.32852,1.29613 1.18258,5.16947 1.47994,7.99927c0.33686,3.20567 -1.96959,5.40707 -1.89253,7.85816c0.07473,2.37678 3.24488,4.74916 3.24488,4.74916z" fill="#5f5f5f" stroke="none" stroke-width="0" stroke-linecap="butt"/><path d="M357.26564,133.12437l-7.37523,-5.60588c0,0 -3.60676,-29.45634 0.97751,-28.70514c5.48851,0.89937 6.09605,3.90311 6.98914,13.36405c0.44499,4.71397 -1.40526,3.08036 -2.09151,10.64011c-0.14149,1.55871 1.71635,0.82188 1.71635,0.82188l32.12614,-3.56424l0.65761,9.55926z" fill="#515151" stroke="none" stroke-width="0" stroke-linecap="butt"/><path d="M381.91066,110.46439c-0.02114,7.00494 -0.52858,11.16309 -4.62244,11.15073c-1.9431,-0.00586 -4.56097,-3.36227 -4.56097,-3.36227c0,0 -1.0637,-4.2911 -1.05259,-7.97124c0.02114,-7.00494 -1.2322,-12.5355 2.86166,-12.52314c4.09387,0.01235 7.39547,5.70099 7.37433,12.70593z" fill="#545454" stroke="none" stroke-width="0" stroke-linecap="butt"/><path d="M379.50586,121.36251c0,0 -0.67837,-2.49754 -0.18865,-4.60224c0.74305,-3.19346 2.1728,-6.75529 1.87104,-8.07799c-0.42164,-1.84809 -0.01942,-4.88111 -1.56901,-7.12153c-2.15324,-3.11321 -4.49526,-3.78306 -4.49526,-3.78306l7.05231,-0.55364c0,0 3.88827,1.94419 4.36784,3.63516c0.34579,1.21926 1.24494,4.86285 1.5585,7.52469c0.3552,3.0154 -2.06879,5.08529 -1.98696,7.39083c0.07935,2.23565 3.41286,4.46819 3.41286,4.46819z" fill="#5f5f5f" stroke="none" stroke-width="0" stroke-linecap="butt"/><path d="M366.71113,174.21844c0,0 -3.86702,-3.94121 -5.79559,-5.57086c-2.69864,-2.28036 -4.95981,-9.37263 -4.95981,-9.37263c0,0 12.96228,-1.09457 23.88954,-2.4463c2.91199,-0.36021 -5.66679,-6.84182 -5.66679,-6.84182l32.44532,-5.7632c0,0 7.16862,8.27739 9.51028,8.00037c11.72867,-1.38748 21.09758,-2.2279 21.09758,-2.2279c0,0 6.55016,4.45369 6.54755,5.32022c-0.01695,5.61579 -4.00678,8.64286 -4.00678,8.64286z" fill="#535353" stroke="none" stroke-width="0" stroke-linecap="butt"/><path d="M366.57962,176.82447l-10.7932,-10.3969l0.17256,-7.17719l11.12462,8.44944z" fill="#444444" stroke="none" stroke-width="0" stroke-linecap="butt"/><path d="M443.43434,163.61514l-76.84334,13.21351l0.45271,-9.15427l76.716,-12.21818z" fill="#4c4c4c" stroke="none" stroke-width="0" stroke-linecap="butt"/></g></g></svg>