<svg version="1.1" xmlns="http://www.w3.org/2000/svg" xmlns:xlink="http://www.w3.org/1999/xlink" width="447.77084" height="279.51077" viewBox="0,0,447.77084,279.51077"><defs><linearGradient x1="272.69086" y1="52.32007" x2="306.20385" y2="74.41206" gradientUnits="userSpaceOnUse" id="color-1"><stop offset="0" stop-color="#151413"/><stop offset="1" stop-color="#090807"/></linearGradient><radialGradient cx="248.9323" cy="40.72631" r="5.68303" gradientUnits="userSpaceOnUse" id="color-2"><stop offset="0" stop-color="#000000" stop-opacity="0.25882"/><stop offset="1" stop-color="#000000" stop-opacity="0"/></radialGradient><linearGradient x1="264.6334" y1="48.00395" x2="253.97629" y2="36.63715" gradientUnits="userSpaceOnUse" id="color-3"><stop offset="0" stop-color="#000000" stop-opacity="0.25882"/><stop offset="1" stop-color="#000000" stop-opacity="0"/></linearGradient><radialGradient cx="263.58437" cy="105.23053" r="32.22336" gradientUnits="userSpaceOnUse" id="color-4"><stop offset="0" stop-color="#000000" stop-opacity="0.38824"/><stop offset="1" stop-color="#000000" stop-opacity="0"/></radialGradient><radialGradient cx="303.34662" cy="76.10572" r="23.89192" gradientUnits="userSpaceOnUse" id="color-5"><stop offset="0" stop-color="#000000" stop-opacity="0.07843"/><stop offset="1" stop-color="#000000" stop-opacity="0"/></radialGradient><radialGradient cx="309.97456" cy="84.41234" r="24.72918" gradientUnits="userSpaceOnUse" id="color-6"><stop offset="0" stop-color="#000000" stop-opacity="0.07843"/><stop offset="1" stop-color="#000000" stop-opacity="0"/></radialGradient><radialGradient cx="321.53933" cy="93.35971" r="28.76322" gradientUnits="userSpaceOnUse" id="color-7"><stop offset="0" stop-color="#000000" stop-opacity="0.07843"/><stop offset="1" stop-color="#000000" stop-opacity="0"/></radialGradient><radialGradient cx="332.77749" cy="103.0795" r="31.50332" gradientUnits="userSpaceOnUse" id="color-8"><stop offset="0" stop-color="#000000" stop-opacity="0.07843"/><stop offset="1" stop-color="#000000" stop-opacity="0"/></radialGradient><radialGradient cx="342.35735" cy="114.57627" r="31.50332" gradientUnits="userSpaceOnUse" id="color-9"><stop offset="0" stop-color="#000000" stop-opacity="0.07843"/><stop offset="1" stop-color="#000000" stop-opacity="0"/></radialGradient><linearGradient x1="252.40545" y1="103.42798" x2="265.42933" y2="78.95012" gradientUnits="userSpaceOnUse" id="color-10"><stop offset="0" stop-color="#000000" stop-opacity="0.37647"/><stop offset="1" stop-color="#000000" stop-opacity="0"/></linearGradient><radialGradient cx="242.76177" cy="73.66957" r="7.02199" gradientUnits="userSpaceOnUse" id="color-11"><stop offset="0" stop-color="#000000" stop-opacity="0.37255"/><stop offset="1" stop-color="#000000" stop-opacity="0"/></radialGradient><linearGradient x1="250.1732" y1="89.20125" x2="277.72084" y2="65.7706" gradientUnits="userSpaceOnUse" id="color-12"><stop offset="0" stop-color="#000000" stop-opacity="0.4"/><stop offset="1" stop-color="#000000" stop-opacity="0"/></linearGradient><radialGradient cx="245.21709" cy="107.17263" r="23.80303" gradientUnits="userSpaceOnUse" id="color-13"><stop offset="0" stop-color="#000000" stop-opacity="0.46667"/><stop offset="1" stop-color="#000000" stop-opacity="0"/></radialGradient><linearGradient x1="252.76266" y1="74.70157" x2="245.12853" y2="110.02724" gradientUnits="userSpaceOnUse" id="color-14"><stop offset="0" stop-color="#151413"/><stop offset="1" stop-color="#090807"/></linearGradient><linearGradient x1="329.47708" y1="77.4383" x2="326.90536" y2="248.69342" gradientUnits="userSpaceOnUse" id="color-15"><stop offset="0" stop-color="#000000" stop-opacity="0"/><stop offset="1" stop-color="#000000" stop-opacity="0.4902"/></linearGradient><linearGradient x1="414.05736" y1="200.60928" x2="278.06571" y2="29.74205" gradientUnits="userSpaceOnUse" id="color-16"><stop offset="0" stop-color="#000000" stop-opacity="0.37647"/><stop offset="1" stop-color="#000000" stop-opacity="0"/></linearGradient></defs><g transform="translate(-13.50158,-28.6582)"><g data-paper-data="{&quot;isPaintingLayer&quot;:true}" fill-rule="nonzero" stroke-linejoin="miter" stroke-miterlimit="10" stroke-dasharray="" stroke-dashoffset="0" style="mix-blend-mode: normal"><path d="M306.20385,74.41206c-2.81192,4.2226 -12.59357,2.70025 -21.84793,-3.40028c-9.25436,-6.10053 -14.47699,-14.4691 -11.66506,-18.6917c2.81192,-4.2226 12.59357,-2.70025 21.84793,3.40028c9.25436,6.10053 14.47699,14.4691 11.66506,18.6917z" fill="url(#color-1)" stroke="none" stroke-width="0" stroke-linecap="butt"/><path d="M365.25233,221.19186l-23.77692,-73.88372l81.46754,-1.40257c0,0 37.67142,27.45914 37.6584,28.32558c-0.08432,5.61519 -13.47893,37.70931 -13.47893,37.70931z" fill="#616161" stroke="none" stroke-width="0" stroke-linecap="butt"/><path d="M245.14969,36.74077l2.91856,3.29189" fill="none" stroke="#656565" stroke-width="12" stroke-linecap="round"/><path d="M242.48452,40.23914c0.04839,-3.22259 2.71349,-5.79557 5.95266,-5.74693c3.23917,0.04864 5.82581,2.70049 5.77741,5.92308c-0.04839,3.22259 -2.71349,5.79557 -5.95266,5.74693c-3.23917,-0.04864 -5.82581,-2.70049 -5.77741,-5.92308z" fill="#5d5d5d" stroke="none" stroke-width="0" stroke-linecap="butt"/><path d="M243.16388,46.36903l0.17203,-11.45608l11.36479,0.17066l-0.17203,11.45609z" fill="url(#color-2)" stroke="none" stroke-width="0" stroke-linecap="butt"/><path d="M261.48642,56.9366l-12.02075,-14.79682" fill="none" stroke="#6d6d6d" stroke-width="7.5" stroke-linecap="round"/><path d="M245.99472,43.69354c0,0 -0.97886,-3.1366 1.13545,-4.55258c2.98462,-1.99884 5.17649,0.55414 5.17649,0.55414l3.21893,3.90472l-6.07015,4.52467z" fill="url(#color-3)" stroke="none" stroke-width="0" stroke-linecap="butt"/><g fill="#727272" stroke="none" stroke-width="0" stroke-linecap="butt"><path d="M286.6839,63.72023c-0.18563,12.3616 -10.01833,22.23725 -21.96196,22.05789c-11.94362,-0.17936 -21.47535,-10.3458 -21.28972,-22.7074c0.18563,-12.3616 10.01833,-22.23725 21.96196,-22.05789c11.94362,0.17936 21.47535,10.3458 21.28972,22.7074z"/><path d="M265.7316,111.47839l-20.0062,-38.48099l33.88643,-26.21752l33.85969,22.02842z"/></g><path d="M325.2836,95.36497c-0.27629,18.39865 -14.94551,33.09678 -32.76463,32.82919c-17.81911,-0.26759 -32.04039,-15.39956 -31.7641,-33.79821c0.27629,-18.39865 14.94551,-33.09678 32.76463,-32.82919c17.81911,0.26759 32.04039,15.39956 31.7641,33.79821z" fill="#5b5b5b" stroke="none" stroke-width="0" stroke-linecap="butt"/><path d="M257.33232,42.56906l-1.21666,1.26297l0.62909,-11.54629l7.36704,-0.70139l1.63279,9.85609z" fill="#5d5d5d" stroke="none" stroke-width="0" stroke-linecap="butt"/><path d="M256.86173,33.09388l-0.15806,-4.29746l2.23622,0.03358l0.01635,3.85241z" fill="#5d5d5d" stroke="none" stroke-width="0" stroke-linecap="butt"/><path d="M260.82612,94.48802c0.27724,-18.46177 14.92725,-33.21138 32.72172,-32.94416c17.79446,0.26722 31.99498,15.45007 31.71774,33.91185c-0.27724,18.46177 -14.92725,33.21138 -32.72171,32.94416c-17.79446,-0.26722 -31.99499,-15.45007 -31.71775,-33.91184z" fill="url(#color-4)" stroke="none" stroke-width="0" stroke-linecap="butt"/><path d="M262.04663,32.41437l-0.46366,-3.71149l1.9406,-0.04468l0.53674,3.78641z" fill="#5d5d5d" stroke="none" stroke-width="0" stroke-linecap="butt"/><path d="M279.28553,113.45909l-10.52631,-19.24835l5.27549,-17.51286l113.75022,134.58661l-1.6989,32.79903z" fill="#666666" stroke="none" stroke-width="0" stroke-linecap="butt"/><path d="M317.53887,240.68429l-33.73129,-47.51276c0,0 0.77497,-26.78753 0.72043,-27.5934c-0.43685,-6.45503 -15.69774,-71.369 -15.69774,-71.369l87.93672,111.49388l34.34499,44.66512z" fill="#616161" stroke="none" stroke-width="0" stroke-linecap="butt"/><path d="M279.97571,79.02981c1.30382,-1.27764 12.42287,-3.57264 25.56513,-4.18973c13.14226,-0.61709 22.90574,-1.12932 21.60192,0.14831c-1.27376,1.24817 -25.56135,4.02097 -25.86442,4.03521c-13.14226,0.61708 -22.60645,1.28383 -21.30263,0.0062z" fill="url(#color-5)" stroke="none" stroke-width="0" stroke-linecap="butt"/><path d="M285.76845,88.51946c1.35593,-1.75042 12.87683,-4.93816 26.48369,-5.84558c13.60684,-0.90742 23.71574,-1.65499 22.35981,0.09543c-1.32468,1.71005 -26.47894,5.61523 -26.79272,5.63615c-13.60684,0.90742 -23.4067,1.86443 -22.05077,0.11402z" fill="url(#color-6)" stroke="none" stroke-width="0" stroke-linecap="butt"/><path d="M293.38831,97.88584c1.57563,-1.93655 14.97308,-5.45562 30.79868,-6.44866c15.82558,-0.99303 27.58276,-1.81205 26.00713,0.12449c-1.53932,1.89189 -30.79336,6.19365 -31.1583,6.21655c-15.82559,0.99303 -27.22315,2.04416 -25.64751,0.10762z" fill="url(#color-7)" stroke="none" stroke-width="0" stroke-linecap="butt"/><path d="M335.6745,101.16073c17.33143,-0.97042 30.20724,-1.77265 28.48431,0.16168c-1.68321,1.88972 -33.71734,6.14974 -34.11701,6.17212c-17.33143,0.97042 -29.81303,2.00527 -28.0901,0.07094c1.72293,-1.93433 16.39136,-5.43431 33.7228,-6.40474z" fill="url(#color-8)" stroke="none" stroke-width="0" stroke-linecap="butt"/><path d="M345.25438,112.65751c17.33143,-0.97042 30.20724,-1.77265 28.48431,0.16168c-1.68321,1.88972 -33.71734,6.14974 -34.11701,6.17212c-17.33143,0.97042 -29.81303,2.00527 -28.0901,0.07094c1.72293,-1.93433 16.39136,-5.43431 33.7228,-6.40474z" fill="url(#color-9)" stroke="none" stroke-width="0" stroke-linecap="butt"/><g fill="none" stroke="#5f5f5f" stroke-width="3" stroke-linecap="round"><path d="M255.84682,88.67121c0,0 -2.70014,-11.96239 11.95302,-23.89469c14.29267,-11.63873 25.77286,-7.22034 25.77286,-7.22034"/><path d="M249.17026,75.52253c0,0 -2.25452,-10.16615 9.99649,-20.31036c11.94961,-9.89464 20.42547,-6.80131 20.42547,-6.80131"/><path d="M245.06267,66.57757c0,0 -2.01349,-8.65399 8.88912,-17.28076c10.63439,-8.41453 18.18333,-5.77672 18.18333,-5.77672"/></g><path d="M259.72307,114.96906c-2.21315,-1.80836 -8.08436,-17.16088 -10.32259,-20.48757c-7.35442,-10.93084 -2.98613,-18.21616 -0.25979,-25.32833c1.19456,-3.11623 4.67253,-2.65499 7.43118,-2.0514c2.69274,0.58917 8.30439,11.57023 8.30439,11.57023c0,0 -0.81939,1.26753 -1.43191,2.71947c-0.91606,2.17146 -1.71165,5.11869 -1.90278,6.23172c-0.25184,1.46655 -0.64008,3.25447 -0.72708,7.0705c-0.11752,5.1546 1.70169,13.65959 2.45932,13.08121c0.77434,-0.59114 -0.37643,6.95272 -0.37643,6.95272c0,0 1.88453,4.37502 -3.17431,0.24142z" fill="url(#color-10)" stroke="none" stroke-width="NaN" stroke-linecap="butt"/><path d="M237.04224,70.39972c-0.20975,-1.97314 0.28376,-4.84262 2.65938,-5.8084c1.0393,-0.42251 5.58405,1.07379 6.8888,1.01787c4.28716,-0.18374 4.07417,3.34169 4.37569,6.17805c0.13211,1.24277 -1.09796,2.49704 -2.11389,3.43296c-1.30271,1.20011 -4.17978,0.18167 -6.58848,0.2849c-4.28716,0.18374 -4.91998,-2.26901 -5.2215,-5.10537z" fill="url(#color-11)" stroke="none" stroke-width="NaN" stroke-linecap="butt"/><path d="M358.87758,137.00515l-0.56907,-9.36364l32.86827,-3.03665l0.75705,8.66042z" fill="#838383" stroke="none" stroke-width="0" stroke-linecap="butt"/><path d="M118.23418,190.44876c17.19804,2.83258 69.68195,55.46977 71.06652,58.06788c-11.21638,17.16209 -24.86935,26.61608 -30.43579,34.98298c-4.48894,0.11912 -23.42815,24.91121 -53.53098,24.66757c-30.10282,-0.24364 -52.99529,-3.48076 -78.33456,-18.53158c-25.33927,-15.05082 -7.22679,-33.87568 -7.22679,-33.87568c0,0 37.90336,-19.89721 67.27078,-40.44427c28.49968,-19.93994 31.19083,-24.86693 31.19083,-24.86693z" fill="#383735" stroke="none" stroke-width="0" stroke-linecap="butt"/><path d="M261.6436,102.92509l-20.24666,-36.3652c0,0 1.36373,-7.33983 2.83453,-10.67204c1.33458,-3.0236 5.62141,-8.48551 5.62141,-8.48551c0,0 1.99939,-2.59181 6.18224,-4.14569c4.81639,-1.78924 12.03309,-2.45773 14.26003,-0.42466c1.84524,1.68461 17.07321,8.05953 19.62901,11.04153c2.20874,2.57708 -16.8546,14.72436 -16.8546,14.72436c0,0 -7.18543,5.86657 -10.25433,14.76912c-0.02115,0.06135 -0.03868,0.12395 -0.0577,0.18615c-1.43579,4.69719 -1.76278,5.87143 -1.91496,9.42003c-0.25198,5.46716 0.80104,9.95189 0.80104,9.95189z" fill="url(#color-12)" stroke="none" stroke-width="0" stroke-linecap="butt"/><path d="M169.12763,260.59304c-14.12576,1.2605 -62.57808,-35.43354 -64.15739,-37.63598c-12.87465,-17.95447 72.41917,-104.84784 113.91061,-118.53571c3.52691,-1.16351 8.50965,5.69569 14.33875,11.78483c4.18637,4.37311 8.65965,6.38668 14.04112,13.89147c7.13596,9.95154 -13.02891,34.01112 -13.02891,34.01112c0,0 -19.21508,45.71457 -37.34979,73.82252c-11.11593,17.22917 -21.50883,22.10443 -27.7544,22.66176z" fill="#383735" stroke="none" stroke-width="0" stroke-linecap="butt"/><path d="M263.1024,124.53598c-0.14473,9.63776 -4.60312,4.43061 -13.0359,8.50586c-3.68918,1.78284 -8.09014,-2.4815 -12.51659,-2.54798c-14.54448,-0.21841 -21.03604,-2.45056 -20.82799,-16.30465c0.09116,-6.07026 4.78336,-11.84343 8.61552,-16.12586c4.91395,-5.49133 14.18129,0.20061 22.35302,0.32332c14.54448,0.21841 15.61999,12.29522 15.41195,26.14931z" fill="url(#color-13)" stroke="none" stroke-width="NaN" stroke-linecap="butt"/><path d="M263.02004,121.81009c-1.56555,2.43017 -12.76922,11.0589 -13.3178,10.45899c-0.11237,-0.12288 -5.52404,-2.88765 -9.89207,-6.66403c-4.15761,-3.59448 -8.032,-7.35521 -10.52007,-10.05174c-6.56993,-7.12038 -7.11032,-13.63632 -7.05757,-13.87413c1.16791,-5.26561 5.09217,-10.34967 8.02295,-13.81917c2.36489,-2.7996 5.91416,-18.62076 7.34986,-20.28459c1.09602,-2.92223 4.6801,-12.55804 9.39024,-15.86513c0.96291,-0.67608 4.76277,-2.85276 5.94767,-2.13487c0.9625,0.58314 3.81686,2.26646 4.19861,3.56326c0.60634,2.05973 0.67654,3.32928 -0.44982,4.5712c-1.52226,2.99333 -4.45531,8.73496 -5.92016,11.73729c-0.02932,0.0601 -0.30739,0.71341 -0.33525,0.77093c-0.26315,1.13835 -0.39466,3.27022 -0.5343,4.27699c-0.58638,4.22778 -0.35544,5.88276 -0.35544,5.88276c0,0 10.84456,19.74833 12.09716,22.08879c0.08754,0.16357 1.17967,3.83029 2.81118,7.36639c1.13074,2.45074 2.99792,5.19517 2.99792,5.19517c0,0 -1.5227,2.2641 -4.43312,6.78191z" fill="url(#color-14)" stroke="none" stroke-width="0" stroke-linecap="butt"/><path d="M218.82242,100.44513c2.11142,-1.3552 3.47392,0.74563 3.47392,0.74563l0.38001,0.59823c4.99472,6.59572 11.64313,13.41903 18.13214,18.59098c3.65035,2.90945 7.26291,5.32898 10.37371,8.85644c0,0 1.65293,1.88327 -0.23977,3.52745c-1.89271,1.64418 -3.54563,-0.23909 -3.54563,-0.23909c-2.88492,-3.3047 -6.31622,-5.51492 -9.71812,-8.2332c-6.80836,-5.44018 -13.76419,-12.56952 -19.01506,-19.49279l-0.59013,-0.89762c0,0 -1.3625,-2.10083 0.74893,-3.45602z" fill="#2e2d2b" stroke="none" stroke-width="0.5" stroke-linecap="butt"/><path d="M283.03933,192.79791l1.50051,-27.54634c0,0 -3.14491,-15.52023 -5.26825,-25.17518c-2.87479,-13.07187 -10.4197,-46.15891 -10.4197,-46.15891l5.2758,-17.31035l113.7028,135.63462l-2.33996,37.33144l-68.97964,-8.63035z" fill="url(#color-15)" stroke="none" stroke-width="0" stroke-linecap="butt"/><path d="M272.59367,69.91461l38.45079,-2.34824l112.55842,78.39849l-74.36684,12.14107z" fill="#727272" stroke="none" stroke-width="0" stroke-linecap="butt"/><path d="M272.80682,75.08123l-0.24189,-5.16406l78.33048,87.46505l-0.26949,10.55145z" fill="#696969" stroke="none" stroke-width="0" stroke-linecap="butt"/><path d="M446.86421,212.44456c0,0 -15.65377,0.11825 -23.25382,0.91004c-10.06986,1.0491 -30.64632,5.03859 -30.64632,5.03859l-120.16755,-143.25437l-0.21715,-5.18496l39.45327,-2.43891l111.4341,78.38754l-0.27657,0.20167l27.2077,19.93588l10.87455,8.48042z" fill="url(#color-16)" stroke="none" stroke-width="0" stroke-linecap="butt"/><path d="M275.59457,76.10781l0.40085,-4.94963l3.57126,3.97205l45.12532,-4.29622l0.40168,5.04847l-45.76047,5.10095z" fill="#4d4d4d" stroke="none" stroke-width="NaN" stroke-linecap="butt"/><path d="M279.54986,75.5475l-3.70547,-4.39536l43.55978,-3.99624l5.26844,3.67993z" fill="#5f5f5f" stroke="none" stroke-width="0" stroke-linecap="butt"/><path d="M281.03598,83.90759l0.43909,-5.42175l3.91191,4.35092l49.42953,-4.70601l0.43999,5.53001l-50.12527,5.5875z" fill="#4d4d4d" stroke="none" stroke-width="NaN" stroke-linecap="butt"/><path d="M285.3686,83.29383l-4.05892,-4.81461l47.94433,-4.65978l5.52922,4.32902z" fill="#5f5f5f" stroke="none" stroke-width="0" stroke-linecap="butt"/><path d="M287.88053,92.79163l0.49166,-6.0709l4.3803,4.87186l55.34782,-5.26947l0.49268,6.19213l-56.12686,6.2565z" fill="#4d4d4d" stroke="none" stroke-width="NaN" stroke-linecap="butt"/><path d="M292.73183,92.10439l-4.5449,-5.39107l53.17434,-5.03198l6.75979,4.68244z" fill="#5f5f5f" stroke="none" stroke-width="0" stroke-linecap="butt"/><path d="M296.84819,102.06609l0.52319,-6.46029l4.66124,5.18434l58.89782,-5.60745l0.52427,6.58928l-59.72681,6.65779z" fill="#4d4d4d" stroke="none" stroke-width="NaN" stroke-linecap="butt"/><path d="M302.01068,101.33476l-4.83641,-5.73686l56.7423,-5.49876l7.05035,5.13771z" fill="#5f5f5f" stroke="none" stroke-width="0" stroke-linecap="butt"/><path d="M304.72764,112.18172l0.54802,-6.76695l4.8825,5.43044l61.6936,-5.87363l0.54916,6.90207l-62.56195,6.97383z" fill="#4d4d4d" stroke="none" stroke-width="NaN" stroke-linecap="butt"/><path d="M310.32367,111.41851l-5.06598,-6.00917l59.78996,-5.97272l6.8238,5.55766z" fill="#5f5f5f" stroke="none" stroke-width="0" stroke-linecap="butt"/><path d="M315.95678,125.19136l0.60061,-7.41611l5.35088,5.95139l67.61189,-6.43709l0.60184,7.56419l-68.56354,7.64283z" fill="#4d4d4d" stroke="none" stroke-width="NaN" stroke-linecap="butt"/><path d="M321.88305,124.35183l-5.55197,-6.58564l65.52564,-6.54568l7.63777,6.08113z" fill="#5f5f5f" stroke="none" stroke-width="0" stroke-linecap="butt"/><path d="M338.12583,138.49565l0.2028,-7.61024l11.14613,11.04633l58.55049,-6.99861l1.38966,7.89873l-60.05328,6.83619z" fill="#545454" stroke="none" stroke-width="NaN" stroke-linecap="butt"/><path d="M349.46912,142.3068l-11.51747,-11.42704l52.07648,-5.70585l16.48356,10.11163z" fill="#5f5f5f" stroke="none" stroke-width="0" stroke-linecap="butt"/><path d="M361.83757,128.93007l-3.62958,-6.4089l18.83936,-2.18825l7.53988,5.9381z" fill="#5a5a5a" stroke="none" stroke-width="0" stroke-linecap="butt"/><path d="M357.41832,127.84772c0,0 -0.6159,-2.66259 -0.12017,-4.89456c0.75216,-3.38656 2.16567,-7.15706 1.89446,-8.56653c-0.37892,-1.96933 0.04526,-5.18913 -1.40691,-7.58809c-2.01789,-3.33352 -4.24822,-4.07174 -4.24822,-4.07174l6.74961,-0.50993c0,0 3.69197,2.11013 4.12835,3.91308c0.31466,1.3 1.12663,5.18338 1.3916,8.01657c0.30016,3.20951 -2.04438,5.3829 -1.99629,7.83474c0.04663,2.37751 3.20444,4.78801 3.20444,4.78801z" fill="#5f5f5f" stroke="none" stroke-width="0" stroke-linecap="butt"/><path d="M358.65795,136.85467l-7.34548,-5.69454c0,0 -3.27211,-29.49778 1.32643,-28.69128c5.50559,0.96558 6.08022,3.97644 6.86447,13.44749c0.39076,4.71901 -1.4493,3.06317 -2.22961,10.61409c-0.16089,1.55689 1.71521,0.84255 1.71521,0.84255l32.33188,-3.17605l0.5464,9.56651z" fill="#515151" stroke="none" stroke-width="0" stroke-linecap="butt"/><path d="M383.69957,114.49392c-0.10518,7.00418 -0.66502,11.1559 -4.77951,11.09412c-1.95289,-0.02933 -4.54382,-3.4171 -4.54382,-3.4171c0,0 -1.01768,-4.30364 -0.96242,-7.98338c0.10518,-7.00418 -1.08825,-12.54948 3.02624,-12.48769c4.1145,0.06179 7.36469,5.78988 7.25951,12.79407z" fill="#545454" stroke="none" stroke-width="0" stroke-linecap="butt"/><path d="M381.15197,125.36222c0,0 -0.65188,-2.50555 -0.13446,-4.60419c0.78509,-3.18426 2.26478,-6.72857 1.97733,-8.05482c-0.40163,-1.85305 0.03897,-4.881 -1.49164,-7.13996c-2.12686,-3.13899 -4.47274,-3.83707 -4.47274,-3.83707l7.09474,-0.46844c0,0 3.88471,1.991 4.34645,3.68764c0.33294,1.22335 1.19299,4.87753 1.47625,7.54297c0.32087,3.01947 -2.14023,5.05994 -2.0856,7.3663c0.05297,2.23645 3.37664,4.50908 3.37664,4.50908z" fill="#5f5f5f" stroke="none" stroke-width="0" stroke-linecap="butt"/><path d="M367.65897,178.05986c0,0 -3.83941,-3.98762 -5.75824,-5.64045c-2.68501,-2.31279 -4.87267,-9.43185 -4.87267,-9.43185c0,0 13.04118,-0.93797 24.04009,-2.15765c2.93108,-0.32503 -5.61357,-6.90976 -5.61357,-6.90976l32.67903,-5.37099c0,0 7.10581,8.36336 9.46268,8.11464c11.80482,-1.24575 21.23134,-1.97298 21.23134,-1.97298c0,0 6.53004,4.53247 6.51702,5.3989c-0.08432,5.61519 -4.13067,8.59386 -4.13067,8.59386z" fill="#535353" stroke="none" stroke-width="0" stroke-linecap="butt"/><path d="M367.49556,180.66411l-10.72339,-10.52649l0.25943,-7.17459l11.07982,8.58316z" fill="#444444" stroke="none" stroke-width="0" stroke-linecap="butt"/><path d="M444.89859,168.38378l-77.39163,12.28465l0.5647,-9.14814l77.25172,-11.29093z" fill="#4c4c4c" stroke="none" stroke-width="0" stroke-linecap="butt"/></g></g></svg>